<?xml version="1.0" encoding="UTF-8"?>
<!DOCTYPE svg PUBLIC "-//W3C//DTD SVG 1.1//EN" "http://www.w3.org/Graphics/SVG/1.1/DTD/svg11.dtd">
<!-- Creator: CorelDRAW X5 -->
<svg xmlns="http://www.w3.org/2000/svg" xml:space="preserve" width="538px" height="615px" style="shape-rendering:geometricPrecision; text-rendering:geometricPrecision; image-rendering:optimizeQuality; fill-rule:evenodd; clip-rule:evenodd"
viewBox="0 0 1053.82 1204.51"
 xmlns:xlink="http://www.w3.org/1999/xlink">
 <defs>
  <style type="text/css">
   <![CDATA[
    .fil0 {fill:#4B4B4D}
    .fil1 {fill:#FEFEFE;fill-rule:nonzero}
   ]]>
  </style>
 </defs>
 <g id="Layer_x0020_1">
  <metadata id="CorelCorpID_0Corel-Layer"/>
  <g id="_565021544">
   <g id="_186330344">
    <path id="_186332672" class="fil0" d="M492.967 621.144c-1.00371,0.0578176 -4.02179,13.113 -5.87658,14.954 -4.07961,4.04955 -12.9095,39.538 -14.9378,48.391 -0.802509,3.50144 -1.66052,52.8592 -1.47319,76.3748 0.159577,19.2486 -9.78274,24.1816 -14.4613,25.0767 -4.19525,0.809447 -14.1723,-67.4362 -5.90665,-110.332 1.26274,-6.56346 -5.17583,-9.47978 -7.58105,-12.4539 -2.56942,-3.17766 0,-14.7366 -1.50095,-16.9753 -16.3901,-24.4684 -30.1669,38.4395 -44.4109,57.3875 -10.9021,14.4983 -1.14016,34.2026 -23.7399,53.6825 -1.49401,1.28586 -0.541173,20.2593 -5.71007,27.4217 -21.3578,29.5957 22.4772,33.9135 -3.47368,67.2928 -0.598991,0.772444 5.61062,37.1328 5.61062,49.9059 0,23.9342 -0.571238,9.34333 5.92053,23.6312 6.93812,-0.837199 4.62079,-3.68183 11.2629,-3.68183 0,24.0429 -6.36919,67.5379 4.20219,87.2422 1.02453,1.90567 2.63648,22.0586 4.22994,22.498 1.24886,-7.4446 16.2098,-21.7903 21.0179,-21.3786 0,20.2524 4.23919,10.6431 2.3474,45.5164 -2.59948,47.9863 -1.60964,13.978 19.5377,40.7152 15.5807,19.6973 -5.68925,11.2999 34.1517,36.6055 7.62499,4.84512 17.1695,23.9851 18.83,33.1411 1.48707,8.18004 17.1834,12.0423 17.1834,38.347 -0.316841,-7.8632 11.4803,-28.3908 17.1834,-34.7646l4.49127 -5.01857c0.751629,-0.844137 2.3474,-1.60964 3.39968,-1.9288 16.3254,-42.8521 21.4434,-18.4114 32.815,-49.4086 1.22805,-3.35111 11.1912,-24.9379 15.7102,-27.2992 4.03567,-2.10919 -1.42925,-0.751629 3.01808,-1.73222 0,0 5.48111,-10.1875 6.12173,-10.9599 14.8013,-32.2599 -15.9484,-70.1744 5.6245,-101.465 22.5558,-32.7294 7.87707,-102.492 7.36365,-142.773 -0.0208143,-1.35756 2.28264,-30.0074 2.45378,-39.2697 0.224332,-12.1671 -8.03665,-22.4911 3.04583,-37.5445 20.072,-27.2414 -9.18375,-34.2882 -9.18375,-66.1665 0,-14.015 -0.823323,-17.8841 -10.9391,-28.4416 -23.9342,5.66844 -20.9254,-25.6387 -35.4885,-30.678 -0.476417,-2.28264 -6.67215,-3.83447 -14.9748,-4.66473 -2.38209,-0.238209 9.19069,29.9773 8.60558,34.4339 -0.339968,2.5856 6.12173,22.7663 1.84091,33.4949 -1.11935,2.81688 -0.455603,111.366 -11.3438,116.57 -3.8044,1.8201 -1.2558,-4.38258 -2.25951,-16.9521 -1.81316,-22.5558 -4.80118,-59.9361 -3.46675,-67.7553 0.619805,-3.63789 -4.10736,-25.264 -5.4071,-26.5499 -6.70685,-6.62821 -8.47606,-64.2238 -10.1944,-64.3025 -1.84091,-0.0948209 3.0759,-10.095 0.663746,-10.2314 -11.2791,-0.663746 -21.5243,-0.108697 -24.3112,0.0508795l0.00925082 -0.00462541z"/>
    <polygon id="_186332504" class="fil0" points="512.174,417.564 470.425,431.477 414.758,473.233 359.096,563.678 373.012,570.637 533.046,459.31 526.087,431.477 "/>
    <path id="_186332408" class="fil0" d="M553.921 410.602c5.57362,-15.3355 18.8879,-21.8782 31.9847,-29.2488 25.819,-14.5261 25.6618,-7.62499 50.4262,-16.1658 7.88401,-2.71512 31.8691,-2.48385 39.9427,-0.612867 3.39274,0.78632 21.0549,1.47319 25.3704,5.36548 13.7837,12.44 10.3748,3.89922 28.7377,25.3727 3.08977,3.61013 16.1658,21.0479 18.0206,22.0146 1.34368,2.70124 21.0248,15.0025 1.00371,21.9059 -12.4123,4.27388 -1.60964,-11.848 -16.4618,-22.7085 -9.77581,-7.14163 -49.7532,-19.1908 -62.0337,-18.8601 -0.390847,0.00693812 -15.0835,-2.73593 -15.3425,-3.12678 -24.6488,1.48013 -7.59492,-1.34368 -32.9306,6.11479 -3.51531,1.03147 -16.3763,7.5533 -19.9494,10.0001 -1.86173,-0.527297 -5.26372,3.26323 -7.62499,3.97785 -0.0208143,0.0716939 -15.8837,16.7879 -23.9851,12.0654l-1.21186 -0.439414c-0.404723,-0.152639 -4.83818,-3.14065 -4.96075,-3.64714 -7.53017,-2.52779 -12.2967,-8.38356 -10.983,-12.0076l-0.00231271 0z"/>
    <path id="_186332312" class="fil0" d="M588.708 431.477l4.06574 -1.58883c3.71189,-1.45238 25.7543,0.374658 32.0587,-0.432476 1.74841,1.61658 11.7763,1.08235 22.3754,6.1888 2.74981,1.32749 13.9202,5.37935 15.3147,6.19574 10.6569,6.22349 21.2769,7.23414 33.6452,9.71799 3.61013,2.50466 6.25124,14.1815 11.7231,15.842 1.58189,6.59121 47.4151,19.6904 50.7731,30.4398 2.6943,8.63564 26.5198,16.744 32.0009,21.3717 0.497232,0.4186 8.67264,4.13049 9.62548,4.24613 0.245147,1.55876 0.837199,0.36772 2.00049,3.01114 0.296026,0.0439414 15.6038,11.7185 17.4378,13.608 6.41082,1.23498 21.4503,20.2315 24.1076,21.1196 -11.1403,4.76649 -25.8121,-2.84463 -34.4986,-8.33962 -0.945896,-0.598991 -25.6965,-10.3679 -27.1766,-11.0478 -0.483355,-0.70075 -34.716,-21.3763 -37.711,-22.8634 -8.45525,-4.18137 -16.0294,-11.2929 -27.6669,-17.3707 -8.25173,-4.31088 -22.0331,-14.7643 -31.24,-16.781 -4.69248,-1.02453 -18.8231,-12.521 -27.7756,-13.6611 -8.6287,-1.08928 -22.8888,-11.6676 -42.1884,-13.2842 -4.40339,-0.36772 -61.2427,-9.71105 -61.3144,-9.76887 -2.00049,-1.47319 -15.9345,-0.0948209 4.30394,-11.552 3.06202,-1.73915 27.7108,-11.5589 29.2927,-4.45427 0.187329,0.837199 2.33121,2.0213 2.167,3.11984 -1.66052,-1.35062 -2.3474,-3.30023 -1.31362,-3.71189l-0.00693812 -0.00462541z"/>
    <path id="_186332216" class="fil0" d="M505.213 410.602l-4.04955 -3.46675c-1.35062,-1.15635 -10.5274,-6.05004 -10.7795,-7.65274 -21.7764,-9.93538 -45.3059,-41.8114 -65.401,-46.8531 -0.289088,-0.0716939 -20.7149,-9.22769 -23.7191,-10.4326 -15.4142,-6.15873 -53.6825,-9.89838 -58.0582,-11.552 -8.22398,-3.1129 -38.4695,-7.1347 -39.0986,-7.61805 -1.35062,-1.04072 -12.6135,-0.802509 -18.9457,-4.44733 -27.4958,-3.20541 -10.6639,4.80811 -23.0623,4.80811 -0.693812,10.8813 21.7394,3.26323 25.264,11.6607 4.07961,9.70411 38.8026,19.9286 49.6029,25.0767 0.411662,0.0508795 29.191,17.5534 36.5061,20.6432 0.823323,0.353844 0.851076,0.432476 1.87792,0.915831 10.5043,0.534235 53.5877,17.6899 65.7826,18.3536 5.6245,0.309903 17.4656,5.69619 25.3149,4.96769 0.0277525,-0.00693812 20.7218,3.68183 26.6863,3.68183 1.62352,0 3.28635,0.115635 5.1689,0.078632l6.91036 1.83398 0 0.00231271z"/>
    <path id="_186332120" class="fil0" d="M491.3 424.525l-2.39596 -0.642932c-6.71378,-1.80391 -23.8186,-19.1839 -29.7113,-19.6904 -1.2928,-3.09671 -39.7623,-7.35672 -45.9928,-9.60235 -34.4107,-12.4331 -37.8705,-10.2106 -74.3396,-8.64258 -13.3281,0.571238 -25.5947,2.39596 -39.3784,2.65036 -8.26792,3.08977 -18.6057,0.707688 -30.685,6.28825 -6.13098,2.83075 -19.7042,15.2916 -21.2121,15.5529 -0.425538,-0.751629 -0.353844,-0.346906 -0.0138762,-1.30668 4.38258,-2.33121 12.5765,1.2558 12.5857,1.2558 13.8554,15.2708 40.7869,14.2532 60.5767,13.6033 13.2564,-0.432476 41.964,-1.62352 53.7195,1.27893 2.67117,0.663746 12.8448,-0.555049 22.5489,2.19476 5.59675,1.58883 11.8549,-0.296026 19.2856,3.73271 1.99355,1.08235 30.116,2.63648 39.1194,7.36365 2.5116,1.32055 16.1589,-7.25727 29.9125,-7.25727 2.18782,0 4.27388,-0.693812 5.11802,-0.844137 0.895017,-1.4015 3.72577,-5.1689 0.867264,-5.9344l-0.00462541 0z"/>
    <path id="_186332024" class="fil0" d="M400.845 473.233l-0.0716939 2.93251c-4.07267,1.30668 -47.0982,-11.1403 -62.0291,-10.5043l-1.22805 0.0578176c-5.74013,0.245147 -43.4002,-5.95059 -49.2421,-8.54082 -13.2055,-1.87098 -34.2535,-4.86593 -44.6491,3.68183 -3.89922,3.21235 -24.5262,14.6579 -28.1734,13.2934 -2.59948,1.7831 -21.1844,5.68925 -32.3686,11.6028 -0.816385,0.432476 -20.2385,10.687 -20.3541,10.953 16.9383,0.252085 40.137,2.35433 55.3731,-1.94267 13.719,-3.86222 85.6973,-1.04072 102.289,-5.46492l1.57495 -0.4186c16.5266,-1.35756 38.34,-0.959773 54.5197,3.73271 6.66522,0.592053 18.3467,6.94505 21.4873,-0.5643 5.59675,-13.3721 2.74287,-9.40115 5.46492,-18.4762 -0.952835,-0.635994 -2.59254,-0.476417 -2.59254,-0.339968l0 -0.00231271z"/>
    <path id="_186331928" class="fil0" d="M533.046 396.689c-4.4774,0.275212 -2.67117,0.381596 -5.42329,-0.0578176 -2.3474,-1.58189 -7.84007,1.44313 -9.64629,-1.54489 -4.00098,-0.527297 1.37143,-16.6723 -2.90245,-28.2312 -8.86691,-23.9504 8.56395,-53.856 8.42519,-54.6145 -0.555049,-3.10365 10.6199,-21.4157 17.5881,-25.2131 5.33541,-2.90938 31.7188,-25.6248 37.3872,-31.2493 2.56942,-1.73222 2.22482,-4.45427 3.94316,-5.2059 -7.68281,18.9896 -17.306,16.8527 -24.6581,41.7189 -4.62079,6.21655 -2.57867,8.12916 -8.64258,15.6455 0.0716939,0.339968 -12.4123,45.7546 -13.8994,55.1765 -1.13323,7.14857 -5.44411,33.7771 -2.17394,33.5735l0.00231271 0.00231271z"/>
    <path id="_186331832" class="fil0" d="M546.959 396.689l-3.98479 -5.15502c-2.03518,-2.6203 -4.03567,-5.19202 -6.22349,-8.7004 14.873,-3.17072 7.5533,-12.9465 18.7144,-23.9064 7.72675,-7.57411 12.3175,-19.1261 24.4985,-28.8371 9.92151,-7.91408 21.0549,-8.84378 34.1008,-21.0248 6.64903,-6.20961 22.9467,-7.87014 32.1744,-7.58799 0.173453,5.77714 -10.5714,4.86593 -20.967,11.7971 -9.74111,6.48483 -15.0118,8.49919 -25.1114,16.2028 -15.0118,11.4502 -12.2458,10.4049 -24.5494,22.7015 -13.1616,13.1616 -10.6292,1.93573 -19.9864,24.3898l-1.59577 1.94961c-1.22805,2.28264 -1.22805,-0.548111 -1.7831,2.96026 -1.2928,0.663746 -9.13981,10.2314 -5.28453,15.213l-0.00231271 -0.00231271z"/>
    <path id="_186331736" class="fil0" d="M533.046 549.765c3.60319,-0.714626 2.167,6.0431 4.41958,6.86642 12.9673,4.7503 18.7584,-1.6027 27.9051,8.85997l1.12629 0.5643c6.93118,3.47368 20.0003,8.47606 25.1044,11.9775 9.60929,-2.71512 21.64,23.9342 23.7191,30.2247 1.69753,0.5643 1.64665,20.7935 5.74013,23.8278l0.612867 1.12629c1.89873,7.17632 5.06251,5.79795 6.0801,19.0174 0.598991,7.79844 5.26372,20.5206 6.75079,33.0902 1.37143,11.545 4.19525,47.5608 3.73964,58.2964 -0.302964,6.94505 1.73222,40.1879 0.33303,44.7717 -5.81183,-9.67405 -6.75772,-20.0142 -7.6458,-30.6572 -0.693812,-8.24479 -8.23786,-53.4813 -11.4016,-58.7589 -0.555049,-0.925082 -0.490294,-0.629056 -0.4186,-1.69059 -2.59254,-3.08284 -8.1731,-31.3649 -12.78,-43.0117 -9.2647,-23.4161 -9.52372,-18.4323 -26.3903,-33.3353 -5.48111,-4.84512 -7.80538,-12.5996 -20.4119,-24.0429 -2.92326,-2.65036 -13.682,-12.9465 -16.6723,-13.8485 -2.21557,-5.79101 -13.7768,-3.37886 -15.1043,-13.379 -2.36821,-0.707688 -2.093,-18.83 3.89228,-16.6422 1.35756,-1.24192 0.744691,-0.323779 1.4015,-3.25629z"/>
    <path id="_186331640" class="fil0" d="M519.133 563.678c-3.55925,-2.72899 -1.99355,-1.74841 -4.52596,-3.19847 -4.60691,5.99222 -2.80762,6.95199 -2.80762,16.9753 0,22.0216 7.30584,26.8736 4.85206,52.6719 -0.677623,7.19945 7.45847,61.7909 10.7865,66.8881 8.65646,13.2495 3.02502,74.8808 8.23786,92.9176 0.635994,7.15551 1.64665,24.2302 -2.32427,29.4292 2.87469,-4.02179 -4.25306,-2.46303 7.63887,-16.1797 5.72626,-6.6074 4.96769,-96.2756 8.29567,-112.867 2.01437,-10.0441 1.91261,-23.8347 -1.84091,-33.4949 -2.72205,-21.4735 -12.2828,-40.7013 -14.8383,-55.4795 -0.751629,-4.36176 1.01065,-13.5224 -2.90938,-19.2856 -0.0370033,-0.0647557 -2.167,-9.4289 -3.27017,-11.4595 -0.816385,-1.51713 -5.76789,-5.74013 -7.29196,-6.9173l-0.00231271 0z"/>
    <path id="_186331544" class="fil0" d="M491.3 581.028l-3.30717 1.17717c-1.46626,0.520359 -1.17023,0.476417 -1.30668,0.881141 -0.989838,0.224332 -20.8884,13.2055 -22.9166,19.4221 -6.28131,19.2625 -25.3149,22.6067 -22.4911,55.2783 1.17023,13.5964 11.508,4.40339 8.483,25.0535 -2.75906,18.83 -2.80762,43.4164 -0.506482,62.036 1.13323,9.22769 3.61013,33.9343 6.96124,41.0621 12.1163,-1.38531 14.4613,-16.5266 14.4613,-25.0767 0,-25.3287 -1.17023,-50.9975 1.33674,-75.4081 0.642932,-6.28131 11.4502,-44.2236 15.0765,-49.3578 2.99033,-4.22994 9.29245,-25.2131 9.92844,-30.5208 1.44313,-12.1371 -4.04955,-21.4596 -3.45056,-23.3213 -0.809447,-0.925082 -0.635994,-1.80391 -2.26645,-1.22805l-0.00231271 0.00231271z"/>
    <path id="_186331448" class="fil0" d="M553.921 549.765l1.05459 1.39456c1.42231,0.779382 8.49919,-5.37241 8.71427,-5.9344l1.11935 -0.612867c5.48805,-2.99727 50.1094,-0.64987 58.8306,0.268274 17.3222,1.81316 32.4843,10.2962 53.2778,13.3929 12.2828,1.82704 15.4373,4.65779 32.4172,6.13792 12.9604,1.11935 46.0298,7.16939 59.0688,10.3748 17.6182,4.3317 12.4979,4.69942 32.6855,6.75079 12.6066,1.28586 29.4084,2.56248 39.7832,8.50613 9.54453,5.46492 20.2824,5.9344 20.7588,6.22349 -2.62723,10.9252 -59.1127,10.1597 -72.1009,6.1888 -13.3212,-4.07267 -14.0427,-4.03567 -27.313,-5.36548 -12.0214,-1.19798 -51.0761,-10.4118 -61.5203,-9.92151 -16.448,0.765505 -65.1998,-22.9097 -75.7411,-23.2704 -1.71834,-0.0578176 -32.0518,-10.0371 -38.9598,-11.0409 -13.2426,-1.9288 -8.09447,-4.96769 -30.5277,-4.96769 -1.01065,0 -0.541173,0.0578176 -1.42231,-0.159577 -0.548111,0.751629 -1.11935,0.721564 -0.122573,2.03518l-0.00231271 0z"/>
    <path id="_186331352" class="fil0" d="M512.174 542.803c8.67264,13.0622 4.03567,13.7051 -8.98255,16.8457 -3.94316,0.952835 -2.67811,-2.15082 -8.54082,2.03518 -3.74658,2.68505 -15.9924,4.67166 -31.0689,15.9345 -3.30023,2.46997 -24.0729,34.8964 -25.227,38.0301 -0.686873,0.231271 -29.4292,41.069 -30.2317,45.8193 -0.448665,2.6573 -9.71105,11.1195 -10.4257,20.1945 -0.173453,2.10919 -5.46492,9.05424 -6.8086,11.0478 0,-15.7981 -6.0431,-16.2884 -1.01065,-30.8954 5.16196,-14.9956 -2.77293,-9.69717 13.9502,-25.9277 1.15635,-1.12629 6.20268,-8.80909 6.08704,-10.0649 4.12355,-2.49078 4.15131,-21.1543 11.0987,-32.0726 9.17681,-14.4105 14.2879,-15.7333 24.288,-34.043 7.90714,-14.5053 33.1619,-31.7881 49.9429,-24.2001 0.541173,0.245147 18.5479,7.22489 17.1117,9.21151l-0.180391 -1.91261 -0.00231271 -0.00231271z"/>
    <path id="_186331256" class="fil0" d="M484.338 508.018l-4.26 -0.635994c-3.16147,-0.462541 -24.4846,14.6926 -29.3575,17.7986 -10.2383,6.52645 -17.9928,12.6505 -28.4833,19.7389 -19.9494,13.4877 -16.1959,14.4845 -30.7359,27.5674l-1.27893 0.555049c-5.99222,2.62723 -16.5127,14.3966 -20.3541,19.8338 -3.94316,5.57362 -9.69717,9.67405 -13.4507,15.1482 1.42925,5.09026 -24.7159,19.1261 -31.5962,30.7359 -3.89922,6.57733 -8.39049,19.0683 -13.5525,28.9458 -0.571238,1.09854 -0.296026,2.53472 -2.20863,3.26323 -1.18411,3.54538 -12.6713,17.0099 -12.6713,22.3546 0.180391,0.0138762 20.3032,-4.67166 20.8097,-14.0659 0.527297,-9.85675 14.1445,-12.9026 18.8231,-26.0804 1.45932,-2.01437 8.33962,-12.9234 8.33962,-14.311 1.66052,-1.15635 9.9932,-11.5173 18.9665,-18.5201 2.09994,-1.63971 6.38307,-5.85577 8.84378,-6.78085 0.476417,-0.793258 4.71561,-5.04632 5.52274,-5.57362 6.42701,-15.176 23.7538,-15.2269 38.303,-28.8163 7.51629,-7.01906 19.0104,0.28215 28.3838,-14.7805 0.159577,-0.252085 1.10547,-0.439414 1.73915,-2.093 5.72626,-14.8221 25.3357,-19.4013 33.2428,-36.2424 1.65358,-3.53844 3.97091,-12.3175 6.88724,-14.5261 -0.201205,-1.70446 0.605929,-3.14065 -1.91261,-3.51531z"/>
    <path id="_186331160" class="fil0" d="M519.133 480.185l3.01808 1.94961c8.54082,5.5158 61.4879,15.169 73.0769,16.5983 16.5497,2.04443 32.0425,10.4766 48.1667,9.87756 1.6027,-0.0647557 25.7103,1.84091 26.8089,2.55554 4.18137,2.72899 60.2645,6.55652 68.4676,6.03616 2.8585,-0.180391 14.3457,6.62128 16.5636,9.19763 -0.390847,-0.115635 -19.466,3.8414 -21.7186,4.46121 -7.91408,2.15775 -85.2694,-1.84091 -95.0244,-3.17766 -5.21978,-0.714626 -21.3856,-6.1888 -32.7733,-7.97883 -16.8457,-2.65036 -29.2557,-8.83685 -46.0807,-10.4326 -3.72577,-0.353844 -17.1325,-7.67587 -27.5374,-8.92473 -0.867264,-0.78632 -3.86916,-1.05459 -6.26743,-2.28264 -0.0578176,0.0277525 -5.86271,-0.966711 -7.26421,-2.37515 -1.46626,-3.86222 -0.173453,-9.93538 -3.0042,-17.3152 -0.966711,-2.52085 6.85255,6.02922 3.56619,1.80391l0.00231271 0.00693812z"/>
    <path id="_186331064" class="fil0" d="M783.535 514.979l3.20541 -2.85157c3.66101,0.772444 29.6466,0.302964 36.0504,0.302964 -5.37241,0 -8.04359,2.79375 -15.6963,3.35111 -8.19391,0.598991 -7.09769,9.60929 -16.441,3.68183 -0.534235,-0.339968 -1.71834,-0.642932 -1.94267,-1.30668l-0.635994 -0.390847c-5.45105,-3.30023 -4.10043,-0.252085 -2.25951,-3.77665 -0.520359,-0.5643 -0.425538,-0.425538 -0.707688,-1.16329 -1.14016,0.721564 0.0508795,0.707688 -1.57495,2.15082l0.00231271 0.00231271z"/>
    <path id="_186330968" class="fil0" d="M519.133 473.233c0.663746,0.707688 25.9277,-4.51903 31.4019,-4.38258 10.051,0.259023 20.3888,-0.455603 30.2964,-1.76228l0.802509 -0.101759c8.52001,-1.11935 29.9218,-3.21235 36.6564,0.129511 7.18326,3.55925 26.1289,-3.37886 32.808,3.29329 5.54587,5.55281 23.2704,7.05375 28.4116,11.6676 0.425538,0.381596 13.6241,9.5376 13.6473,9.73186 -7.27808,1.89179 -22.4702,-1.38531 -31.95,2.38209 -9.65323,3.82753 -23.1548,3.60319 -33.7609,4.78036 -2.73593,0.302964 -18.3259,1.91261 -19.1492,0.793258 -2.77293,-3.77665 -41.1916,-6.67215 -48.1945,-6.67215 -8.38356,0 -16.7,-4.11662 -24.961,-7.22027 -0.527297,-0.194267 -2.81688,-1.23498 -3.04583,-1.62352 -3.9131,-0.309903 -10.687,-11.0755 -12.9604,-11.0177l-0.00231271 0.00231271z"/>
    <path id="_186330872" class="fil0" d="M696.166 451.556c2.24564,0.571238 1.32749,0.231271 2.88163,1.08928 5.00932,6.26743 2.12306,5.5158 9.22538,12.3313 5.94134,5.69619 6.8803,6.48483 14.7366,10.2823 9.17681,4.42652 8.49919,5.2429 21.0826,3.41587 16.1311,-2.34046 33.9135,1.06847 48.5552,-5.71932 3.68876,-1.7114 38.939,-0.252085 44.4687,0.635994 5.19202,0.830261 31.055,0.895017 38.1805,0.895017 0.302964,0 0.425538,0 0.73544,0 -13.638,0 -17.1765,-5.02551 -28.622,-7.72675 -4.76649,-1.11935 -11.9289,-5.35854 -18.4484,-6.02922 -0.143388,-0.0138762 -7.66893,-1.62352 -9.34333,-1.87098 -10.0279,-1.45932 -28.3168,-5.4071 -37.2785,-5.22671 -1.89873,0.0370033 -17.7477,0.908893 -21.9129,0.908893 -12.0931,0 -25.9139,-1.84091 -39.582,-1.84091 -5.9714,0 -10.7795,-1.53795 -18.9457,-1.53795 -1.7299,0 -4.4589,0.714626 -5.73782,0.390847l0.00462541 0.00231271z"/>
    <path id="_186330776" class="fil0" d="M595.667 215.78l3.14759 3.2771c7.60186,7.93489 9.97007,-1.23498 18.9318,-7.94877 6.13792,1.45238 13.7051,-28.555 12.225,-38.0001 -3.58932,-22.8449 13.9433,-22.4911 -0.462541,-40.5556 -6.28825,-7.88401 10.4118,-24.4545 6.19574,-31.351 -7.09769,-11.589 3.10365,-30.5693 -1.94961,-38.2961 -1.22111,-8.55701 1.24192,-18.6288 7.89789,-24.6928 -18.5132,-5.30766 -7.94183,4.07267 -11.1773,-15.4512 -0.108697,-0.642932 -6.65597,-17.676 -6.69991,-17.7408 -0.490294,-0.888079 -0.959773,-0.598991 -1.6027,-0.28215 -2.56248,13.9502 -3.17766,52.2671 -5.95059,60.209 -2.03518,5.81183 -6.95199,28.0947 -6.45476,33.9575 0.462541,5.38629 -2.6203,22.3615 -6.13792,28.3908 -9.5746,16.4179 -3.9501,8.96636 -8.88773,23.726 -0.00693812,0.0138762 -2.02824,3.06202 -2.766,4.65085 -1.52407,3.24935 -2.83075,9.89144 0.555049,12.1301 0.585114,6.93812 8.84378,-2.2387 2.29652,22.9166 -1.73222,6.65597 -3.73271,20.2963 0.837199,25.0605l0.00231271 0z"/>
    <path id="_186330680" class="fil0" d="M553.921 0.0832574c-5.68232,3.87841 -8.21704,16.4618 -7.97883,24.4199 0.0855701,2.80762 -6.26743,5.86965 -4.23919,22.8588 1.28586,10.8373 -6.97512,7.82619 -3.68183,30.6364 0.115635,0.78632 -4.34557,14.0081 -4.34557,24.6997 0,16.9683 0.895017,21.7695 -2.5116,38.5065 -2.81688,13.8554 -5.85577,13.7837 -0.612867,27.9722 0.404723,2.81688 -2.81688,26.499 -1.7831,36.5708 0.693812,6.81554 -7.7545,10.7726 -5.47186,21.9846 0.296026,1.45238 1.16329,4.91681 1.17023,4.96075 4.87981,-0.390847 -2.57867,4.72254 11.0478,-1.11935l1.22805 -0.268274c3.29329,-0.707688 5.6615,-3.26323 7.63193,-3.92697 3.72577,-9.84056 -2.80762,-6.44782 8.12916,-15.4951 2.24564,-1.85479 0.78632,-7.56717 0.70075,-8.33962 -6.67909,-7.8632 -12.6644,-35.9926 -5.76789,-44.9451l1.58189 -2.05137c1.98661,-8.62177 4.49821,-3.14065 2.40521,-18.3606 -1.85479,-13.5386 0.728502,-12.0284 0.108697,-17.3939 -2.03518,-17.4216 -4.40339,-17.7408 1.6744,-34.2095 3.58932,-9.69024 -4.10043,-9.54453 5.97834,-22.0863 4.83818,-6.01535 -5.17583,-21.7117 -1.26968,-29.2997l0.309903 -1.89179c1.58189,-9.4659 -2.45378,-11.5173 -2.45378,-26.3903 0,-3.68183 -0.809447,-7.53711 -1.84091,-6.82942l-0.00925082 -0.00231271z"/>
    <path id="_186330584" class="fil0" d="M512.174 20.9554c6.63515,9.94926 -6.72997,2.53472 -6.72997,25.183 0,13.6611 4.87287,50.528 0.159577,61.9782 -1.65358,4.00792 -7.47929,60.1303 -6.1888,65.6114 7.01906,1.60964 3.92004,0.802509 10.8882,3.39968 2.11613,-15.7033 -0.772444,-2.21557 4.23919,-14.4475 4.80811,-11.7254 -0.309903,-30.4329 -1.17023,-42.2878 -0.765505,-10.4835 -3.98479,-8.32574 0,-23.5734 0.302964,-9.156 0.13645,-24.7575 2.45378,-31.6817 1.31362,-11.9567 5.32153,-14.4405 -1.73915,-25.4953 -0.816385,-3.70495 1.21186,-18.4693 -0.152639,-19.9425 -1.63277,0.346906 -2.04443,0.830261 -1.76228,1.2558l0.00231271 0z"/>
    <path id="_186330464" class="fil0" d="M463.466 41.8299l2.2387 4.18137c2.25951,4.23919 -8.74434,4.55603 -8.74434,23.5017 0,12.2388 4.15824,24.628 -4.29701,33.0832 -6.02228,6.02228 -2.26645,16.7949 -11.8619,24.8523 -10.8512,15.8929 5.11108,14.1144 -0.252085,27.9282 -4.45427,11.4733 -3.08977,0.0277525 -5.63144,17.2343 -1.19798,8.15229 -4.31782,4.80118 -3.06896,10.9391 2.40521,11.7694 -18.9757,6.31137 -7.57411,22.9166 2.05137,2.97414 1.17717,18.6219 8.64258,19.5886 4.35482,18.7375 -9.83362,11.8711 3.8414,24.3829 3.0042,2.74981 -5.57362,23.4439 -5.57362,29.5101 14.1954,0 5.40017,1.5657 15.0256,6.24662 5.60368,2.72205 3.44362,-12.4054 10.1875,-20.4119 4.44733,-5.27066 3.03889,-16.1011 15.9577,-31.8043 0.252085,-0.302964 2.98108,-14.5631 2.96026,-14.6787 -12.9465,-3.34186 -4.40339,-2.68505 -14.0589,-9.87063 -0.0138762,-0.765505 3.06896,-16.1658 3.06896,-21.8412 0,-8.72815 -2.15082,-30.9671 1.73222,-37.3872 7.50935,-12.3892 -5.45105,-6.78085 -1.17717,-17.2273 1.24886,-13.4738 16.108,-23.7839 9.36414,-32.9815 -13.9711,-19.0544 -4.4774,-31.2932 -8.10834,-49.8041 0.210456,-4.62079 -0.201205,-4.93069 -0.619805,-8.44137 -0.989838,-0.448665 -1.87792,0.4186 -2.05137,0.0855701l0 -0.00231271z"/>
    <path id="_186330392" class="fil0" d="M477.379 341.029c-6.78085,1.42925 -13.6611,-0.469479 -15.3795,-8.28874 -0.506482,-0.0948209 -7.52323,-4.00098 -9.34333,-4.60691 -5.28453,-1.75534 -2.90938,-1.46626 -5.30072,-2.70818 -1.05459,-0.548111 -4.51903,-3.45056 -4.51903,-3.45056 0.0277525,-0.309903 -1.52407,-7.43766 -1.61658,-7.67587 -0.728502,-1.94961 -0.973649,-5.74013 -2.06525,-5.8257 -0.555049,0.642932 -2.11613,3.25629 -2.2017,4.03567 -0.0716939,0.0508795 -5.3146,15.4442 -1.22805,19.5377 1.6744,1.6744 10.1736,4.7503 14.8083,7.026l1.19798 0.592053c6.41082,3.14065 21.1844,8.12916 27.313,2.25257 0.612867,-0.592053 0.0716939,-0.166515 0.860326,-0.642932 -0.744691,-0.374658 -0.217394,-0.73544 -2.52779,-0.245147l0.00231271 0z"/>
   </g>
   <path id="_565949208" class="fil1" d="M45.3128 803.216c0,-2.75906 -0.462541,-5.16196 -1.35756,-7.20639 -0.93202,-2.00743 -2.11613,-3.68876 -3.58932,-4.98157 -1.46626,-1.2928 -3.11984,-2.25951 -4.98157,-2.86544 -1.86173,-0.642932 -3.72577,-0.966711 -5.55281,-0.966711 -2.5116,0 -4.59303,0.289088 -6.31137,0.78632 -1.71834,0.541173 -3.11984,1.2558 -4.19525,2.15082 -1.04072,0.93202 -1.82704,2.00743 -2.29652,3.22854 -0.462541,1.2558 -0.714626,2.61336 -0.714626,4.04955 0,1.64665 0.323779,3.37192 0.93202,5.05326 0.605929,1.68134 1.50788,3.33492 2.68505,4.94688l-0.210456 0.578176c-1.97042,1.00371 -3.97785,1.46626 -6.02228,1.46626 -1.18411,0 -2.29652,-0.180391 -3.33492,-0.534235 -1.04072,-0.360782 -1.93573,-0.901955 -2.6943,-1.61658 -0.751629,-0.677623 -1.32055,-1.53795 -1.79003,-2.54166 -0.425538,-1.04072 -0.642932,-2.15082 -0.642932,-3.44362 0,-2.04443 0.497232,-3.97785 1.50095,-5.80489 1.00371,-1.82704 2.33121,-3.48062 3.94316,-4.98157 1.65358,-1.50788 3.58932,-2.86544 5.74013,-4.04955 2.18782,-1.18411 4.40339,-2.18782 6.73691,-3.01114 2.29652,-0.830261 4.62772,-1.47319 6.95199,-1.89873 2.33121,-0.432476 4.48434,-0.64987 6.49176,-0.64987 3.65407,0 6.8086,0.469479 9.4289,1.47319 2.57867,0.966711 4.69248,2.39596 6.33913,4.26694 1.61658,1.86173 2.80069,4.11662 3.55232,6.8086 0.751629,2.65036 1.1471,5.6615 1.1471,9.03343 0,2.29652 -0.108697,4.83818 -0.289088,7.59492 -0.217394,2.766 -0.432476,5.66844 -0.642932,8.67958 -0.252085,3.04583 -0.469479,6.16567 -0.686873,9.39421 -0.173453,3.21929 -0.28215,6.41082 -0.28215,9.60235 0,5.05326 0.93202,8.81603 2.83075,11.3646 1.86173,2.54166 4.30394,3.79746 7.34978,3.79746 2.72205,0 5.7332,-0.966711 9.03343,-2.97414l1.53795 2.25951c-2.36127,2.33121 -4.90987,4.12355 -7.66893,5.34235 -2.766,1.21186 -5.66844,1.86173 -8.71427,1.86173 -2.28958,0 -4.3687,-0.397785 -6.30212,-1.18411 -1.94267,-0.751629 -3.58932,-1.89873 -4.98851,-3.44362 -1.39456,-1.50095 -2.50466,-3.43668 -3.25629,-5.7332 -0.758567,-2.33121 -1.1471,-4.98157 -1.1471,-8.02971 0,-0.93202 0.0370033,-1.82704 0.0716939,-2.72205 0.0370033,-0.93202 0.180391,-1.90567 0.316841,-2.90938l-0.28215 0c-1.50788,3.01808 -3.26323,5.99222 -5.23365,8.89466 -1.97042,2.93945 -4.15824,5.55281 -6.52645,7.84932 -2.36127,2.29652 -4.87287,4.12355 -7.56023,5.55974 -2.6573,1.39456 -5.48805,2.10919 -8.42519,2.10919 -2.40521,0 -4.62079,-0.390847 -6.59121,-1.24886 -2.00743,-0.830261 -3.73271,-2.00743 -5.12727,-3.48062 -1.43619,-1.46626 -2.5116,-3.19153 -3.30023,-5.19896 -0.78632,-2.04443 -1.18411,-4.22994 -1.18411,-6.59121 0,-3.08284 0.534235,-5.87658 1.68134,-8.42519 1.1471,-2.5116 2.72899,-4.76649 4.73642,-6.7716 2.00743,-1.97042 4.40339,-3.6957 7.20639,-5.16196 2.83075,-1.43619 5.87658,-2.6573 9.13981,-3.62401 3.29329,-0.966711 6.7716,-1.68134 10.4627,-2.15082 3.66101,-0.462541 7.42147,-0.714626 11.2212,-0.714626 0.252085,-2.18782 0.469479,-4.33864 0.612867,-6.38307 0.173453,-2.07218 0.245147,-4.3687 0.245147,-6.84561l0.00693812 -0.00693812zm-32.2599 36.0643c0,1.39456 0.180391,2.68505 0.469479,3.94316 0.28215,1.22111 0.751629,2.32427 1.39456,3.26323 0.64987,0.966711 1.47319,1.68134 2.47691,2.21557 1.00371,0.578176 2.22482,0.830261 3.61707,0.830261 1.58189,0 3.19153,-0.360782 4.87981,-1.11241 1.68134,-0.721564 3.32798,-1.72528 4.94688,-3.04583 1.64665,-1.2928 3.1846,-2.83769 4.69248,-4.62772 1.47319,-1.82704 2.79375,-3.76277 4.01486,-5.91359 1.18411,-2.15082 2.15082,-4.37564 2.93945,-6.73691 0.78632,-2.36821 1.32749,-4.80811 1.58189,-7.27808 -2.6203,0.0716939 -5.16196,0.217394 -7.74756,0.497232 -2.54166,0.252085 -4.98157,0.686873 -7.27808,1.22111 -2.28958,0.578176 -4.40339,1.2928 -6.37613,2.22482 -1.93573,0.895017 -3.62401,2.04443 -5.05326,3.37192 -1.4015,1.35756 -2.5116,2.93945 -3.33492,4.80118 -0.78632,1.82704 -1.22111,3.94316 -1.22111,6.34606l-0.00231271 0z"/>
   <path id="_1" class="fil1" d="M121.956 803.29c1.00371,-1.93573 1.46626,-3.90616 1.46626,-5.87658 0,-1.4015 -0.217394,-2.65036 -0.677623,-3.86916 -0.469479,-1.22111 -1.18411,-2.29652 -2.15082,-3.19153 -0.93202,-0.93202 -2.11613,-1.68134 -3.51531,-2.22482 -1.42925,-0.534235 -3.08284,-0.823323 -4.98157,-0.823323 -2.72205,0 -5.16196,0.497232 -7.34284,1.46626 -2.18782,0.938958 -4.08655,2.25951 -5.74013,3.9501 -1.68134,1.68134 -3.08284,3.61707 -4.26694,5.84189 -1.17717,2.18782 -2.14388,4.54909 -2.90245,7.09769 -0.751629,2.50466 -1.28586,5.09026 -1.64665,7.74062 -0.360782,2.6203 -0.506482,5.19896 -0.506482,7.74756 0,4.51209 0.578176,8.59864 1.76228,12.2897 1.1471,3.6957 2.75906,6.85255 4.72948,9.4659 2.00743,2.6203 4.33864,4.62772 6.989,6.05698 2.6573,1.43619 5.48805,2.15082 8.49919,2.15082 3.19153,0 6.41082,-0.823323 9.71105,-2.5116 3.26323,-1.64665 6.45476,-4.3317 9.50291,-8.02971 0.217394,0.108697 0.497232,0.252085 0.823323,0.432476 0.323779,0.180391 0.642932,0.432476 0.93202,0.642932 0.289088,0.252085 0.506482,0.506482 0.714626,0.758567 0.217394,0.245147 0.323779,0.462541 0.323779,0.677623 0,0.143388 0,0.217394 -0.0370033,0.252085l-0.108697 0.210456c-3.39968,5.48805 -7.48854,9.60929 -12.2597,12.3313 -4.72948,2.766 -9.96313,4.12355 -15.6246,4.12355 -3.08284,0 -5.91359,-0.425538 -8.49919,-1.28586 -2.61336,-0.867264 -4.94688,-2.04443 -7.06069,-3.58932 -2.07912,-1.50095 -3.94316,-3.33492 -5.52274,-5.41404 -1.60964,-2.07912 -2.93945,-4.3317 -4.01486,-6.7716 -1.04072,-2.4399 -1.86173,-4.98157 -2.39596,-7.66893 -0.541173,-2.6573 -0.823323,-5.37935 -0.823323,-8.10141 0,-3.66101 0.425538,-7.34978 1.21186,-11.0478 0.830261,-3.68876 1.97042,-7.23414 3.55232,-10.6778 1.53795,-3.40893 3.44362,-6.59121 5.6615,-9.5376 2.22482,-2.97414 4.73642,-5.55281 7.56717,-7.74062 2.83075,-2.18782 5.91359,-3.86916 9.3202,-5.12727 3.39968,-1.2558 7.026,-1.86173 10.8582,-1.86173 2.86544,0 5.55974,0.360782 8.02971,1.04072 2.5116,0.714626 4.65779,1.68134 6.45476,2.97414 1.79003,1.2928 3.22854,2.83075 4.26694,4.62079 1.00371,1.79697 1.53795,3.8044 1.53795,6.02228 0,1.43619 -0.217394,2.6943 -0.677623,3.8044 -0.432476,1.11241 -1.04072,2.04443 -1.83398,2.83075 -0.78632,0.78632 -1.71834,1.3645 -2.75906,1.79003 -1.07541,0.397785 -2.25951,0.612867 -3.50837,0.612867 -0.758567,0 -1.58189,-0.108697 -2.40521,-0.252085 -0.823323,-0.143388 -1.60964,-0.432476 -2.4399,-0.751629l-0.210456 -0.578176 -0.00231271 0z"/>
   <path id="_12" class="fil1" d="M187.697 803.29c1.00371,-1.93573 1.46626,-3.90616 1.46626,-5.87658 0,-1.4015 -0.217394,-2.65036 -0.677623,-3.86916 -0.469479,-1.22111 -1.18411,-2.29652 -2.15082,-3.19153 -0.93202,-0.93202 -2.11613,-1.68134 -3.51531,-2.22482 -1.42925,-0.534235 -3.08284,-0.823323 -4.98157,-0.823323 -2.72205,0 -5.16196,0.497232 -7.34284,1.46626 -2.18782,0.938958 -4.08655,2.25951 -5.74013,3.9501 -1.68134,1.68134 -3.08284,3.61707 -4.26694,5.84189 -1.17717,2.18782 -2.14388,4.54909 -2.90245,7.09769 -0.751629,2.50466 -1.28586,5.09026 -1.64665,7.74062 -0.360782,2.6203 -0.506482,5.19896 -0.506482,7.74756 0,4.51209 0.578176,8.59864 1.76228,12.2897 1.1471,3.6957 2.75906,6.85255 4.72948,9.4659 2.00743,2.6203 4.33864,4.62772 6.989,6.05698 2.6573,1.43619 5.48805,2.15082 8.49919,2.15082 3.19153,0 6.41082,-0.823323 9.71105,-2.5116 3.26323,-1.64665 6.45476,-4.3317 9.50291,-8.02971 0.217394,0.108697 0.497232,0.252085 0.823323,0.432476 0.323779,0.180391 0.642932,0.432476 0.93202,0.642932 0.289088,0.252085 0.506482,0.506482 0.714626,0.758567 0.217394,0.245147 0.323779,0.462541 0.323779,0.677623 0,0.143388 0,0.217394 -0.0370033,0.252085l-0.108697 0.210456c-3.39968,5.48805 -7.48854,9.60929 -12.2597,12.3313 -4.72948,2.766 -9.96313,4.12355 -15.6246,4.12355 -3.08284,0 -5.91359,-0.425538 -8.49919,-1.28586 -2.61336,-0.867264 -4.94688,-2.04443 -7.06069,-3.58932 -2.07912,-1.50095 -3.94316,-3.33492 -5.52274,-5.41404 -1.60964,-2.07912 -2.93945,-4.3317 -4.01486,-6.7716 -1.04072,-2.4399 -1.86173,-4.98157 -2.39596,-7.66893 -0.541173,-2.6573 -0.823323,-5.37935 -0.823323,-8.10141 0,-3.66101 0.425538,-7.34978 1.21186,-11.0478 0.830261,-3.68876 1.97042,-7.23414 3.55232,-10.6778 1.53795,-3.40893 3.44362,-6.59121 5.6615,-9.5376 2.22482,-2.97414 4.73642,-5.55281 7.56717,-7.74062 2.83075,-2.18782 5.91359,-3.86916 9.3202,-5.12727 3.39968,-1.2558 7.026,-1.86173 10.8582,-1.86173 2.86544,0 5.55974,0.360782 8.02971,1.04072 2.5116,0.714626 4.65779,1.68134 6.45476,2.97414 1.79003,1.2928 3.22854,2.83075 4.26694,4.62079 1.00371,1.79697 1.53795,3.8044 1.53795,6.02228 0,1.43619 -0.217394,2.6943 -0.677623,3.8044 -0.432476,1.11241 -1.04072,2.04443 -1.83398,2.83075 -0.78632,0.78632 -1.71834,1.3645 -2.75906,1.79003 -1.07541,0.397785 -2.25951,0.612867 -3.50837,0.612867 -0.758567,0 -1.58189,-0.108697 -2.40521,-0.252085 -0.823323,-0.143388 -1.60964,-0.432476 -2.4399,-0.751629l-0.210456 -0.578176 -0.00231271 0z"/>
   <path id="_123" class="fil1" d="M209.341 827.019c0,-3.55232 0.360782,-7.1347 1.11241,-10.7934 0.714626,-3.61707 1.82704,-7.16939 3.26323,-10.5714 1.42925,-3.40893 3.19153,-6.59815 5.30766,-9.60929 2.10919,-2.97414 4.54909,-5.5875 7.34284,-7.84932 2.766,-2.22482 5.84883,-4.01486 9.21382,-5.30766 3.40893,-1.28586 7.09769,-1.93573 11.1125,-1.93573 4.48434,0 8.42519,0.93202 11.8711,2.83075 3.43668,1.89873 6.33913,4.37564 8.70734,7.49548 2.33121,3.08284 4.12355,6.62821 5.30766,10.5783 1.22111,3.94316 1.82704,7.99271 1.82704,12.1163 0,3.54538 -0.360782,7.1347 -1.11241,10.7865 -0.714626,3.61707 -1.82704,7.16939 -3.26323,10.5783 -1.46626,3.39968 -3.26323,6.59121 -5.37241,9.60235 -2.11613,2.97414 -4.55603,5.59675 -7.31509,7.84932 -2.75906,2.22482 -5.84189,4.01486 -9.24851,5.30766 -3.40893,1.2928 -7.09769,1.93573 -11.0755,1.93573 -4.48434,0 -8.46219,-0.93202 -11.8989,-2.83075 -3.44362,-1.89873 -6.34606,-4.37564 -8.67958,-7.49548 -2.29652,-3.08284 -4.08655,-6.62821 -5.27066,-10.5714 -1.22111,-3.94316 -1.82704,-7.99271 -1.82704,-12.1163l-0.00231271 0zm12.5487 -4.98157c0,2.36127 0.180391,4.76649 0.534235,7.24108 0.397785,2.43297 0.966711,4.80118 1.72528,7.06069 0.78632,2.28958 1.71834,4.40339 2.86544,6.37613 1.1471,2.00743 2.46997,3.73271 4.04955,5.19896 1.53795,1.47319 3.29329,2.6203 5.23365,3.44362 1.93573,0.860326 4.08655,1.28586 6.44782,1.28586 2.5486,0 4.80118,-0.571238 6.74385,-1.68134 1.93573,-1.07541 3.61707,-2.54166 5.01857,-4.37564 1.42925,-1.82704 2.61336,-3.90616 3.54538,-6.23043 0.93202,-2.36821 1.64665,-4.77342 2.22482,-7.27808 0.571238,-2.5116 0.966711,-4.98157 1.18411,-7.42147 0.217394,-2.46997 0.316841,-4.72948 0.316841,-6.7716 0,-2.4399 -0.173453,-4.83818 -0.534235,-7.27808 -0.360782,-2.4399 -0.93202,-4.80118 -1.71834,-7.06069 -0.758567,-2.22482 -1.72528,-4.37564 -2.83769,-6.34606 -1.14016,-1.97042 -2.50466,-3.68876 -4.04955,-5.12727 -1.57495,-1.46626 -3.32798,-2.61336 -5.26372,-3.43668 -1.93573,-0.867264 -4.08655,-1.2558 -6.41776,-1.2558 -2.5486,0 -4.80118,0.534235 -6.73691,1.60964 -1.97042,1.07541 -3.62401,2.5486 -5.05326,4.37564 -1.43619,1.79003 -2.5856,3.86916 -3.51531,6.23737 -0.93202,2.32427 -1.68134,4.76649 -2.22482,7.24108 -0.571238,2.46997 -0.966711,4.94688 -1.18411,7.41453 -0.245147,2.47691 -0.353844,4.73642 -0.353844,6.78085l0 -0.00231271z"/>
   <path id="_1234" class="fil1" d="M279.495 787.409c2.47691,-0.860326 4.87287,-1.65358 7.16939,-2.36821 2.29652,-0.714626 4.37564,-1.3645 6.31137,-1.86173 1.93573,-0.541173 3.61707,-0.93202 5.09026,-1.22111 1.46626,-0.289088 2.61336,-0.425538 3.48062,-0.425538 2.04443,0 3.61707,0.605929 4.72948,1.82704 1.1471,1.18411 1.71834,3.26323 1.71834,6.20268 0,0.714626 -0.0716939,2.21557 -0.217394,4.51209 -0.13645,2.25951 -0.316841,5.16196 -0.605929,8.60558 -0.252085,3.47368 -0.571238,7.45154 -0.966711,11.8989 -0.360782,4.44733 -0.823323,9.13981 -1.2928,14.1584l0.289088 0.0716939c2.46997,-8.92473 5.09026,-16.3832 7.84932,-22.4055 2.75906,-6.05698 5.55974,-10.9322 8.46219,-14.6279 2.86544,-3.72577 5.7332,-6.37613 8.63564,-7.95571 2.90245,-1.60964 5.74013,-2.39596 8.46219,-2.39596 2.40521,0 4.48434,0.605929 6.13098,1.79003 1.68134,1.18411 3.04583,2.75906 4.12355,4.65779 1.04072,1.93573 1.82704,4.12355 2.29652,6.56346 0.497232,2.43297 0.751629,4.90987 0.751629,7.42147 0,2.21557 -0.0716939,4.54909 -0.217394,7.026 -0.143388,2.43297 -0.323779,4.87287 -0.534235,7.27115 -0.217394,2.40521 -0.432476,4.69942 -0.64987,6.85255 -0.217394,2.15082 -0.425538,4.01486 -0.605929,5.6245l0.323779 0.0716939c2.43297,-9.03343 5.05326,-16.6353 7.84932,-22.7293 2.75906,-6.09398 5.6245,-11.0039 8.48994,-14.7296 2.90938,-3.68876 5.77714,-6.34606 8.71427,-7.95571 2.90245,-1.58189 5.69619,-2.36821 8.42519,-2.36821 1.75534,0 3.47368,0.360782 5.09026,1.07541 1.64665,0.751629 3.1129,1.93573 4.40339,3.55232 1.2558,1.64665 2.29652,3.72577 3.04583,6.26743 0.78632,2.5856 1.18411,5.63144 1.18411,9.24851 0,1.00371 -0.0716939,2.40521 -0.180391,4.19525 -0.143388,1.75534 -0.289088,3.73271 -0.462541,5.87658 -0.180391,2.18782 -0.360782,4.48434 -0.612867,6.92424 -0.217394,2.43297 -0.425538,4.80118 -0.605929,7.16939 -0.143388,2.32427 -0.323779,4.58378 -0.432476,6.69991 -0.108697,2.11613 -0.180391,3.94316 -0.180391,5.48805 0,2.72205 0.108697,4.94688 0.323779,6.66522 0.252085,1.71834 0.612867,3.04583 1.1471,4.04955 0.534235,1.00371 1.22111,1.68134 2.07912,2.04443 0.895017,0.397785 1.97042,0.571238 3.22854,0.571238 1.82704,0 3.68876,-0.245147 5.6615,-0.751629 1.97042,-0.534235 3.94316,-1.22111 5.95059,-2.15082l0.966711 2.72899c-1.24886,1.04072 -2.83075,2.07218 -4.76649,3.1129 -1.93573,1.04072 -3.94316,2.00743 -6.05698,2.87469 -2.11613,0.895017 -4.22994,1.60964 -6.34606,2.15082 -2.07912,0.534235 -3.94316,0.78632 -5.55281,0.78632 -1.89873,0 -3.37192,-0.506482 -4.44733,-1.50788 -1.11241,-1.00371 -1.89873,-2.39596 -2.46997,-4.15824 -0.541173,-1.75534 -0.867264,-3.79746 -1.04072,-6.13098 -0.143388,-2.36127 -0.217394,-4.87287 -0.217394,-7.56023 0,-3.26323 0.108697,-6.67215 0.316841,-10.2522 0.217394,-3.55232 0.506482,-6.95199 0.758567,-10.1805 0.28215,-3.22854 0.534235,-6.13098 0.78632,-8.74434 0.217394,-2.6203 0.323779,-4.55603 0.323779,-5.92053 0,-3.79746 -0.686873,-6.66522 -2.00743,-8.56395 -1.3645,-1.89873 -3.19153,-2.86544 -5.48805,-2.86544 -1.79003,0 -3.68876,0.860326 -5.69619,2.54166 -2.00743,1.69059 -4.04955,4.04955 -6.05698,7.026 -2.00743,2.97414 -3.94316,6.49176 -5.81183,10.5043 -1.89873,4.04955 -3.58238,8.42519 -5.09026,13.1547 -1.50095,4.72948 -2.75906,9.67405 -3.79746,14.8383 -1.04072,5.16196 -1.71834,10.3239 -2.00743,15.5229l-10.9668 1.3645 -0.860326 -0.0370033c0.390847,-7.34978 0.751629,-13.8762 1.07541,-19.5377 0.316841,-5.69619 0.642932,-10.65 0.895017,-14.873 0.252085,-4.22994 0.462541,-7.81926 0.642932,-10.7587 0.143388,-2.93945 0.217394,-5.37241 0.217394,-7.31509 0,-3.90616 -0.677623,-6.8803 -2.00743,-8.85304 -1.3645,-2.00743 -3.08284,-3.01114 -5.16196,-3.01114 -1.86173,0 -3.83447,0.823323 -5.87658,2.5116 -2.04443,1.64665 -4.04955,3.94316 -6.05698,6.8803 -2.00743,2.93945 -3.90616,6.41776 -5.74013,10.4326 -1.86173,4.01486 -3.50837,8.34655 -5.01857,13.0113 -1.46626,4.65779 -2.72205,9.53066 -3.72577,14.6926 -0.966711,5.12727 -1.64665,10.2892 -1.93573,15.4882l-11.0039 1.3645 -0.823323 -0.0370033c0.28215,-3.33492 0.534235,-6.95199 0.78632,-10.9021 0.252085,-3.90616 0.462541,-7.88401 0.677623,-11.9359 0.217394,-4.04955 0.397785,-8.02971 0.541173,-12.0076 0.173453,-3.97785 0.316841,-7.70362 0.425538,-11.1472 0.108697,-3.44362 0.217394,-6.52645 0.252085,-9.24851 0.0716939,-2.75906 0.108697,-4.90987 0.108697,-6.48483 0,-1.43619 -0.108697,-2.6203 -0.323779,-3.62401 -0.217394,-0.966711 -0.534235,-1.75534 -0.966711,-2.33121 -0.462541,-0.571238 -1.00371,-0.966711 -1.64665,-1.21186 -0.686873,-0.252085 -1.47319,-0.397785 -2.36821,-0.397785 -1.2928,0 -2.79375,0.180391 -4.51209,0.534235 -1.76228,0.360782 -3.76971,0.830261 -5.99222,1.43619l-0.78632 -3.79746 0 0.00231271z"/>
   <path id="_12345" class="fil1" d="M412.591 787.409c2.47691,-0.860326 4.87287,-1.65358 7.16939,-2.36821 2.29652,-0.714626 4.37564,-1.3645 6.31137,-1.86173 1.93573,-0.541173 3.61707,-0.93202 5.09026,-1.22111 1.46626,-0.289088 2.61336,-0.425538 3.48062,-0.425538 2.04443,0 3.61707,0.605929 4.72948,1.82704 1.1471,1.18411 1.71834,3.26323 1.71834,6.20268 0,0.714626 -0.0716939,2.21557 -0.217394,4.51209 -0.13645,2.25951 -0.316841,5.16196 -0.605929,8.60558 -0.252085,3.47368 -0.571238,7.45154 -0.966711,11.8989 -0.360782,4.44733 -0.823323,9.13981 -1.2928,14.1584l0.289088 0.0716939c2.46997,-8.92473 5.09026,-16.3832 7.84932,-22.4055 2.75906,-6.05698 5.55974,-10.9322 8.46219,-14.6279 2.86544,-3.72577 5.7332,-6.37613 8.63564,-7.95571 2.90245,-1.60964 5.74013,-2.39596 8.46219,-2.39596 2.40521,0 4.48434,0.605929 6.13098,1.79003 1.68134,1.18411 3.04583,2.75906 4.12355,4.65779 1.04072,1.93573 1.82704,4.12355 2.29652,6.56346 0.497232,2.43297 0.751629,4.90987 0.751629,7.42147 0,2.21557 -0.0716939,4.54909 -0.217394,7.026 -0.143388,2.43297 -0.323779,4.87287 -0.534235,7.27115 -0.217394,2.40521 -0.432476,4.69942 -0.64987,6.85255 -0.217394,2.15082 -0.425538,4.01486 -0.605929,5.6245l0.323779 0.0716939c2.43297,-9.03343 5.05326,-16.6353 7.84932,-22.7293 2.75906,-6.09398 5.6245,-11.0039 8.48994,-14.7296 2.90938,-3.68876 5.77714,-6.34606 8.71427,-7.95571 2.90245,-1.58189 5.69619,-2.36821 8.42287,-2.36821 1.75534,0 3.47368,0.360782 5.09026,1.07541 1.64665,0.751629 3.1129,1.93573 4.40339,3.55232 1.2558,1.64665 2.29652,3.72577 3.04583,6.26743 0.78632,2.5856 1.18411,5.63144 1.18411,9.24851 0,1.00371 -0.0716939,2.40521 -0.180391,4.19525 -0.143388,1.75534 -0.289088,3.73271 -0.462541,5.87658 -0.180391,2.18782 -0.360782,4.48434 -0.612867,6.92424 -0.217394,2.43297 -0.425538,4.80118 -0.605929,7.16939 -0.143388,2.32427 -0.323779,4.58378 -0.432476,6.69991 -0.108697,2.11613 -0.180391,3.94316 -0.180391,5.48805 0,2.72205 0.108697,4.94688 0.323779,6.66522 0.252085,1.71834 0.612867,3.04583 1.1471,4.04955 0.534235,1.00371 1.22111,1.68134 2.07912,2.04443 0.895017,0.397785 1.97042,0.571238 3.22854,0.571238 1.82704,0 3.68876,-0.245147 5.6615,-0.751629 1.97042,-0.534235 3.94316,-1.22111 5.95059,-2.15082l0.966711 2.72899c-1.24886,1.04072 -2.83075,2.07218 -4.76649,3.1129 -1.93573,1.04072 -3.94316,2.00743 -6.05698,2.87469 -2.11613,0.895017 -4.22994,1.60964 -6.34606,2.15082 -2.07912,0.534235 -3.94316,0.78632 -5.55281,0.78632 -1.89873,0 -3.37192,-0.506482 -4.44733,-1.50788 -1.11241,-1.00371 -1.89873,-2.39596 -2.46997,-4.15824 -0.541173,-1.75534 -0.867264,-3.79746 -1.04072,-6.13098 -0.143388,-2.36127 -0.217394,-4.87287 -0.217394,-7.56023 0,-3.26323 0.108697,-6.67215 0.316841,-10.2522 0.217394,-3.55232 0.506482,-6.95199 0.758567,-10.1805 0.28215,-3.22854 0.534235,-6.13098 0.78632,-8.74434 0.217394,-2.6203 0.323779,-4.55603 0.323779,-5.92053 0,-3.79746 -0.686873,-6.66522 -2.00743,-8.56395 -1.36218,-1.89873 -3.18922,-2.86544 -5.48574,-2.86544 -1.79003,0 -3.68876,0.860326 -5.69619,2.54166 -2.00743,1.69059 -4.04955,4.04955 -6.05698,7.026 -2.00743,2.97414 -3.94316,6.49176 -5.81183,10.5043 -1.89873,4.04955 -3.58238,8.42519 -5.09026,13.1547 -1.50095,4.72948 -2.75906,9.67405 -3.79746,14.8383 -1.04072,5.16196 -1.71834,10.3239 -2.00743,15.5229l-10.9668 1.3645 -0.860326 -0.0370033c0.390847,-7.34978 0.751629,-13.8762 1.07541,-19.5377 0.316841,-5.69619 0.642932,-10.65 0.895017,-14.873 0.252085,-4.22994 0.462541,-7.81926 0.642932,-10.7587 0.143388,-2.93945 0.217394,-5.37241 0.217394,-7.31509 0,-3.90616 -0.677623,-6.8803 -2.00743,-8.85304 -1.3645,-2.00743 -3.08284,-3.01114 -5.16196,-3.01114 -1.86173,0 -3.83447,0.823323 -5.87658,2.5116 -2.04443,1.64665 -4.04955,3.94316 -6.05698,6.8803 -2.00743,2.93945 -3.90616,6.41776 -5.74013,10.4326 -1.86173,4.01486 -3.50837,8.34655 -5.01857,13.0113 -1.46626,4.65779 -2.72205,9.53066 -3.72577,14.6926 -0.966711,5.12727 -1.64665,10.2892 -1.93573,15.4882l-11.0039 1.3645 -0.823323 -0.0370033c0.28215,-3.33492 0.534235,-6.95199 0.78632,-10.9021 0.252085,-3.90616 0.462541,-7.88401 0.677623,-11.9359 0.217394,-4.04955 0.397785,-8.02971 0.541173,-12.0076 0.173453,-3.97785 0.316841,-7.70362 0.425538,-11.1472 0.108697,-3.44362 0.217394,-6.52645 0.252085,-9.24851 0.0716939,-2.75906 0.108697,-4.90987 0.108697,-6.48483 0,-1.43619 -0.108697,-2.6203 -0.323779,-3.62401 -0.217394,-0.966711 -0.534235,-1.75534 -0.966711,-2.33121 -0.462541,-0.571238 -1.00371,-0.966711 -1.64665,-1.21186 -0.686873,-0.252085 -1.47319,-0.397785 -2.36821,-0.397785 -1.2928,0 -2.79375,0.180391 -4.51209,0.534235 -1.76228,0.360782 -3.76971,0.830261 -5.99222,1.43619l-0.78632 -3.79746 0 0.00231271z"/>
   <path id="_123456" class="fil1" d="M551.927 827.019c0,-3.55232 0.360782,-7.1347 1.11241,-10.7934 0.714626,-3.61707 1.82704,-7.16939 3.26323,-10.5714 1.42925,-3.40893 3.19153,-6.59815 5.30766,-9.60929 2.10919,-2.97414 4.54909,-5.5875 7.34284,-7.84932 2.766,-2.22482 5.84883,-4.01486 9.21382,-5.30766 3.40893,-1.28586 7.09769,-1.93573 11.1125,-1.93573 4.48434,0 8.42519,0.93202 11.8711,2.83075 3.43668,1.89873 6.33913,4.37564 8.70734,7.49548 2.33121,3.08284 4.12355,6.62821 5.30766,10.5783 1.22111,3.94316 1.82704,7.99271 1.82704,12.1163 0,3.54538 -0.360782,7.1347 -1.11241,10.7865 -0.714626,3.61707 -1.82704,7.16939 -3.26323,10.5783 -1.46626,3.39968 -3.26323,6.59121 -5.37241,9.60235 -2.11613,2.97414 -4.55603,5.59675 -7.31509,7.84932 -2.75906,2.22482 -5.84189,4.01486 -9.24851,5.30766 -3.40893,1.2928 -7.09769,1.93573 -11.0755,1.93573 -4.48434,0 -8.46219,-0.93202 -11.8989,-2.83075 -3.44362,-1.89873 -6.34606,-4.37564 -8.67958,-7.49548 -2.29652,-3.08284 -4.08655,-6.62821 -5.27066,-10.5714 -1.22111,-3.94316 -1.82704,-7.99271 -1.82704,-12.1163l-0.00231271 0zm12.5487 -4.98157c0,2.36127 0.180391,4.76649 0.534235,7.24108 0.397785,2.43297 0.966711,4.80118 1.72528,7.06069 0.78632,2.28958 1.71834,4.40339 2.86544,6.37613 1.1471,2.00743 2.46997,3.73271 4.04955,5.19896 1.53795,1.47319 3.29329,2.6203 5.23365,3.44362 1.93573,0.860326 4.08655,1.28586 6.44782,1.28586 2.5486,0 4.80118,-0.571238 6.74385,-1.68134 1.93573,-1.07541 3.61707,-2.54166 5.01857,-4.37564 1.42925,-1.82704 2.61336,-3.90616 3.54538,-6.23043 0.93202,-2.36821 1.64665,-4.77342 2.22482,-7.27808 0.571238,-2.5116 0.966711,-4.98157 1.18411,-7.42147 0.217394,-2.46997 0.316841,-4.72948 0.316841,-6.7716 0,-2.4399 -0.173453,-4.83818 -0.534235,-7.27808 -0.360782,-2.4399 -0.93202,-4.80118 -1.71834,-7.06069 -0.758567,-2.22482 -1.72528,-4.37564 -2.83769,-6.34606 -1.14016,-1.97042 -2.50466,-3.68876 -4.04955,-5.12727 -1.57495,-1.46626 -3.32798,-2.61336 -5.26372,-3.43668 -1.93573,-0.867264 -4.08655,-1.2558 -6.41776,-1.2558 -2.5486,0 -4.80118,0.534235 -6.73691,1.60964 -1.97042,1.07541 -3.62401,2.5486 -5.05326,4.37564 -1.43619,1.79003 -2.5856,3.86916 -3.51531,6.23737 -0.93202,2.32427 -1.68134,4.76649 -2.22482,7.24108 -0.571238,2.46997 -0.966711,4.94688 -1.18411,7.41453 -0.245147,2.47691 -0.353844,4.73642 -0.353844,6.78085l0 -0.00231271z"/>
   <path id="_1234567" class="fil1" d="M704.994 716.256c-1.2558,8.88773 -2.47691,17.9928 -3.62401,27.313 -1.18411,9.3202 -2.18782,18.6057 -3.04583,27.8195 -0.895017,9.24157 -1.57495,18.3467 -2.11613,27.313 -0.534235,8.95942 -0.78632,17.5604 -0.78632,25.7682 0,3.97785 0.0370033,7.34978 0.143388,10.2175 0.0716939,2.83075 0.217394,5.23365 0.390847,7.16939 0.217394,1.97042 0.469479,3.51531 0.793258,4.69248 0.353844,1.1471 0.751629,2.04443 1.28586,2.6573 0.506482,0.642932 1.07541,1.04072 1.76228,1.2558 0.642932,0.173453 1.42925,0.28215 2.36127,0.28215 1.65358,0 3.48062,-0.245147 5.41404,-0.751629 1.93573,-0.534235 3.90616,-1.22111 5.91359,-2.15082l1.00371 2.72899c-1.2558,1.04072 -2.86544,2.07218 -4.76649,3.1129 -1.89873,1.04072 -3.90616,2.00743 -5.98528,2.87469 -2.11613,0.895017 -4.15824,1.60964 -6.20268,2.15082 -2.00743,0.534235 -3.72577,0.78632 -5.19896,0.78632 -1.11241,0 -2.04443,-0.108697 -2.83075,-0.360782 -0.823323,-0.252085 -1.50788,-0.677623 -2.07912,-1.2928 -0.578176,-0.605929 -1.07541,-1.39456 -1.47319,-2.43297 -0.425538,-1.00371 -0.751629,-2.29652 -0.966711,-3.86916 -0.316841,-2.11613 -0.571238,-4.55603 -0.78632,-7.34978 -0.180391,-2.79375 -0.289088,-5.84189 -0.289088,-9.13981 0,-3.51531 0.143388,-7.06069 0.397785,-10.687 0.289088,-3.61707 0.714626,-7.23414 1.2928,-10.8582l-0.469479 -0.108697c-2.68505,7.1347 -5.6245,13.5525 -8.77903,19.2856 -3.19153,5.74013 -6.45476,10.65 -9.82668,14.6996 -3.32798,4.04955 -6.73691,7.20639 -10.1088,9.38727 -3.39968,2.18782 -6.66522,3.26323 -9.78274,3.26323 -3.15453,0 -5.84189,-0.78632 -8.1361,-2.39596 -2.25951,-1.58189 -4.12355,-3.6957 -5.5875,-6.27437 -1.43619,-2.6203 -2.5116,-5.63144 -3.22854,-8.99642 -0.686873,-3.37192 -1.04072,-6.85255 -1.04072,-10.4326 0,-4.30394 0.462541,-8.53388 1.39456,-12.7291 0.966711,-4.18831 2.33121,-8.1361 4.08655,-11.8989 1.76228,-3.72577 3.87841,-7.20639 6.38307,-10.3979 2.47691,-3.21929 5.27066,-5.98528 8.35349,-8.27486 3.08284,-2.33121 6.41776,-4.12355 10.0001,-5.45105 3.58238,-1.2928 7.34978,-1.97042 11.2929,-1.97042 2.79375,0 5.55281,0.360782 8.2818,1.07541 2.75906,0.677623 5.48111,1.82704 8.2101,3.43668 0.173453,-5.95059 0.390847,-11.9706 0.677623,-18.1362 0.252085,-6.13098 0.571238,-12.1163 0.895017,-17.9212 0.360782,-5.80489 0.751629,-11.2929 1.18411,-16.4919 0.397785,-5.19896 0.860326,-9.78274 1.3645,-13.8693 0.101759,-0.823323 0.353844,-1.54489 0.823323,-2.15082 0.462541,-0.642932 1.04072,-1.11241 1.71834,-1.47319 0.714626,-0.390847 1.50788,-0.642932 2.36821,-0.823323 0.895017,-0.180391 1.79003,-0.28215 2.68505,-0.28215 2.11613,0 4.30394,0.571238 6.63515,1.68134l-0.00231271 0zm-18.8578 73.9858c-4.72948,-2.22482 -9.4289,-3.33492 -14.0867,-3.33492 -3.40893,0 -6.52645,0.541173 -9.35721,1.61658 -2.86544,1.07541 -5.4071,2.57867 -7.70362,4.4774 -2.25951,1.89873 -4.26694,4.15824 -5.98528,6.74385 -1.72528,2.57867 -3.11984,5.33541 -4.26694,8.27486 -1.11241,2.98108 -1.93573,6.02922 -2.5486,9.21382 -0.571238,3.19153 -0.860326,6.34606 -0.860326,9.50291 0,1.1471 0.0716939,2.4399 0.180391,3.86916 0.108697,1.47319 0.289088,2.97414 0.605929,4.51903 0.289088,1.53795 0.686873,3.08284 1.1471,4.54909 0.506482,1.50788 1.11241,2.83075 1.87098,4.04955 0.714626,1.18411 1.60964,2.11613 2.65036,2.83075 1.04072,0.721564 2.22482,1.07541 3.65407,1.07541 2.5116,0 5.09026,-0.93202 7.71056,-2.83075 2.61336,-1.86173 5.19896,-4.3687 7.66893,-7.48854 2.5116,-3.11984 4.87287,-6.70685 7.09769,-10.7217 2.22482,-4.01486 4.19525,-8.1731 5.95059,-12.4054 1.72528,-4.26 3.15453,-8.45525 4.22994,-12.6135 1.11241,-4.15824 1.79003,-7.92102 2.04443,-11.3276l-0.00231271 0z"/>
   <path id="_12345678" class="fil1" d="M763.63 803.216c0,-2.75906 -0.462541,-5.16196 -1.35756,-7.20639 -0.93202,-2.00743 -2.11613,-3.68876 -3.58932,-4.98157 -1.46626,-1.2928 -3.11984,-2.25951 -4.98157,-2.86544 -1.86173,-0.642932 -3.72577,-0.966711 -5.55281,-0.966711 -2.5116,0 -4.59303,0.289088 -6.31137,0.78632 -1.71834,0.541173 -3.11984,1.2558 -4.19525,2.15082 -1.04072,0.93202 -1.82704,2.00743 -2.29652,3.22854 -0.462541,1.2558 -0.714626,2.61336 -0.714626,4.04955 0,1.64665 0.323779,3.37192 0.93202,5.05326 0.605929,1.68134 1.50788,3.33492 2.68505,4.94688l-0.210456 0.578176c-1.97042,1.00371 -3.97785,1.46626 -6.02228,1.46626 -1.18411,0 -2.29652,-0.180391 -3.33492,-0.534235 -1.04072,-0.360782 -1.93573,-0.901955 -2.6943,-1.61658 -0.751629,-0.677623 -1.32055,-1.53795 -1.79003,-2.54166 -0.425538,-1.04072 -0.642932,-2.15082 -0.642932,-3.44362 0,-2.04443 0.497232,-3.97785 1.50095,-5.80489 1.00371,-1.82704 2.33121,-3.48062 3.94316,-4.98157 1.65358,-1.50788 3.58932,-2.86544 5.74013,-4.04955 2.18782,-1.18411 4.40339,-2.18782 6.73691,-3.01114 2.29652,-0.830261 4.62772,-1.47319 6.95199,-1.89873 2.33121,-0.432476 4.48434,-0.64987 6.49176,-0.64987 3.65407,0 6.8086,0.469479 9.4289,1.47319 2.57867,0.966711 4.69248,2.39596 6.33913,4.26694 1.61658,1.86173 2.80069,4.11662 3.55232,6.8086 0.751629,2.65036 1.1471,5.6615 1.1471,9.03343 0,2.29652 -0.108697,4.83818 -0.289088,7.59492 -0.217394,2.766 -0.432476,5.66844 -0.642932,8.67958 -0.252085,3.04583 -0.469479,6.16567 -0.686873,9.39421 -0.173453,3.21929 -0.28215,6.41082 -0.28215,9.60235 0,5.05326 0.93202,8.81603 2.83075,11.3646 1.86173,2.54166 4.30394,3.79746 7.34978,3.79746 2.72205,0 5.7332,-0.966711 9.03343,-2.97414l1.53795 2.25951c-2.36127,2.33121 -4.90987,4.12355 -7.66893,5.34235 -2.766,1.21186 -5.66844,1.86173 -8.71427,1.86173 -2.28958,0 -4.3687,-0.397785 -6.30212,-1.18411 -1.94267,-0.751629 -3.58932,-1.89873 -4.98851,-3.44362 -1.39456,-1.50095 -2.50466,-3.43668 -3.25629,-5.7332 -0.758567,-2.33121 -1.1471,-4.98157 -1.1471,-8.02971 0,-0.93202 0.0370033,-1.82704 0.0716939,-2.72205 0.0370033,-0.93202 0.180391,-1.90567 0.316841,-2.90938l-0.28215 0c-1.50788,3.01808 -3.26323,5.99222 -5.23365,8.89466 -1.97042,2.93945 -4.15824,5.55281 -6.52645,7.84932 -2.36127,2.29652 -4.87287,4.12355 -7.56023,5.55974 -2.6573,1.39456 -5.48805,2.10919 -8.42519,2.10919 -2.40521,0 -4.62079,-0.390847 -6.59121,-1.24886 -2.00743,-0.830261 -3.73271,-2.00743 -5.12727,-3.48062 -1.43619,-1.46626 -2.5116,-3.19153 -3.30023,-5.19896 -0.78632,-2.04443 -1.18411,-4.22994 -1.18411,-6.59121 0,-3.08284 0.534235,-5.87658 1.68134,-8.42519 1.1471,-2.5116 2.72899,-4.76649 4.73642,-6.7716 2.00743,-1.97042 4.40339,-3.6957 7.20639,-5.16196 2.83075,-1.43619 5.87658,-2.6573 9.13981,-3.62401 3.29329,-0.966711 6.7716,-1.68134 10.4627,-2.15082 3.66101,-0.462541 7.42147,-0.714626 11.2212,-0.714626 0.252085,-2.18782 0.469479,-4.33864 0.612867,-6.38307 0.173453,-2.07218 0.245147,-4.3687 0.245147,-6.84561l0.00693812 -0.00693812zm-32.2599 36.0643c0,1.39456 0.180391,2.68505 0.469479,3.94316 0.28215,1.22111 0.751629,2.32427 1.39456,3.26323 0.64987,0.966711 1.47319,1.68134 2.47691,2.21557 1.00371,0.578176 2.22482,0.830261 3.61707,0.830261 1.58189,0 3.19153,-0.360782 4.87981,-1.11241 1.68134,-0.721564 3.32798,-1.72528 4.94688,-3.04583 1.64665,-1.2928 3.1846,-2.83769 4.69248,-4.62772 1.47319,-1.82704 2.79375,-3.76277 4.01486,-5.91359 1.18411,-2.15082 2.15082,-4.37564 2.93945,-6.73691 0.78632,-2.36821 1.32749,-4.80811 1.58189,-7.27808 -2.6203,0.0716939 -5.16196,0.217394 -7.74756,0.497232 -2.54166,0.252085 -4.98157,0.686873 -7.27808,1.22111 -2.28958,0.578176 -4.40339,1.2928 -6.37613,2.22482 -1.93573,0.895017 -3.62401,2.04443 -5.05326,3.37192 -1.4015,1.35756 -2.5116,2.93945 -3.33492,4.80118 -0.78632,1.82704 -1.22111,3.94316 -1.22111,6.34606l-0.00231271 0z"/>
   <path id="_123456789" class="fil1" d="M823.746 743.68c-1.47319,6.66522 -2.68505,13.5154 -3.68876,20.6131 -1.00371,7.09769 -1.87098,14.0867 -2.5486,20.967 1.64665,0.0716939 3.22854,0.143388 4.80118,0.180391 1.54489,0.0370033 3.01114,0.0716939 4.33864,0.0716939 1.3645,0.0370033 2.5856,0.0716939 3.68876,0.0716939 1.11241,0 2.00743,0 2.766,0 3.19153,0 5.76789,-0.180391 7.81232,-0.578176 0.180391,0.578176 0.323779,1.1471 0.432476,1.61658 0.101759,0.497232 0.13645,0.966711 0.13645,1.35756 0,1.54489 -0.642932,2.5486 -1.89873,3.01114 -1.28586,0.469479 -3.11984,0.686873 -5.55281,0.686873 -2.29652,0 -4.87287,-0.143388 -7.74756,-0.432476 -2.86544,-0.289088 -5.98528,-0.534235 -9.35027,-0.78632 -0.397785,3.76277 -0.721564,7.38678 -0.966711,10.9668 -0.289088,3.54538 -0.506482,6.8803 -0.64987,10.0371 -0.143388,3.15453 -0.28215,6.09398 -0.353844,8.77903 -0.0716939,2.6943 -0.108697,5.01857 -0.108697,7.03294 0,3.76277 0.210456,7.09769 0.605929,10.0371 0.360782,2.93945 1.04072,5.4071 2.04443,7.48854 0.966711,2.04443 2.33121,3.58932 4.04955,4.69942 1.68134,1.07541 3.86916,1.60964 6.49176,1.60964 1.89873,0 4.01486,-0.323779 6.33913,-1.00371 2.33121,-0.642932 4.98851,-1.71834 7.96496,-3.19153 0.93202,0.93202 1.46626,2.07912 1.60964,3.48062 -2.18782,1.42925 -4.37564,2.72205 -6.56346,3.90616 -2.21557,1.1471 -4.3687,2.15082 -6.51952,3.01114 -2.11613,0.823323 -4.19525,1.46626 -6.20268,1.93573 -1.97042,0.469479 -3.86916,0.677623 -5.6615,0.677623 -2.33121,0 -4.48434,-0.425538 -6.41776,-1.28586 -1.93573,-0.867264 -3.62401,-2.36821 -5.05326,-4.55603 -1.4015,-2.18782 -2.5116,-5.12727 -3.30023,-8.85304 -0.78632,-3.73271 -1.18411,-8.39049 -1.18411,-14.0867 0,-3.15453 0.0370033,-6.45476 0.143388,-9.82668 0.108697,-3.36499 0.252085,-6.8086 0.432476,-10.2823 0.180391,-3.44362 0.390847,-6.92424 0.677623,-10.3979 0.289088,-3.44362 0.605929,-6.8803 0.93202,-10.2175 -2.75906,0.0370033 -5.30766,0.143388 -7.66893,0.323779 -2.36821,0.210456 -4.37564,0.497232 -6.05698,0.93202 -0.108697,-0.217394 -0.180391,-0.469479 -0.180391,-0.758567 0,-0.714626 0.360782,-1.39456 1.07541,-2.04443 0.714626,-0.677623 1.71834,-1.24886 3.01114,-1.79003 1.2558,-0.497232 2.79375,-0.93202 4.58378,-1.2928 1.79697,-0.353844 3.73271,-0.605929 5.88352,-0.751629 0.78632,-7.31509 1.64665,-14.2301 2.57867,-20.7149 0.895017,-6.52645 1.82704,-12.3313 2.72205,-17.4586 0.180391,-0.895017 0.506482,-1.65358 0.966711,-2.25951 0.469479,-0.571238 1.04072,-1.04072 1.65358,-1.4015 0.642932,-0.353844 1.32055,-0.605929 2.04443,-0.751629 0.751629,-0.143388 1.46626,-0.217394 2.15082,-0.217394 1.17717,0 2.21557,0.143388 3.14759,0.397785 0.901955,0.252085 1.79697,0.571238 2.5856,1.04072l0.00462541 0.00693812z"/>
   <path id="_12345678910" class="fil1" d="M864.933 759.59c-1.22111,0 -2.33121,-0.252085 -3.26323,-0.751629 -0.93202,-0.541173 -1.75534,-1.18411 -2.40521,-2.00743 -0.677623,-0.823323 -1.18411,-1.75534 -1.53795,-2.83075 -0.360782,-1.07541 -0.506482,-2.15082 -0.506482,-3.30023 0,-1.57495 0.252085,-2.93945 0.793258,-4.15824 0.497232,-1.22111 1.17717,-2.22482 2.04443,-3.04583 0.823323,-0.823323 1.75534,-1.43619 2.75906,-1.82704 1.04072,-0.432476 2.00743,-0.612867 3.01114,-0.612867 1.18411,0 2.25951,0.217394 3.19153,0.64987 0.966711,0.425538 1.75534,1.04072 2.43297,1.82704 0.686873,0.751629 1.22111,1.64665 1.58189,2.65036 0.353844,0.966711 0.571238,2.04443 0.571238,3.22854 0,1.22111 -0.217394,2.4399 -0.642932,3.62401 -0.432476,1.21186 -1.00371,2.32427 -1.75534,3.29329 -0.758567,0.966711 -1.65358,1.76228 -2.72899,2.36821 -1.07541,0.605929 -2.25951,0.895017 -3.54538,0.895017l0 -0.00231271zm4.54909 23.733c-0.571238,3.97785 -1.07541,7.99271 -1.50095,12.0076 -0.432476,3.97785 -0.758567,7.88401 -1.04072,11.6167 -0.252085,3.76277 -0.432476,7.30584 -0.578176,10.6431 -0.108697,3.33492 -0.173453,6.34606 -0.173453,9.03343 0,3.66101 0.0647557,6.7716 0.13645,9.39421 0.108697,2.61336 0.289088,4.80118 0.541173,6.59121 0.252085,1.79697 0.534235,3.19153 0.93202,4.26694 0.360782,1.07541 0.823323,1.89873 1.3645,2.47691 0.534235,0.571238 1.17717,0.966711 1.89873,1.11241 0.714626,0.173453 1.50095,0.28215 2.43297,0.28215 1.69059,0 3.48062,-0.245147 5.41404,-0.751629 1.93573,-0.534235 3.90616,-1.22111 5.91359,-2.15082l1.00371 2.72899c-1.2558,1.04072 -2.83075,2.07218 -4.76649,3.1129 -1.89873,1.04072 -3.90616,2.00743 -5.98528,2.87469 -2.11613,0.895017 -4.15824,1.60964 -6.20268,2.15082 -2.00743,0.534235 -3.72577,0.78632 -5.19896,0.78632 -1.00371,0 -1.89873,-0.0716939 -2.68505,-0.217394 -0.793258,-0.180391 -1.54489,-0.571238 -2.18782,-1.18411 -0.64987,-0.642932 -1.22111,-1.57495 -1.72528,-2.79375 -0.497232,-1.22111 -0.93202,-2.86544 -1.24886,-4.98157 -0.360782,-2.07912 -0.612867,-4.73642 -0.793258,-7.88401 -0.13645,-3.15453 -0.245147,-6.96124 -0.245147,-11.4363 0,-2.6203 0.0370033,-5.59675 0.0716939,-8.88773 0.0716939,-3.33492 0.143388,-6.88724 0.245147,-10.687 0.108697,-3.79746 0.252085,-7.77532 0.432476,-12.0076 0.180391,-4.22994 0.397785,-8.57089 0.677623,-13.046 0.0716939,-0.966711 0.323779,-1.79003 0.793258,-2.40521 0.425538,-0.605929 1.00371,-1.07541 1.68134,-1.39456 0.642932,-0.360782 1.3645,-0.578176 2.11613,-0.686873 0.751629,-0.143388 1.42925,-0.180391 2.07912,-0.180391 2.32427,0 4.54909,0.541173 6.59121,1.61658l0.00693812 0z"/>
   <path id="_1234567891011" class="fil1" d="M889.668 827.019c0,-3.55232 0.360782,-7.1347 1.11241,-10.7934 0.714626,-3.61707 1.82704,-7.16939 3.26323,-10.5714 1.42925,-3.40893 3.19153,-6.59815 5.30766,-9.60929 2.10919,-2.97414 4.54909,-5.5875 7.34284,-7.84932 2.766,-2.22482 5.84883,-4.01486 9.21382,-5.30766 3.40893,-1.28586 7.09769,-1.93573 11.1125,-1.93573 4.48434,0 8.42519,0.93202 11.8711,2.83075 3.43668,1.89873 6.33913,4.37564 8.70734,7.49548 2.33121,3.08284 4.12355,6.62821 5.30766,10.5783 1.22111,3.94316 1.82704,7.99271 1.82704,12.1163 0,3.54538 -0.360782,7.1347 -1.11241,10.7865 -0.714626,3.61707 -1.82704,7.16939 -3.26323,10.5783 -1.46626,3.39968 -3.26323,6.59121 -5.37241,9.60235 -2.11613,2.97414 -4.55603,5.59675 -7.31509,7.84932 -2.75906,2.22482 -5.84189,4.01486 -9.24851,5.30766 -3.40893,1.2928 -7.09769,1.93573 -11.0755,1.93573 -4.48434,0 -8.46219,-0.93202 -11.8989,-2.83075 -3.44362,-1.89873 -6.34606,-4.37564 -8.67958,-7.49548 -2.29652,-3.08284 -4.08655,-6.62821 -5.27066,-10.5714 -1.22111,-3.94316 -1.82704,-7.99271 -1.82704,-12.1163l-0.00231271 0zm12.5487 -4.98157c0,2.36127 0.180391,4.76649 0.534235,7.24108 0.397785,2.43297 0.966711,4.80118 1.72528,7.06069 0.78632,2.28958 1.71834,4.40339 2.86544,6.37613 1.1471,2.00743 2.46997,3.73271 4.04955,5.19896 1.53795,1.47319 3.29329,2.6203 5.23365,3.44362 1.93573,0.860326 4.08655,1.28586 6.44782,1.28586 2.5486,0 4.80118,-0.571238 6.74385,-1.68134 1.93573,-1.07541 3.61707,-2.54166 5.01857,-4.37564 1.42925,-1.82704 2.61336,-3.90616 3.54538,-6.23043 0.93202,-2.36821 1.64665,-4.77342 2.22482,-7.27808 0.571238,-2.5116 0.966711,-4.98157 1.18411,-7.42147 0.217394,-2.46997 0.316841,-4.72948 0.316841,-6.7716 0,-2.4399 -0.173453,-4.83818 -0.534235,-7.27808 -0.360782,-2.4399 -0.93202,-4.80118 -1.71834,-7.06069 -0.758567,-2.22482 -1.72528,-4.37564 -2.83769,-6.34606 -1.14016,-1.97042 -2.50466,-3.68876 -4.04955,-5.12727 -1.57495,-1.46626 -3.32798,-2.61336 -5.26372,-3.43668 -1.93573,-0.867264 -4.08655,-1.2558 -6.41776,-1.2558 -2.5486,0 -4.80118,0.534235 -6.73691,1.60964 -1.97042,1.07541 -3.62401,2.5486 -5.05326,4.37564 -1.43619,1.79003 -2.5856,3.86916 -3.51531,6.23737 -0.93202,2.32427 -1.68134,4.76649 -2.22482,7.24108 -0.571238,2.46997 -0.966711,4.94688 -1.18411,7.41453 -0.245147,2.47691 -0.353844,4.73642 -0.353844,6.78085l0 -0.00231271z"/>
   <path id="_123456789101112" class="fil1" d="M976.42 796.803c0,-1.43619 -0.108697,-2.6203 -0.323779,-3.62401 -0.217394,-0.966711 -0.534235,-1.75534 -0.966711,-2.33121 -0.462541,-0.571238 -1.00371,-0.966711 -1.64665,-1.21186 -0.686873,-0.252085 -1.47319,-0.397785 -2.36821,-0.397785 -1.2928,0 -2.79375,0.180391 -4.51209,0.534235 -1.76228,0.360782 -3.76971,0.830261 -5.99222,1.43619l-0.78632 -3.79746c2.47691,-0.860326 4.87287,-1.65358 7.16939,-2.36821 2.29652,-0.714626 4.37564,-1.3645 6.31137,-1.86173 1.93573,-0.541173 3.61707,-0.93202 5.09026,-1.22111 1.46626,-0.289088 2.61336,-0.425538 3.48062,-0.425538 2.04443,0 3.61707,0.605929 4.72948,1.82704 1.1471,1.18411 1.71834,3.26323 1.71834,6.20268 0,0.353844 -0.0370033,1.18411 -0.108697,2.43297 -0.0716939,1.2928 -0.143388,2.90245 -0.28215,4.87287 -0.108697,1.97736 -0.252085,4.19525 -0.432476,6.74385 -0.180391,2.54166 -0.397785,5.23365 -0.605929,8.10141 -0.252085,2.90245 -0.506482,5.84189 -0.758567,8.92473 -0.28215,3.04583 -0.605929,6.09398 -0.895017,9.13981l0.289088 0.0716939c2.68505,-9.03343 5.5158,-16.6723 8.56395,-22.8657 3.04583,-6.20268 6.16567,-11.2559 9.28551,-15.1343 3.15453,-3.86916 6.31137,-6.66522 9.4289,-8.38356 3.11984,-1.69059 6.09398,-2.5486 8.92473,-2.5486 1.93573,0 3.83447,0.360782 5.66844,1.07541 1.82704,0.751629 3.43668,1.93573 4.83818,3.51531 1.42925,1.60964 2.54166,3.68876 3.40893,6.23737 0.823323,2.54166 1.24886,5.6245 1.24886,9.20688 0,1.04072 -0.0716939,2.47691 -0.180391,4.22994 -0.101759,1.76228 -0.28215,3.73271 -0.462541,5.91359 -0.143388,2.15082 -0.360782,4.48434 -0.578176,6.88724 -0.245147,2.43297 -0.425538,4.83818 -0.605929,7.16939 -0.180391,2.36127 -0.323779,4.58378 -0.462541,6.69991 -0.108697,2.11613 -0.180391,3.97785 -0.180391,5.55974 0,2.72205 0.108697,4.94688 0.353844,6.66522 0.217394,1.71834 0.612867,3.04583 1.11241,4.04955 0.541173,1.00371 1.22111,1.68134 2.11613,2.04443 0.860326,0.397785 1.93573,0.571238 3.19153,0.571238 1.82704,0 3.72577,-0.245147 5.6615,-0.751629 1.97736,-0.534235 3.9501,-1.22111 5.95753,-2.15082l1.00371 2.72899c-1.2558,1.04072 -2.87469,2.07218 -4.80811,3.1129 -1.89873,1.04072 -3.94316,2.00743 -6.05698,2.87469 -2.11613,0.895017 -4.22994,1.60964 -6.30212,2.15082 -2.11613,0.534235 -3.98479,0.78632 -5.59675,0.78632 -1.86173,0 -3.37192,-0.506482 -4.44733,-1.50788 -1.07541,-1.00371 -1.89873,-2.39596 -2.43297,-4.15824 -0.541173,-1.75534 -0.895017,-3.79746 -1.04072,-6.13098 -0.180391,-2.36127 -0.252085,-4.87287 -0.252085,-7.56023 0,-3.30023 0.108697,-6.67215 0.323779,-10.1805 0.252085,-3.48062 0.497232,-6.7716 0.78632,-9.92844 0.289088,-3.15453 0.534235,-6.02228 0.751629,-8.60558 0.217394,-2.54166 0.323779,-4.62079 0.323779,-6.16567 0,-4.08655 -0.751629,-7.09769 -2.29652,-9.03343 -1.53795,-1.97042 -3.58238,-2.93945 -6.13098,-2.93945 -2.04443,0 -4.19525,0.860326 -6.41082,2.57867 -2.25951,1.72528 -4.48434,4.08655 -6.70685,7.06069 -2.22482,3.01808 -4.33864,6.52645 -6.41082,10.613 -2.04443,4.08655 -3.87841,8.49919 -5.52274,13.2264 -1.64665,4.72948 -3.01114,9.71105 -4.08655,14.873 -1.11241,5.19896 -1.79003,10.3609 -2.04443,15.5599l-11.0039 1.3645 -0.823323 -0.0370033c0.28215,-3.33492 0.534235,-6.95199 0.78632,-10.9021 0.252085,-3.90616 0.462541,-7.88401 0.677623,-11.9359 0.217394,-4.04955 0.397785,-8.02971 0.541173,-12.0076 0.173453,-3.97785 0.316841,-7.70362 0.425538,-11.1472 0.108697,-3.44362 0.217394,-6.52645 0.252085,-9.24851 0.0716939,-2.75906 0.108697,-4.90987 0.108697,-6.48483l-0.00693812 0.00462541z"/>
  </g>
 </g>
</svg>
