<?xml version="1.0" encoding="UTF-8"?>
<!DOCTYPE svg PUBLIC "-//W3C//DTD SVG 1.1//EN" "http://www.w3.org/Graphics/SVG/1.1/DTD/svg11.dtd">
<!-- Creator: CorelDRAW X5 -->
<svg xmlns="http://www.w3.org/2000/svg" xml:space="preserve" width="359px" height="625px" style="shape-rendering:geometricPrecision; text-rendering:geometricPrecision; image-rendering:optimizeQuality; fill-rule:evenodd; clip-rule:evenodd"
viewBox="0 0 105.172 183.232"
 xmlns:xlink="http://www.w3.org/1999/xlink">
 <defs>
  <style type="text/css">
   <![CDATA[
    .str0 {stroke:#4B4B4D;stroke-width:0.824109}
    .fil0 {fill:#4B4B4D}
    .fil1 {fill:#FEFEFE;fill-rule:nonzero}
   ]]>
  </style>
 </defs>
 <g id="Layer_x0020_1">
  <metadata id="CorelCorpID_0Corel-Layer"/>
  <g id="_565020896">
   <path id="_562697016" class="fil0 str0" d="M78.8586 72.31c3.52913,1.78569 4.37955,5.91177 4.20296,9.98176 -5.75041,-2.5395 -1.26109,0.195639 -3.99554,-3.29228l-0.207759 -6.68948 0.000346264 0zm-54.5713 -52.2201l-0.939762 0.00657902c16.6567,5.33455 10.7186,9.61334 16.2111,15.5525l5.64376 4.40552 -8.4582 2.57309c-2.23998,3.04782 -9.39381,2.34282 -13.5656,3.39512 -5.16903,1.30542 -7.91526,3.42005 -10.8062,6.3588l5.89169 -0.761435 -6.37611 4.33523c-2.24449,2.30162 -3.04366,3.3875 -7.98763,3.15274 4.46473,0.27251 1.77911,1.29053 2.02045,2.63819 3.26631,-1.79988 3.00904,-0.379506 6.80098,-1.22231 3.30856,-0.734427 8.73071,-4.85982 18.2509,-5.79958 -1.99656,1.94358 -4.59147,3.92525 -6.26254,5.75942l-3.85704 4.85636c-1.50452,1.62675 0.297441,0.377428 -0.929027,0.690105 -0.59696,6.68637 -1.60494,5.20158 -4.18149,9.63342l10.4267 -10.5064c3.25766,-2.76769 0.0488233,-0.0574799 2.97026,-1.39198 3.14754,-1.43527 3.41901,-4.1988 8.76845,-6.24211 -1.18665,4.47477 -3.86258,6.93083 -5.04126,11.9475 -1.05888,4.49936 -0.36981,9.04304 -3.6936,12.1289 0.182828,1.87121 0.0907213,3.21784 -0.418634,5.55962 -0.661019,3.02947 -0.284629,2.91589 -2.4661,3.79852 0.153741,0.14924 0.349381,0.367733 0.429368,0.481308 4.01286,5.73033 0.132966,-2.59698 1.14233,2.06477 0.388162,1.7933 0.467111,0.6025 -0.480269,2.53085l1.06546 0.282205c1.69393,0.592805 0.543981,-0.468496 1.63956,0.813375 2.71056,3.17455 -2.3449,9.50392 -2.43805,9.63931 -1.88749,2.66727 -2.32759,1.50002 -3.73585,4.94396 -0.192523,0.47369 -0.908598,2.90966 -0.963654,3.18321l0.00554023 2.34282c4.588,-2.39476 -0.885744,-4.89964 5.86676,-5.15588 -1.18007,2.51457 -1.51214,2.18804 -3.23723,3.71853 2.00106,0.415171 2.08001,-0.25866 3.64928,-1.09766 -1.18561,2.10148 -1.34351,1.58762 -2.37849,2.96783 -1.0935,1.45916 -0.800217,6.01046 -0.637126,6.64966 1.40064,5.48691 0.0820647,-3.43633 0.483385,1.55196l-3.33037 2.33728c1.45812,1.31511 4.43461,1.77911 4.43461,1.77911 0.0723693,-0.148201 0.35042,0.0193908 0.494466,0.108034 -2.34179,3.17351 -2.8089,2.84456 -6.72445,3.79437l5.75734 -0.0931451c-2.40758,5.41246 0.379506,1.73375 -1.41033,6.58041l-1.04052 3.56514c3.22649,-1.30438 2.9107,-1.73582 4.98725,-1.17141 -3.18529,1.46331 -1.06095,4.79368 -1.01248,8.75253l-1.55854 0.75174 4.49936 11.0863 4.88787 12.71 5.61883 6.74281 28.6191 -0.388162c1.0014,-2.00314 1.73721,-3.7445 2.44567,-5.86676l2.44324 -4.88891 2.3449 -3.32275 -0.461917 -1.9557 3.79402 -4.60982 -0.12881 -0.0799871c-2.3913,-1.446 -2.54816,-0.343841 -4.4959,-1.5987 1.312,-0.894401 1.04052,-0.385046 2.39199,-1.25694 1.51214,-0.973349 2.26699,-1.47959 2.77635,-1.74794l0.62293 -2.03777 -2.33417 -0.620852c0.543981,-0.352497 1.69289,-0.786366 2.33417,-1.06961 0,-2.57655 2.35148,-5.05234 3.9024,-6.9516 -5.436,-3.20052 -3.33799,-1.03291 -6.71684,-2.58382 0.511433,-1.51629 -0.0855273,-0.548483 1.16933,-1.89164l1.84317 -1.30542c-1.18215,-2.92351 -1.49378,-4.43357 0.17521,-7.0586 3.68287,0.676947 1.9003,-0.183866 3.39512,4.48343 0.697723,2.18147 -0.419672,0.461917 0.907559,2.08313 2.41104,-9.52573 -3.43183,-6.31101 -6.1642,-10.8616 -0.161013,-0.885744 4.80546,-7.85674 6.48207,-9.14727 1.97163,-1.51421 7.55722,-4.70504 4.90414,-7.07799 -1.21989,4.77429 -4.87921,6.35984 -5.14722,2.49622 -0.32445,-4.70054 2.47371,-3.33349 -5.08697,-8.39206 -1.44946,-0.969194 -5.83386,-7.90868 -5.05823,-12.0794 0.492042,0.407899 1.76595,1.08796 2.91901,3.13785 0.881589,1.56719 1.09558,2.89442 1.43111,4.54818 2.79505,0.115652 0.507277,0.438024 1.55957,-1.76733 -0.127772,-3.33349 -0.422789,-3.55856 -0.573414,-7.08249 2.55474,1.34454 0.39578,-0.0529785 2.42489,1.67661 0.974388,0.830688 -0.00865661,0.135043 0.979928,1.1174 1.98271,0.613234 0.826187,-0.423828 1.81477,0.99828 0.631586,-0.971272 1.205,1.35943 0.302981,-1.50002 -1.20812,-3.7684 -4.80338,-5.60498 -4.70296,-9.4177 0.213991,-8.14137 0.511433,-6.73831 -1.32169,-13.7252 1.89822,0.765937 7.36262,4.81377 8.55446,6.68498 1.47439,0.506239 1.9557,0.390586 3.11292,2.16969 -1.07203,-0.702917 -10.6926,-13.5694 -12.4416,-15.8873 -1.91553,-2.53639 -13.1089,-11.7397 -13.2633,-14.0642 8.79027,2.20536 23.1634,8.17149 33.0537,8.64865 -0.924872,-1.43977 -0.225072,-1.27079 -3.73896,-3.40932 -1.31303,-0.798139 -2.58937,-1.51421 -3.57241,-2.31997 -3.97477,-1.56615 -6.92563,-3.51735 -11.5029,-4.31653 -1.66692,-0.291901 -11.3502,-0.235806 -12.0877,-2.294 -0.113575,-0.317871 -0.393703,-0.300557 -0.578608,-0.466072 5.29992,-0.250003 11.665,-1.07411 16.5968,-0.673831 4.36224,0.353536 10.0569,2.40758 13.6671,1.20258 -6.98831,-3.28051 -13.9496,-5.91731 -23.8922,-5.54092 0.378467,-0.411016 1.20258,-1.09904 1.67315,-1.40376l4.73828 -1.94808c2.13403,-0.830688 3.61362,-1.5433 5.81032,-2.2618l12.0188 -4.49174 -7.01532 -0.0768707c-12.2103,0.947379 -16.4822,7.04129 -25.2302,8.47205 1.44496,-4.3709 7.49766,-8.20612 13.0774,-8.57732l-5.13614 -0.859774c0.801602,-2.31686 5.18496,-9.42739 7.46165,-10.96 3.01977,-5.43289 8.04268,-9.20024 10.0458,-12.14 -9.44125,5.07589 -15.8267,11.1698 -22.2873,18.8839 -2.25176,2.6877 -3.89478,5.22097 -6.93845,7.10084 1.37051,-10.4115 0.97231,-8.27122 6.26912,-15.0518 3.15724,-4.03883 6.91248,-7.75944 10.1712,-11.0704 -4.70366,2.47579 -11.3391,6.99246 -15.1009,10.2667 -1.75314,1.52495 -0.145085,0.516973 -3.02739,1.7424l4.3934 -20.1578c-1.79746,2.03673 -7.23693,11.0161 -8.40626,13.995 -0.762474,-1.81269 -0.532208,-1.4557 -0.168631,-3.81791l-4.96786 12.1909 -0.919332 -5.34217 -1.93389 7.66872 -4.31445 -4.93635c-2.07135,-2.71818 -8.90488,-12.0611 -10.6646,-12.9759 1.63333,1.32169 7.00874,10.5098 7.0683,13.7862 -0.23269,-0.943224 -6.16732,-5.95436 -7.9994,-11.3516 1.12363,4.22685 4.07345,8.25806 4.84008,13.559 -2.58279,-1.75556 -2.96887,-3.12157 -4.93323,-5.10186 -3.55198,-3.58003 -11.8426,-9.54859 -15.7374,-12.8062 3.142,3.80925 10.8107,10.6691 12.1466,15.5189l-6.64655 -0.568912 -0.000346264 -0.000346264z"/>
   <path id="_566093456" class="fil1" d="M6.78713 120.854c0,-0.413093 -0.0692529,-0.773208 -0.203257,-1.07931 -0.139545,-0.300557 -0.316832,-0.552638 -0.537402,-0.7462 -0.219532,-0.193562 -0.467111,-0.338647 -0.7462,-0.429368 -0.279089,-0.0962615 -0.558178,-0.145085 -0.831727,-0.145085 -0.376389,0 -0.688027,0.043283 -0.945302,0.11773 -0.257274,0.0810259 -0.467111,0.188368 -0.62847,0.322372 -0.155819,0.139545 -0.273549,0.300557 -0.343841,0.483385 -0.0692529,0.188368 -0.106996,0.391625 -0.106996,0.606655 0,0.24654 0.0488233,0.5052 0.139545,0.75728 0.0907213,0.25208 0.226111,0.49966 0.402359,0.741006l-0.0315101 0.0865661c-0.295364,0.150279 -0.595921,0.219532 -0.902019,0.219532 -0.177287,0 -0.343841,-0.0270086 -0.49966,-0.0799871 -0.155819,-0.0540172 -0.289823,-0.135043 -0.403398,-0.242385 -0.112536,-0.101802 -0.198063,-0.230266 -0.268355,-0.380891 -0.0637126,-0.155819 -0.0962615,-0.322372 -0.0962615,-0.515934 0,-0.306098 0.0747931,-0.595921 0.225072,-0.86947 0.150279,-0.273549 0.349381,-0.521474 0.590727,-0.7462 0.247579,-0.226111 0.537402,-0.429368 0.859774,-0.606655 0.327566,-0.177287 0.659634,-0.327566 1.00901,-0.451183 0.343841,-0.124309 0.693221,-0.22057 1.04156,-0.284629 0.349381,-0.0647514 0.671753,-0.0973003 0.97231,-0.0973003 0.547444,0 1.02009,0.0702917 1.41241,0.22057 0.386085,0.145085 0.702917,0.359076 0.949803,0.639204 0.242385,0.279089 0.419672,0.616351 0.532208,1.02009 0.112536,0.396819 0.172093,0.848002 0.172093,1.3532 0,0.343841 -0.0162744,0.724731 -0.043283,1.13782 -0.0325489,0.414132 -0.0647514,0.84904 -0.0962615,1.30022 -0.0377428,0.456376 -0.0702917,0.923833 -0.102841,1.40722 -0.0259698,0.482346 -0.0422443,0.960537 -0.0422443,1.43838 0,0.75728 0.139545,1.32065 0.423828,1.70258 0.279089,0.380891 0.644744,0.568912 1.10112,0.568912 0.407899,0 0.858736,-0.145085 1.3532,-0.445642l0.230266 0.338647c-0.353536,0.349381 -0.735466,0.617736 -1.14856,0.800217 -0.414132,0.181789 -0.84904,0.279089 -1.30542,0.279089 -0.342802,0 -0.65444,-0.0595575 -0.944263,-0.177287 -0.290862,-0.112536 -0.537402,-0.284629 -0.747239,-0.515934 -0.208797,-0.225072 -0.375351,-0.514895 -0.487887,-0.858736 -0.113575,-0.349381 -0.172093,-0.7462 -0.172093,-1.20258 0,-0.139545 0.00554023,-0.273549 0.0107342,-0.407899 0.00554023,-0.139545 0.0270086,-0.285668 0.0474382,-0.435947l-0.0422443 0c-0.226111,0.452221 -0.488925,0.897864 -0.784289,1.33243 -0.295364,0.440102 -0.62293,0.831727 -0.977851,1.17557 -0.353536,0.343841 -0.729925,0.617736 -1.13228,0.832766 -0.397858,0.208797 -0.822032,0.315793 -1.26213,0.315793 -0.360115,0 -0.692183,-0.0585187 -0.987546,-0.186983 -0.300557,-0.124309 -0.559217,-0.300557 -0.768014,-0.521474 -0.215376,-0.219532 -0.376389,-0.478191 -0.494466,-0.778749 -0.11773,-0.306098 -0.177287,-0.633664 -0.177287,-0.987546 0,-0.461917 0.0799871,-0.88055 0.25208,-1.26213 0.172093,-0.376389 0.408938,-0.713997 0.709496,-1.01455 0.300557,-0.295364 0.659634,-0.553677 1.07931,-0.773208 0.423828,-0.215376 0.88055,-0.397858 1.36948,-0.542943 0.49308,-0.145085 1.01455,-0.25208 1.56719,-0.322372 0.548483,-0.0692529 1.11185,-0.106996 1.68077,-0.106996 0.0377428,-0.327566 0.0702917,-0.649938 0.0921063,-0.956036 0.0259698,-0.310253 0.036704,-0.65444 0.036704,-1.02529l0 -0.000346264zm-4.83281 5.40276c0,0.208797 0.0270086,0.402359 0.0702917,0.590727 0.0422443,0.182828 0.112536,0.348342 0.208797,0.488925 0.0973003,0.145085 0.22057,0.25208 0.370849,0.332068 0.150279,0.0865661 0.333106,0.124309 0.541904,0.124309 0.236845,0 0.478191,-0.0540172 0.73131,-0.166553 0.25208,-0.108034 0.498621,-0.25866 0.741006,-0.456376 0.24654,-0.193562 0.477152,-0.425213 0.702917,-0.693221 0.22057,-0.273549 0.418634,-0.563372 0.601461,-0.885744 0.177287,-0.322372 0.322372,-0.655479 0.440102,-1.00901 0.11773,-0.354921 0.199102,-0.72023 0.236845,-1.09039 -0.392664,0.0107342 -0.773208,0.0325489 -1.16068,0.0747931 -0.380891,0.0377428 -0.7462,0.102841 -1.09039,0.182828 -0.342802,0.0865661 -0.659634,0.193562 -0.954997,0.333106 -0.289823,0.134004 -0.542943,0.306098 -0.75728,0.5052 -0.209836,0.203257 -0.376389,0.440102 -0.49966,0.719191 -0.11773,0.273549 -0.182828,0.590727 -0.182828,0.950842l0.000346264 -0.000692529z"/>
   <path id="_1" class="fil1" d="M15.7924 111.935c-0.22057,0.99828 -0.402359,2.02461 -0.552638,3.08799 -0.150279,1.06338 -0.280128,2.11014 -0.38193,3.14096 0.24654,0.0107342 0.483385,0.0214684 0.719191,0.0270086 0.231305,0.00554023 0.451183,0.0107342 0.649938,0.0107342 0.204296,0.00554023 0.387124,0.0107342 0.552638,0.0107342 0.166553,0 0.300557,0 0.414132,0 0.478191,0 0.864276,-0.0270086 1.17037,-0.0865661 0.0270086,0.0865661 0.0488233,0.172093 0.0647514,0.242385 0.0152356,0.0747931 0.0204296,0.145085 0.0204296,0.203257 0,0.231305 -0.0962615,0.38193 -0.284629,0.451183 -0.192523,0.0702917 -0.467111,0.102841 -0.831727,0.102841 -0.343841,0 -0.729925,-0.0214684 -1.16068,-0.0647514 -0.429368,-0.043283 -0.896479,-0.0799871 -1.40064,-0.11773 -0.0595575,0.563372 -0.108034,1.10631 -0.145085,1.64302 -0.043283,0.53117 -0.0758319,1.03083 -0.0973003,1.50348 -0.0214684,0.472651 -0.0422443,0.912753 -0.0529785,1.31511 -0.0107342,0.403398 -0.0162744,0.75174 -0.0162744,1.05334 0,0.563372 0.0315101,1.06338 0.0907213,1.50348 0.0540172,0.440102 0.155819,0.810259 0.306098,1.12155 0.145085,0.306098 0.349381,0.537402 0.606655,0.703956 0.25208,0.161013 0.579647,0.241346 0.97231,0.241346 0.284629,0 0.601461,-0.0488233 0.949803,-0.150279 0.349381,-0.0962615 0.747239,-0.257274 1.19288,-0.478191 0.139545,0.139545 0.219532,0.311638 0.241346,0.521474 -0.327566,0.213991 -0.655479,0.407899 -0.983045,0.585187 -0.332068,0.172093 -0.65444,0.322372 -0.976812,0.451183 -0.316832,0.12327 -0.62847,0.219532 -0.929027,0.289823 -0.295364,0.0702917 -0.579647,0.101802 -0.848002,0.101802 -0.349381,0 -0.671753,-0.0637126 -0.961576,-0.192523 -0.289823,-0.129849 -0.542943,-0.354921 -0.75728,-0.682487 -0.209836,-0.327566 -0.376389,-0.768014 -0.494466,-1.32619 -0.11773,-0.559217 -0.177287,-1.25694 -0.177287,-2.11014 0,-0.472651 0.00554023,-0.967116 0.0214684,-1.47197 0.0162744,-0.504161 0.0377428,-1.02009 0.0647514,-1.54018 0.0270086,-0.515934 0.0585187,-1.03741 0.101802,-1.5575 0.043283,-0.515934 0.0907213,-1.03083 0.139545,-1.53049 -0.413093,0.00554023 -0.795023,0.0214684 -1.14856,0.0488233 -0.354921,0.0315101 -0.655479,0.0747931 -0.907559,0.139545 -0.0162744,-0.0325489 -0.0270086,-0.0702917 -0.0270086,-0.113575 0,-0.106996 0.0540172,-0.208797 0.161013,-0.306098 0.106996,-0.101802 0.257274,-0.186983 0.451183,-0.268355 0.188368,-0.0747931 0.418634,-0.139545 0.686989,-0.193562 0.269394,-0.0529785 0.559217,-0.0907213 0.881589,-0.112536 0.11773,-1.09558 0.24654,-2.13195 0.386085,-3.10322 0.134004,-0.977851 0.273549,-1.84732 0.407899,-2.61533 0.0270086,-0.134004 0.0758319,-0.247579 0.145085,-0.338647 0.0702917,-0.0855273 0.155819,-0.155819 0.247579,-0.209836 0.0962615,-0.0529785 0.198063,-0.0907213 0.306098,-0.112536 0.112536,-0.0214684 0.219532,-0.0325489 0.322372,-0.0325489 0.176249,0 0.332068,0.0214684 0.471612,0.0595575 0.135043,0.0377428 0.269394,0.0855273 0.387124,0.155819l0.00103879 -0.000346264z"/>
   <path id="_12" class="fil1" d="M23.6062 111.935c-0.22057,0.99828 -0.402359,2.02461 -0.552638,3.08799 -0.150279,1.06338 -0.280128,2.11014 -0.38193,3.14096 0.24654,0.0107342 0.483385,0.0214684 0.719191,0.0270086 0.231305,0.00554023 0.451183,0.0107342 0.649938,0.0107342 0.204296,0.00554023 0.387124,0.0107342 0.552638,0.0107342 0.166553,0 0.300557,0 0.414132,0 0.478191,0 0.864276,-0.0270086 1.17037,-0.0865661 0.0270086,0.0865661 0.0488233,0.172093 0.0647514,0.242385 0.0152356,0.0747931 0.0204296,0.145085 0.0204296,0.203257 0,0.231305 -0.0962615,0.38193 -0.284629,0.451183 -0.192523,0.0702917 -0.467111,0.102841 -0.831727,0.102841 -0.343841,0 -0.729925,-0.0214684 -1.16068,-0.0647514 -0.429368,-0.043283 -0.896479,-0.0799871 -1.40064,-0.11773 -0.0595575,0.563372 -0.108034,1.10631 -0.145085,1.64302 -0.043283,0.53117 -0.0758319,1.03083 -0.0973003,1.50348 -0.0214684,0.472651 -0.0422443,0.912753 -0.0529785,1.31511 -0.0107342,0.403398 -0.0162744,0.75174 -0.0162744,1.05334 0,0.563372 0.0315101,1.06338 0.0907213,1.50348 0.0540172,0.440102 0.155819,0.810259 0.306098,1.12155 0.145085,0.306098 0.349381,0.537402 0.606655,0.703956 0.25208,0.161013 0.579647,0.241346 0.97231,0.241346 0.284629,0 0.601461,-0.0488233 0.949803,-0.150279 0.349381,-0.0962615 0.747239,-0.257274 1.19288,-0.478191 0.139545,0.139545 0.219532,0.311638 0.241346,0.521474 -0.327566,0.213991 -0.655479,0.407899 -0.983045,0.585187 -0.332068,0.172093 -0.65444,0.322372 -0.976812,0.451183 -0.316832,0.12327 -0.62847,0.219532 -0.929027,0.289823 -0.295364,0.0702917 -0.579647,0.101802 -0.848002,0.101802 -0.349381,0 -0.671753,-0.0637126 -0.961576,-0.192523 -0.289823,-0.129849 -0.542943,-0.354921 -0.75728,-0.682487 -0.209836,-0.327566 -0.376389,-0.768014 -0.494466,-1.32619 -0.11773,-0.559217 -0.177287,-1.25694 -0.177287,-2.11014 0,-0.472651 0.00554023,-0.967116 0.0214684,-1.47197 0.0162744,-0.504161 0.0377428,-1.02009 0.0647514,-1.54018 0.0270086,-0.515934 0.0585187,-1.03741 0.101802,-1.5575 0.043283,-0.515934 0.0907213,-1.03083 0.139545,-1.53049 -0.413093,0.00554023 -0.795023,0.0214684 -1.14856,0.0488233 -0.354921,0.0315101 -0.655479,0.0747931 -0.907559,0.139545 -0.0162744,-0.0325489 -0.0270086,-0.0702917 -0.0270086,-0.113575 0,-0.106996 0.0540172,-0.208797 0.161013,-0.306098 0.106996,-0.101802 0.257274,-0.186983 0.451183,-0.268355 0.188368,-0.0747931 0.418634,-0.139545 0.686989,-0.193562 0.269394,-0.0529785 0.559217,-0.0907213 0.881589,-0.112536 0.11773,-1.09558 0.24654,-2.13195 0.386085,-3.10322 0.134004,-0.977851 0.273549,-1.84732 0.407899,-2.61533 0.0270086,-0.134004 0.0758319,-0.247579 0.145085,-0.338647 0.0702917,-0.0855273 0.155819,-0.155819 0.247579,-0.209836 0.0962615,-0.0529785 0.198063,-0.0907213 0.306098,-0.112536 0.112536,-0.0214684 0.219532,-0.0325489 0.322372,-0.0325489 0.176249,0 0.332068,0.0214684 0.471612,0.0595575 0.135043,0.0377428 0.269394,0.0855273 0.387124,0.155819l0.00103879 -0.000346264z"/>
   <path id="_123" class="fil1" d="M28.5467 129.146l-0.12327 -0.00554023c0.0422443,-0.49966 0.0799871,-1.04156 0.11773,-1.63333 0.0377428,-0.585187 0.0692529,-1.18111 0.101802,-1.78776 0.0325489,-0.606655 0.0595575,-1.20258 0.0810259,-1.79884 0.0259698,-0.595921 0.0474382,-1.1541 0.0637126,-1.67003 0.0162744,-0.515934 0.0325489,-0.977851 0.0377428,-1.3854 0.0107342,-0.413093 0.0162744,-0.735466 0.0162744,-0.971272 0,-0.193562 -0.0107342,-0.360115 -0.0270086,-0.49966 -0.0162744,-0.145085 -0.0488233,-0.262815 -0.106996,-0.354921 -0.0540172,-0.0962615 -0.134004,-0.166553 -0.236845,-0.208797 -0.106996,-0.043283 -0.24654,-0.0702917 -0.423828,-0.0702917 -0.0907213,0 -0.182828,0.00554023 -0.279089,0.0162744 -0.0907213,0.0107342 -0.199102,0.0270086 -0.311638,0.0488233 -0.11773,0.0204296 -0.24654,0.0474382 -0.391625,0.0855273 -0.145085,0.0325489 -0.311638,0.0758319 -0.49966,0.11773l-0.11773 -0.563372c0.86947,-0.316832 1.57793,-0.537402 2.11568,-0.666213 0.541904,-0.12881 0.907559,-0.192523 1.09558,-0.192523 0.342802,0 0.595921,0.101802 0.741006,0.306098 0.150279,0.198063 0.225072,0.498621 0.225072,0.896479 0,0.036704 -0.00554023,0.145085 -0.0162744,0.322372 -0.0107342,0.181789 -0.0214684,0.413093 -0.0422443,0.697723 -0.0162744,0.284629 -0.0377428,0.617736 -0.0647514,0.993086 -0.0270086,0.38193 -0.0595575,0.784289 -0.0907213,1.21885 -0.0377428,0.430407 -0.0758319,0.881589 -0.113575,1.3532 -0.0422443,0.467111 -0.0907213,0.934568 -0.134004,1.40168l0.0758319 0.00554023c0.25208,-1.02529 0.536364,-1.98167 0.853542,-2.87261 0.316832,-0.885744 0.676947,-1.6593 1.06857,-2.31478 0.396473,-0.65444 0.83242,-1.17037 1.30957,-1.54572 0.472651,-0.376389 0.994125,-0.564757 1.5575,-0.564757 0.204296,0 0.387124,0.0325489 0.559217,0.0973003 0.176249,0.0585187 0.321333,0.150279 0.451183,0.262815 0.12327,0.112536 0.225072,0.24654 0.300557,0.396819 0.0692529,0.155819 0.106996,0.327566 0.106996,0.510394 0,0.235806 -0.0488233,0.461917 -0.150279,0.681448 -0.106996,0.215376 -0.268355,0.408938 -0.488925,0.575491l-0.0595575 0c-0.219532,-0.182828 -0.429368,-0.316832 -0.627431,-0.397858 -0.193562,-0.0799871 -0.403398,-0.11773 -0.62293,-0.11773 -0.236845,0 -0.467111,0.043283 -0.688027,0.134004 -0.219532,0.0865661 -0.418634,0.215376 -0.601461,0.38193 -0.300557,0.273549 -0.579647,0.632625 -0.836921,1.08485 -0.25866,0.445642 -0.488925,0.944263 -0.703956,1.48721 -0.208797,0.547444 -0.402359,1.12155 -0.574453,1.71747 -0.166553,0.601461 -0.316832,1.18769 -0.440102,1.7566 -0.12327,0.568912 -0.22057,1.10631 -0.295364,1.60494 -0.0810259,0.49966 -0.134004,0.923833 -0.161013,1.26213l-1.64822 0.204296 -0.000692529 0.000346264z"/>
   <path id="_1234" class="fil1" d="M43.4413 120.854c0,-0.413093 -0.0692529,-0.773208 -0.203257,-1.07931 -0.139545,-0.300557 -0.316832,-0.552638 -0.537402,-0.7462 -0.219532,-0.193562 -0.467111,-0.338647 -0.7462,-0.429368 -0.279089,-0.0962615 -0.558178,-0.145085 -0.831727,-0.145085 -0.376389,0 -0.688027,0.043283 -0.945302,0.11773 -0.257274,0.0810259 -0.467111,0.188368 -0.62847,0.322372 -0.155819,0.139545 -0.273549,0.300557 -0.343841,0.483385 -0.0692529,0.188368 -0.106996,0.391625 -0.106996,0.606655 0,0.24654 0.0488233,0.5052 0.139545,0.75728 0.0907213,0.25208 0.226111,0.49966 0.402359,0.741006l-0.0315101 0.0865661c-0.295364,0.150279 -0.595921,0.219532 -0.902019,0.219532 -0.177287,0 -0.343841,-0.0270086 -0.49966,-0.0799871 -0.155819,-0.0540172 -0.289823,-0.135043 -0.403398,-0.242385 -0.112536,-0.101802 -0.198063,-0.230266 -0.268355,-0.380891 -0.0637126,-0.155819 -0.0962615,-0.322372 -0.0962615,-0.515934 0,-0.306098 0.0747931,-0.595921 0.225072,-0.86947 0.150279,-0.273549 0.349381,-0.521474 0.590727,-0.7462 0.247579,-0.226111 0.537402,-0.429368 0.859774,-0.606655 0.327566,-0.177287 0.659634,-0.327566 1.00901,-0.451183 0.343841,-0.124309 0.693221,-0.22057 1.04156,-0.284629 0.349381,-0.0647514 0.671753,-0.0973003 0.97231,-0.0973003 0.547444,0 1.02009,0.0702917 1.41241,0.22057 0.386085,0.145085 0.702917,0.359076 0.949803,0.639204 0.242385,0.279089 0.419672,0.616351 0.532208,1.02009 0.112536,0.396819 0.172093,0.848002 0.172093,1.3532 0,0.343841 -0.0162744,0.724731 -0.043283,1.13782 -0.0325489,0.414132 -0.0647514,0.84904 -0.0962615,1.30022 -0.0377428,0.456376 -0.0702917,0.923833 -0.102841,1.40722 -0.0259698,0.482346 -0.0422443,0.960537 -0.0422443,1.43838 0,0.75728 0.139545,1.32065 0.423828,1.70258 0.279089,0.380891 0.644744,0.568912 1.10112,0.568912 0.407899,0 0.858736,-0.145085 1.3532,-0.445642l0.230266 0.338647c-0.353536,0.349381 -0.735466,0.617736 -1.14856,0.800217 -0.414132,0.181789 -0.84904,0.279089 -1.30542,0.279089 -0.342802,0 -0.65444,-0.0595575 -0.944263,-0.177287 -0.290862,-0.112536 -0.537402,-0.284629 -0.747239,-0.515934 -0.208797,-0.225072 -0.375351,-0.514895 -0.487887,-0.858736 -0.113575,-0.349381 -0.172093,-0.7462 -0.172093,-1.20258 0,-0.139545 0.00554023,-0.273549 0.0107342,-0.407899 0.00554023,-0.139545 0.0270086,-0.285668 0.0474382,-0.435947l-0.0422443 0c-0.226111,0.452221 -0.488925,0.897864 -0.784289,1.33243 -0.295364,0.440102 -0.62293,0.831727 -0.977851,1.17557 -0.353536,0.343841 -0.729925,0.617736 -1.13228,0.832766 -0.397858,0.208797 -0.822032,0.315793 -1.26213,0.315793 -0.360115,0 -0.692183,-0.0585187 -0.987546,-0.186983 -0.300557,-0.124309 -0.559217,-0.300557 -0.768014,-0.521474 -0.215376,-0.219532 -0.376389,-0.478191 -0.494466,-0.778749 -0.11773,-0.306098 -0.177287,-0.633664 -0.177287,-0.987546 0,-0.461917 0.0799871,-0.88055 0.25208,-1.26213 0.172093,-0.376389 0.408938,-0.713997 0.709496,-1.01455 0.300557,-0.295364 0.659634,-0.553677 1.07931,-0.773208 0.423828,-0.215376 0.88055,-0.397858 1.36948,-0.542943 0.49308,-0.145085 1.01455,-0.25208 1.56719,-0.322372 0.548483,-0.0692529 1.11185,-0.106996 1.68077,-0.106996 0.0377428,-0.327566 0.0702917,-0.649938 0.0921063,-0.956036 0.0259698,-0.310253 0.036704,-0.65444 0.036704,-1.02529l0 -0.000346264zm-4.83281 5.40276c0,0.208797 0.0270086,0.402359 0.0702917,0.590727 0.0422443,0.182828 0.112536,0.348342 0.208797,0.488925 0.0973003,0.145085 0.22057,0.25208 0.370849,0.332068 0.150279,0.0865661 0.333106,0.124309 0.541904,0.124309 0.236845,0 0.478191,-0.0540172 0.73131,-0.166553 0.25208,-0.108034 0.498621,-0.25866 0.741006,-0.456376 0.24654,-0.193562 0.477152,-0.425213 0.702917,-0.693221 0.22057,-0.273549 0.418634,-0.563372 0.601461,-0.885744 0.177287,-0.322372 0.322372,-0.655479 0.440102,-1.00901 0.11773,-0.354921 0.199102,-0.72023 0.236845,-1.09039 -0.392664,0.0107342 -0.773208,0.0325489 -1.16068,0.0747931 -0.380891,0.0377428 -0.7462,0.102841 -1.09039,0.182828 -0.342802,0.0865661 -0.659634,0.193562 -0.954997,0.333106 -0.289823,0.134004 -0.542943,0.306098 -0.75728,0.5052 -0.209836,0.203257 -0.376389,0.440102 -0.49966,0.719191 -0.11773,0.273549 -0.182828,0.590727 -0.182828,0.950842l0.000346264 -0.000692529z"/>
   <path id="_12345" class="fil1" d="M54.9224 120.865c0.150279,-0.289823 0.219532,-0.585187 0.219532,-0.88055 0,-0.209836 -0.0325489,-0.396819 -0.101802,-0.579647 -0.0702917,-0.182828 -0.177287,-0.343841 -0.322372,-0.478191 -0.139545,-0.139545 -0.316832,-0.25208 -0.526668,-0.333106 -0.213991,-0.0799871 -0.461917,-0.12327 -0.7462,-0.12327 -0.407899,0 -0.773208,0.0747931 -1.10008,0.219532 -0.327566,0.140583 -0.612195,0.338647 -0.859774,0.591766 -0.25208,0.25208 -0.461917,0.541904 -0.639204,0.87501 -0.176249,0.327566 -0.321333,0.681448 -0.434908,1.06338 -0.112536,0.375351 -0.192523,0.762474 -0.24654,1.15964 -0.0540172,0.392664 -0.0758319,0.778749 -0.0758319,1.16068 0,0.675908 0.0865661,1.2881 0.263853,1.84074 0.172093,0.553677 0.413093,1.02633 0.708457,1.41795 0.300557,0.392664 0.649938,0.693221 1.0471,0.907559 0.397858,0.215376 0.822032,0.322372 1.27321,0.322372 0.478191,0 0.960537,-0.12327 1.45466,-0.376389 0.488925,-0.24654 0.967116,-0.648899 1.42349,-1.20258 0.0325489,0.0162744 0.0747931,0.0377428 0.12327,0.0647514 0.0488233,0.0270086 0.0962615,0.0647514 0.139545,0.0962615 0.043283,0.0377428 0.0758319,0.0758319 0.106996,0.113575 0.0325489,0.036704 0.0488233,0.0692529 0.0488233,0.101802 0,0.0214684 0,0.0325489 -0.00554023,0.0377428l-0.0162744 0.0315101c-0.509355,0.822032 -1.12155,1.43977 -1.83659,1.84732 -0.708457,0.414132 -1.49275,0.617736 -2.34075,0.617736 -0.461917,0 -0.885744,-0.0637126 -1.27321,-0.192523 -0.391625,-0.129849 -0.741006,-0.306098 -1.05784,-0.537402 -0.311638,-0.225072 -0.590727,-0.49966 -0.827572,-0.811297 -0.241346,-0.311638 -0.440102,-0.648899 -0.601461,-1.01455 -0.155819,-0.365655 -0.279089,-0.7462 -0.359076,-1.14856 -0.0810259,-0.397858 -0.12327,-0.805757 -0.12327,-1.21366 0,-0.548483 0.0637126,-1.10112 0.181789,-1.6548 0.124309,-0.552638 0.295364,-1.08381 0.532208,-1.59974 0.230266,-0.510394 0.515934,-0.987546 0.848002,-1.42869 0.333106,-0.445642 0.709496,-0.831727 1.13367,-1.15964 0.423828,-0.327566 0.885744,-0.579647 1.39648,-0.768014 0.509355,-0.188368 1.0523,-0.279089 1.62675,-0.279089 0.429368,0 0.832766,0.0540172 1.20258,0.155819 0.376389,0.106996 0.697723,0.25208 0.967116,0.445642 0.268355,0.193562 0.483385,0.423828 0.639204,0.692183 0.150279,0.269394 0.230266,0.569951 0.230266,0.902019 0,0.215376 -0.0325489,0.403398 -0.101802,0.569951 -0.0647514,0.166553 -0.155819,0.306098 -0.274588,0.423828 -0.11773,0.11773 -0.257274,0.204296 -0.413093,0.268355 -0.161013,0.0595575 -0.338647,0.0921063 -0.525629,0.0921063 -0.113575,0 -0.236845,-0.0162744 -0.360115,-0.0377428 -0.12327,-0.0214684 -0.241346,-0.0647514 -0.365655,-0.112536l-0.0315101 -0.0865661 0.000346264 -0.000692529z"/>
   <path id="_123456" class="fil1" d="M62.2947 111.935c-0.22057,0.99828 -0.402359,2.02461 -0.552638,3.08799 -0.150279,1.06338 -0.280128,2.11014 -0.38193,3.14096 0.24654,0.0107342 0.483385,0.0214684 0.719191,0.0270086 0.231305,0.00554023 0.451183,0.0107342 0.649938,0.0107342 0.204296,0.00554023 0.387124,0.0107342 0.552638,0.0107342 0.166553,0 0.300557,0 0.414132,0 0.478191,0 0.864276,-0.0270086 1.17037,-0.0865661 0.0270086,0.0865661 0.0488233,0.172093 0.0647514,0.242385 0.0152356,0.0747931 0.0204296,0.145085 0.0204296,0.203257 0,0.231305 -0.0962615,0.38193 -0.284629,0.451183 -0.192523,0.0702917 -0.467111,0.102841 -0.831727,0.102841 -0.343841,0 -0.729925,-0.0214684 -1.16068,-0.0647514 -0.429368,-0.043283 -0.896479,-0.0799871 -1.40064,-0.11773 -0.0595575,0.563372 -0.108034,1.10631 -0.145085,1.64302 -0.043283,0.53117 -0.0758319,1.03083 -0.0973003,1.50348 -0.0214684,0.472651 -0.0422443,0.912753 -0.0529785,1.31511 -0.0107342,0.403398 -0.0162744,0.75174 -0.0162744,1.05334 0,0.563372 0.0315101,1.06338 0.0907213,1.50348 0.0540172,0.440102 0.155819,0.810259 0.306098,1.12155 0.145085,0.306098 0.349381,0.537402 0.606655,0.703956 0.25208,0.161013 0.579647,0.241346 0.97231,0.241346 0.284629,0 0.601461,-0.0488233 0.949803,-0.150279 0.349381,-0.0962615 0.747239,-0.257274 1.19288,-0.478191 0.139545,0.139545 0.219532,0.311638 0.241346,0.521474 -0.327566,0.213991 -0.655479,0.407899 -0.983045,0.585187 -0.332068,0.172093 -0.65444,0.322372 -0.976812,0.451183 -0.316832,0.12327 -0.62847,0.219532 -0.929027,0.289823 -0.295364,0.0702917 -0.579647,0.101802 -0.848002,0.101802 -0.349381,0 -0.671753,-0.0637126 -0.961576,-0.192523 -0.289823,-0.129849 -0.542943,-0.354921 -0.75728,-0.682487 -0.209836,-0.327566 -0.376389,-0.768014 -0.494466,-1.32619 -0.11773,-0.559217 -0.177287,-1.25694 -0.177287,-2.11014 0,-0.472651 0.00554023,-0.967116 0.0214684,-1.47197 0.0162744,-0.504161 0.0377428,-1.02009 0.0647514,-1.54018 0.0270086,-0.515934 0.0585187,-1.03741 0.101802,-1.5575 0.043283,-0.515934 0.0907213,-1.03083 0.139545,-1.53049 -0.413093,0.00554023 -0.795023,0.0214684 -1.14856,0.0488233 -0.354921,0.0315101 -0.655479,0.0747931 -0.907559,0.139545 -0.0162744,-0.0325489 -0.0270086,-0.0702917 -0.0270086,-0.113575 0,-0.106996 0.0540172,-0.208797 0.161013,-0.306098 0.106996,-0.101802 0.257274,-0.186983 0.451183,-0.268355 0.188368,-0.0747931 0.418634,-0.139545 0.686989,-0.193562 0.269394,-0.0529785 0.559217,-0.0907213 0.881589,-0.112536 0.11773,-1.09558 0.24654,-2.13195 0.386085,-3.10322 0.134004,-0.977851 0.273549,-1.84732 0.407899,-2.61533 0.0270086,-0.134004 0.0758319,-0.247579 0.145085,-0.338647 0.0702917,-0.0855273 0.155819,-0.155819 0.247579,-0.209836 0.0962615,-0.0529785 0.198063,-0.0907213 0.306098,-0.112536 0.112536,-0.0214684 0.219532,-0.0325489 0.322372,-0.0325489 0.176249,0 0.332068,0.0214684 0.471612,0.0595575 0.135043,0.0377428 0.269394,0.0855273 0.387124,0.155819l0.00103879 -0.000346264z"/>
   <path id="_1234567" class="fil1" d="M68.4655 114.319c-0.182828,0 -0.349381,-0.0377428 -0.488925,-0.112536 -0.139545,-0.0810259 -0.262815,-0.177287 -0.360115,-0.300557 -0.101802,-0.12327 -0.177287,-0.262815 -0.230266,-0.423828 -0.0540172,-0.161013 -0.0758319,-0.322372 -0.0758319,-0.494466 0,-0.235806 0.0377428,-0.440102 0.119115,-0.62293 0.0747931,-0.182828 0.176249,-0.333106 0.306098,-0.456376 0.12327,-0.12327 0.262815,-0.215376 0.413093,-0.273549 0.155819,-0.0647514 0.300557,-0.0921063 0.451183,-0.0921063 0.177287,0 0.338647,0.0325489 0.478191,0.0973003 0.145085,0.0637126 0.262815,0.155819 0.364616,0.273549 0.102841,0.112536 0.182828,0.24654 0.236845,0.396819 0.0529785,0.145085 0.0855273,0.306098 0.0855273,0.483385 0,0.182828 -0.0325489,0.365655 -0.0962615,0.542943 -0.0647514,0.181789 -0.150279,0.348342 -0.262815,0.49308 -0.113575,0.145085 -0.247579,0.263853 -0.408938,0.354921 -0.161013,0.0907213 -0.338647,0.134004 -0.53117,0.134004l-0.000346264 0.000346264zm0.681448 3.5551c-0.0855273,0.595921 -0.161013,1.19738 -0.225072,1.79884 -0.0647514,0.595921 -0.113575,1.18111 -0.155819,1.74032 -0.0377428,0.563372 -0.0647514,1.09454 -0.0865661,1.5942 -0.0162744,0.49966 -0.0259698,0.950842 -0.0259698,1.3532 0,0.548483 0.0096954,1.01455 0.0204296,1.40722 0.0162744,0.391625 0.043283,0.719191 0.0810259,0.987546 0.0377428,0.269394 0.0799871,0.478191 0.139545,0.639204 0.0540172,0.161013 0.12327,0.284629 0.204296,0.370849 0.0799871,0.0855273 0.176249,0.145085 0.284629,0.166553 0.106996,0.0259698 0.225072,0.0422443 0.364616,0.0422443 0.253119,0 0.521474,-0.036704 0.811297,-0.112536 0.289823,-0.0799871 0.585187,-0.182828 0.885744,-0.322372l0.150279 0.408938c-0.188368,0.155819 -0.423828,0.310253 -0.713997,0.466072 -0.284629,0.155819 -0.585187,0.300557 -0.896479,0.430407 -0.316832,0.134004 -0.62293,0.241346 -0.929027,0.322372 -0.300557,0.0799871 -0.558178,0.11773 -0.778749,0.11773 -0.150279,0 -0.284629,-0.0107342 -0.402359,-0.0325489 -0.119115,-0.0270086 -0.231305,-0.0855273 -0.327566,-0.177287 -0.0973003,-0.0962615 -0.182828,-0.235806 -0.25866,-0.418634 -0.0747931,-0.182828 -0.139545,-0.429368 -0.186983,-0.7462 -0.0540172,-0.311638 -0.0921063,-0.709496 -0.119115,-1.18111 -0.0204296,-0.472651 -0.036704,-1.0426 -0.036704,-1.71332 0,-0.392664 0.00554023,-0.838306 0.0107342,-1.33139 0.0107342,-0.49966 0.0214684,-1.03187 0.036704,-1.60078 0.0162744,-0.568912 0.0377428,-1.16483 0.0647514,-1.79884 0.0270086,-0.633664 0.0595575,-1.28395 0.101802,-1.95432 0.0107342,-0.145085 0.0488233,-0.268355 0.119115,-0.360115 0.0637126,-0.0907213 0.150279,-0.161013 0.25208,-0.208797 0.0962615,-0.0540172 0.204296,-0.0865661 0.316832,-0.102841 0.112536,-0.0214684 0.213991,-0.0270086 0.311638,-0.0270086 0.348342,0 0.681448,0.0810259 0.987546,0.242385z"/>
   <path id="_12345678" class="fil1" d="M72.1698 124.42c0,-0.532208 0.0540172,-1.06857 0.166553,-1.61705 0.106996,-0.541904 0.273549,-1.07411 0.488925,-1.58347 0.213991,-0.510394 0.478191,-0.988585 0.795023,-1.43977 0.315793,-0.445642 0.681448,-0.837267 1.10008,-1.17557 0.414132,-0.333106 0.876049,-0.601461 1.38021,-0.795023 0.510394,-0.192523 1.06338,-0.289823 1.66449,-0.289823 0.671753,0 1.26213,0.139545 1.77807,0.423828 0.514895,0.284629 0.949803,0.655479 1.30438,1.12259 0.349381,0.461917 0.617736,0.993086 0.795023,1.58451 0.182828,0.590727 0.273549,1.19738 0.273549,1.81477 0,0.53117 -0.0540172,1.06857 -0.166553,1.61602 -0.106996,0.541904 -0.273549,1.07411 -0.488925,1.58451 -0.219532,0.509355 -0.488925,0.987546 -0.804718,1.43838 -0.316832,0.445642 -0.682487,0.838306 -1.09558,1.17557 -0.413093,0.333106 -0.87501,0.601461 -1.3854,0.795023 -0.510394,0.193562 -1.06338,0.289823 -1.6593,0.289823 -0.671753,0 -1.26767,-0.139545 -1.78257,-0.423828 -0.515934,-0.284629 -0.950842,-0.655479 -1.30022,-1.12259 -0.343841,-0.461917 -0.612195,-0.993086 -0.789483,-1.58347 -0.182828,-0.590727 -0.273549,-1.19738 -0.273549,-1.81477l0 0.000346264zm1.87987 -0.7462c0,0.353536 0.0270086,0.713997 0.0799871,1.08485 0.0595575,0.364616 0.145085,0.719191 0.25866,1.05784 0.11773,0.342802 0.257274,0.659634 0.429368,0.954997 0.172093,0.300557 0.36981,0.559217 0.606655,0.778749 0.230266,0.22057 0.49308,0.392664 0.784289,0.515934 0.289823,0.12881 0.612195,0.192523 0.965731,0.192523 0.38193,0 0.719191,-0.0855273 1.01005,-0.25208 0.289823,-0.161013 0.541904,-0.380891 0.75174,-0.655479 0.213991,-0.273549 0.391625,-0.585187 0.53117,-0.933529 0.139545,-0.354921 0.24654,-0.715036 0.333106,-1.09039 0.0855273,-0.376389 0.145085,-0.7462 0.177287,-1.11185 0.0325489,-0.36981 0.0474382,-0.708457 0.0474382,-1.01455 0,-0.365655 -0.0259698,-0.724731 -0.0799871,-1.09039 -0.0540172,-0.365655 -0.139545,-0.719191 -0.257274,-1.05784 -0.113575,-0.333106 -0.25866,-0.655479 -0.425213,-0.950842 -0.171055,-0.295364 -0.375351,-0.552638 -0.606655,-0.768014 -0.235806,-0.219532 -0.498621,-0.391625 -0.788444,-0.514895 -0.289823,-0.129849 -0.612195,-0.188368 -0.961576,-0.188368 -0.38193,0 -0.719191,0.0799871 -1.00901,0.241346 -0.295364,0.161013 -0.542943,0.38193 -0.75728,0.655479 -0.215376,0.268355 -0.387124,0.579647 -0.526668,0.934568 -0.139545,0.348342 -0.25208,0.713997 -0.333106,1.08485 -0.0855273,0.36981 -0.145085,0.741006 -0.177287,1.11082 -0.036704,0.370849 -0.0529785,0.709496 -0.0529785,1.01559l0 0.000692529z"/>
   <path id="_123456789" class="fil1" d="M85.1655 119.894c0,-0.215376 -0.0162744,-0.392664 -0.0488233,-0.542943 -0.0325489,-0.145085 -0.0799871,-0.262815 -0.145085,-0.349381 -0.0692529,-0.0855273 -0.150279,-0.145085 -0.24654,-0.181789 -0.102841,-0.0377428 -0.22057,-0.0595575 -0.354921,-0.0595575 -0.193562,0 -0.418634,0.0270086 -0.675908,0.0799871 -0.263853,0.0540172 -0.564757,0.124309 -0.897864,0.215376l-0.11773 -0.568912c0.370849,-0.12881 0.729925,-0.247579 1.07411,-0.354921 0.343841,-0.106996 0.655479,-0.204296 0.945302,-0.279089 0.289823,-0.0810259 0.541904,-0.139545 0.762474,-0.182828 0.219532,-0.043283 0.391625,-0.0637126 0.521474,-0.0637126 0.306098,0 0.541904,0.0907213 0.708457,0.273549 0.172093,0.177287 0.257274,0.488925 0.257274,0.929027 0,0.0529785 -0.00554023,0.177287 -0.0162744,0.364616 -0.0107342,0.193562 -0.0214684,0.434908 -0.0422443,0.729925 -0.0162744,0.296402 -0.0377428,0.62847 -0.0647514,1.01005 -0.0270086,0.380891 -0.0595575,0.784289 -0.0907213,1.21366 -0.0377428,0.434908 -0.0758319,0.87501 -0.113575,1.33693 -0.0422443,0.456376 -0.0907213,0.912753 -0.134004,1.36948l0.043283 0.0107342c0.402359,-1.3532 0.826187,-2.49761 1.28291,-3.42559 0.456376,-0.929027 0.923833,-1.68631 1.39094,-2.26699 0.472651,-0.579647 0.945302,-0.99828 1.41241,-1.2559 0.467111,-0.253119 0.912753,-0.38193 1.33693,-0.38193 0.289823,0 0.574453,0.0540172 0.84904,0.161013 0.273549,0.112536 0.514895,0.289823 0.724731,0.526668 0.213991,0.241346 0.380891,0.552638 0.510394,0.934568 0.12327,0.380891 0.186983,0.842461 0.186983,1.37917 0,0.155819 -0.0107342,0.370849 -0.0270086,0.633664 -0.0152356,0.263853 -0.0422443,0.559217 -0.0692529,0.885744 -0.0214684,0.322372 -0.0540172,0.671753 -0.0865661,1.03187 -0.036704,0.364616 -0.0637126,0.724731 -0.0907213,1.07411 -0.0270086,0.353536 -0.0488233,0.686989 -0.0692529,1.00382 -0.0162744,0.316832 -0.0270086,0.595921 -0.0270086,0.832766 0,0.407899 0.0162744,0.741006 0.0529785,0.99828 0.0325489,0.257274 0.0921063,0.456376 0.166553,0.606655 0.0810259,0.150279 0.182828,0.25208 0.316832,0.306098 0.12881,0.0595575 0.289823,0.0855273 0.478191,0.0855273 0.273549,0 0.558178,-0.036704 0.848002,-0.112536 0.296402,-0.0799871 0.591766,-0.182828 0.892323,-0.322372l0.150279 0.408938c-0.188368,0.155819 -0.430407,0.310253 -0.72023,0.466072 -0.284629,0.155819 -0.590727,0.300557 -0.907559,0.430407 -0.316832,0.134004 -0.633664,0.241346 -0.944263,0.322372 -0.316832,0.0799871 -0.59696,0.11773 -0.838306,0.11773 -0.279089,0 -0.5052,-0.0758319 -0.666213,-0.226111 -0.161013,-0.150279 -0.284629,-0.359076 -0.364616,-0.62293 -0.0810259,-0.262815 -0.134004,-0.568912 -0.155819,-0.918293 -0.0270086,-0.353536 -0.0377428,-0.729925 -0.0377428,-1.13228 0,-0.494466 0.0162744,-0.999319 0.0488233,-1.52495 0.0377428,-0.521474 0.0747931,-1.01455 0.11773,-1.48721 0.043283,-0.472651 0.0799871,-0.902019 0.112536,-1.28914 0.0325489,-0.380891 0.0488233,-0.692183 0.0488233,-0.923833 0,-0.612195 -0.112536,-1.06338 -0.343841,-1.3532 -0.230266,-0.295364 -0.536364,-0.440102 -0.918293,-0.440102 -0.306098,0 -0.62847,0.12881 -0.960537,0.386085 -0.338647,0.25866 -0.671753,0.612195 -1.00486,1.05784 -0.333106,0.452221 -0.649938,0.977851 -0.960537,1.59005 -0.306098,0.612195 -0.580685,1.27321 -0.827572,1.98167 -0.24654,0.708457 -0.451183,1.45466 -0.612195,2.22821 -0.166553,0.778749 -0.268355,1.55196 -0.306098,2.33071l-1.64822 0.204296 -0.12327 -0.00554023c0.0422443,-0.49966 0.0799871,-1.04156 0.11773,-1.63333 0.0377428,-0.585187 0.0692529,-1.18111 0.101802,-1.78776 0.0325489,-0.606655 0.0595575,-1.20258 0.0810259,-1.79884 0.0259698,-0.595921 0.0474382,-1.1541 0.0637126,-1.67003 0.0162744,-0.515934 0.0325489,-0.977851 0.0377428,-1.3854 0.0107342,-0.413093 0.0162744,-0.735466 0.0162744,-0.971272l0.000346264 0.00103879z"/>
   <path id="_12345678910" class="fil1" d="M98.6642 126.101c0.0325489,0.396819 0.139545,0.741006 0.316832,1.03083 0.177287,0.289823 0.391625,0.525629 0.649938,0.708457 0.257274,0.182828 0.541904,0.316832 0.853542,0.408938 0.311638,0.0907213 0.62293,0.134004 0.929027,0.134004 0.289823,0 0.568912,-0.0377428 0.831727,-0.119115 0.269394,-0.0799871 0.5052,-0.192523 0.709496,-0.337608 0.203257,-0.145085 0.36981,-0.327566 0.494466,-0.542943 0.12327,-0.213991 0.181789,-0.456376 0.181789,-0.724731 0,-0.279089 -0.0637126,-0.521474 -0.192523,-0.729925 -0.135043,-0.209836 -0.306098,-0.403398 -0.526668,-0.574453 -0.219532,-0.172093 -0.478191,-0.333106 -0.768014,-0.478191 -0.289823,-0.150279 -0.595921,-0.300557 -0.907559,-0.451183 -0.279089,-0.12881 -0.558178,-0.263853 -0.837267,-0.397858 -0.285668,-0.134004 -0.553677,-0.279089 -0.816491,-0.434908 -0.262815,-0.155819 -0.510394,-0.327566 -0.735466,-0.509355 -0.231305,-0.182828 -0.429368,-0.387124 -0.595921,-0.612195 -0.172093,-0.22057 -0.306098,-0.472651 -0.403398,-0.747239 -0.0962615,-0.273549 -0.145085,-0.579647 -0.145085,-0.917254 0,-0.360115 0.0647514,-0.693221 0.188368,-0.999319 0.12327,-0.300557 0.295364,-0.574453 0.515934,-0.820993 0.213991,-0.242385 0.467111,-0.456376 0.75728,-0.639204 0.284629,-0.182828 0.590727,-0.338647 0.912753,-0.461917 0.327566,-0.12327 0.659634,-0.215376 1.00382,-0.273549 0.343841,-0.0595575 0.676947,-0.0921063 1.00486,-0.0921063 0.418634,0 0.815453,0.0488233 1.19184,0.139545 0.36981,0.0921063 0.697723,0.226111 0.982006,0.397858 0.279089,0.176249 0.49966,0.391625 0.666213,0.643706 0.166553,0.253119 0.24654,0.532208 0.24654,0.84904 0,0.11773 -0.0162744,0.25208 -0.0585187,0.391625 -0.043283,0.145085 -0.113575,0.273549 -0.215376,0.397858 -0.0962615,0.12327 -0.230266,0.225072 -0.391625,0.311638 -0.161013,0.0855273 -0.360115,0.12881 -0.59696,0.134004 -0.219532,0 -0.451183,-0.0325489 -0.692183,-0.102841l-0.0270086 -0.0799871c0.0758319,-0.166553 0.12881,-0.322372 0.161013,-0.461917 0.0270086,-0.145085 0.043283,-0.273549 0.043283,-0.392664 -0.00554023,-0.241346 -0.0647514,-0.445642 -0.182828,-0.611157 -0.11773,-0.166553 -0.268355,-0.301596 -0.445642,-0.403398 -0.177287,-0.106996 -0.376389,-0.182828 -0.590727,-0.230266 -0.22057,-0.0488233 -0.434908,-0.0702917 -0.644744,-0.0702917 -0.36981,0 -0.702917,0.0488233 -0.99828,0.150279 -0.295364,0.0973003 -0.542943,0.231305 -0.741006,0.397858 -0.204296,0.165514 -0.360115,0.348342 -0.467111,0.563372 -0.108034,0.208797 -0.161013,0.423828 -0.161013,0.649938 0,0.289823 0.0747931,0.547444 0.230266,0.77217 0.150279,0.231305 0.354921,0.441141 0.606655,0.633664 0.247579,0.188368 0.537402,0.370849 0.865315,0.537402 0.326527,0.166553 0.670714,0.333106 1.03083,0.504161 0.396819,0.188368 0.795023,0.38193 1.18665,0.586226 0.391625,0.198063 0.741006,0.429368 1.0523,0.686989 0.311638,0.257274 0.558178,0.552638 0.75174,0.885744 0.193562,0.333106 0.284629,0.724731 0.284629,1.17695 0,0.536364 -0.11773,1.02009 -0.353536,1.43838 -0.242385,0.418634 -0.559217,0.773208 -0.956036,1.06338 -0.397858,0.284629 -0.859774,0.5052 -1.37467,0.655479 -0.515934,0.150279 -1.0523,0.225072 -1.60632,0.225072 -0.279089,0 -0.568912,-0.0214684 -0.864276,-0.0637126 -0.295364,-0.043283 -0.579647,-0.108034 -0.858736,-0.188368 -0.279089,-0.0865661 -0.542943,-0.188368 -0.789483,-0.311638 -0.25208,-0.12327 -0.467111,-0.262815 -0.655479,-0.423828 -0.188368,-0.161013 -0.333106,-0.338647 -0.440102,-0.537402 -0.106996,-0.192523 -0.161013,-0.413093 -0.161013,-0.648899 0,-0.204296 0.043283,-0.376389 0.12881,-0.515934 0.0865661,-0.145085 0.199102,-0.257274 0.343841,-0.349381 0.139545,-0.0855273 0.300557,-0.155819 0.472651,-0.198063 0.177287,-0.043283 0.360115,-0.0702917 0.541904,-0.0758319l0.0647514 0.0540172 0 0.00103879z"/>
  </g>
 </g>
</svg>
