<?xml version="1.0" encoding="UTF-8"?>
<!DOCTYPE svg PUBLIC "-//W3C//DTD SVG 1.1//EN" "http://www.w3.org/Graphics/SVG/1.1/DTD/svg11.dtd">
<!-- Creator: CorelDRAW X5 -->
<svg xmlns="http://www.w3.org/2000/svg" xml:space="preserve" width="304px" height="643px" style="shape-rendering:geometricPrecision; text-rendering:geometricPrecision; image-rendering:optimizeQuality; fill-rule:evenodd; clip-rule:evenodd"
viewBox="0 0 37.0553 78.3692"
 xmlns:xlink="http://www.w3.org/1999/xlink">
 <defs>
  <style type="text/css">
   <![CDATA[
    .fil0 {fill:#4B4B4D}
    .fil1 {fill:#FEFEFE;fill-rule:nonzero}
   ]]>
  </style>
 </defs>
 <g id="Layer_x0020_1">
  <metadata id="CorelCorpID_0Corel-Layer"/>
  <g id="_258827472">
   <g id="_185508936">
    <g>
     <path id="_185509224" class="fil0" d="M23.0591 23.0738c0.244265,-1.46271 3.57424,-3.00852 5.96245,-2.37568 1.20577,0.319301 1.25214,0.356603 1.61422,1.45277 -3.98629,-0.285167 -2.84159,0.829866 -5.71458,0.626936 -1.14369,-0.0805094 -0.648972,0.302738 -1.86209,0.295969zm-8.15291 -20.5607c-0.282431,2.11168 -0.986276,3.01485 -1.03712,5.20027 -0.250026,0.50682 -0.0396066,0.00590498 -0.0324054,1.93395 0.000864144,0.303602 0.10701,0.0273646 -0.0216036,0.763327 -0.124581,0.713351 -0.0854062,0.609509 -0.507828,0.934139 0.632841,0.176717 0.135383,0.0319733 0.295969,0.365677 -0.545131,0.805094 -0.407876,1.03625 -0.459724,2.0257 0.0387424,0.00849741 1.06866,0.229862 1.06995,0.230294 0.677777,0.290064 1.4172,1.41676 1.59579,2.2943 0.431352,0.619303 0.64854,1.16227 1.06232,1.82478l-0.815032 0.451515 0.0629385 0.826697c0.0305331,0.072012 -0.661646,0.263564 0.523095,0.0872785 0.0279406,-0.00446474 0.296833,-0.0571775 0.391745,-0.072012 1.24854,-0.195585 1.1159,0.873505 1.70193,1.68393 0.61527,0.85147 0.789395,0.574368 1.35699,1.97183 1.46674,-0.0525687 -1.12267,0.132646 0.474127,-0.174125l0.45742 0.012098c2.56319,0.445754 1.60471,0.525831 1.08263,3.05518 2.24159,-0.99967 3.14966,1.54264 3.8162,-0.720552l0.803798 -0.102833c1.07629,-0.761023 2.6244,-0.805958 4.05283,-0.71868l-0.0849741 1.56108c0.389441,-0.478592 0.120548,-0.243256 0.458716,-1.00514l0.233463 -0.452523c1.78287,0.415077 2.31043,1.09329 2.73185,2.81624 0.0525687,-0.127749 0.138119,-0.854062 0.371006,-1.15507 0.815032,0.992181 1.42036,1.27692 1.76314,3.01845 0.483488,2.45618 -0.492562,2.5475 -0.618007,3.95936 0.762751,-0.993045 1.31825,-1.40107 1.40956,-3.20511 0.13351,-2.62628 -1.04302,-3.62739 -2.96171,-5.39975 -1.61652,-1.49367 -0.457852,-0.63457 -1.42886,-2.07294 -0.582865,-0.864 -0.705717,-0.446618 -1.28052,-1.42987 -0.704277,-0.0809415 -0.705285,-1.1653 -1.27375,-1.81931 -0.734954,-0.845133 -1.50087,-0.589202 -2.43861,-0.98498 -4.24395,-0.728617 -5.16772,1.81528 -6.32625,2.52229 -0.00763327,-0.048104 0.794724,-4.70685 1.23774,-5.44483 0.444314,-0.739851 0.155114,-0.303602 0.259963,-1.05512 -0.135383,-0.438121 -0.151081,-0.813159 -0.379647,-1.57101 -0.0813735,-0.605333 -0.34681,-1.79497 -0.568463,-2.41528 -0.167356,-0.467358 -0.224389,-0.522663 -0.501059,-0.959776 -0.403843,-0.637738 -0.310372,-0.2892 -0.44489,-0.918441 -0.473119,-0.320741 -0.808262,-0.792996 -1.34302,-0.926938 -0.283871,0.59093 0.0620743,0.938172 0.22799,1.63395 0.659774,2.55196 -0.525831,4.08884 0.533897,4.78102 -0.012098,2.62484 0.177149,2.03794 -0.5519,2.60683 -0.942205,0.735818 -0.717383,0.980515 -1.30788,1.78561 -1.66909,-1.59895 -0.618439,0.242392 -1.37543,-1.1748 -0.22943,-0.429047 -0.751517,-1.69747 -0.900438,-2.24937 -0.0993765,-0.181326 -0.343641,-0.684114 -0.534329,-0.98498l0.32247 -0.365677c0.00763327,-0.0351418 -0.0877106,-0.175421 -0.237495,-0.533465 1.09962,-0.0499763 1.146,-0.429912 0.987284,-1.26972 -0.00633705,-0.0319733 -0.0288048,-0.0917433 -0.0341337,-0.121844 -0.0854062,-0.47816 0.0440713,-0.258235 0.0525687,-0.75699l-0.466926 -0.122852c-0.0341337,-2.26867 0.487089,0.903606 -0.398514,-3.11826 -0.32607,-1.47927 0.201922,-1.39746 0.207394,-1.96823 0.00849741,-0.962512 -0.449355,0.365245 -0.115075,-0.850461 0.443018,-1.20087 0.529,-2.70535 0.266732,-3.98903l-0.39981 -0.748925c-0.971009,0.529864 -0.618871,1.31969 -0.966113,2.51293l0 0.000144024z"/>
     <path id="_185509152" class="fil0" d="M25.3893 55.1426c-0.292657,0.400243 -0.100817,0.115075 -0.206962,0.630537 0.0692755,0.0453675 0.187519,0.0203074 0.219493,0.115651 0.323334,0.955743 0.0629385,0.0751805 0.318437,0.143448l0.0828138 -0.0521367c-0.00403267,0.0489681 -0.0269325,0.0710038 -0.0305331,0.144888 -0.0036006,0.0769088 -0.0233319,0.116083 -0.0273646,0.152521 -0.282431,2.33564 0.476719,1.58858 0.952574,2.5992l-0.621175 0.339608c-0.187087,0.115651 -0.156986,-0.170956 -0.567166,0.488961 -0.172253,0.277966 -0.233895,0.497459 -0.175853,0.825833l0.261259 0.620167c1.27461,-0.665247 0.725449,-0.960208 0.415077,-1.85978 0.184927,0.0643787 0.729481,-0.196593 0.791556,1.51614 0.00129622,0.0364381 -0.0072012,0.112051 -0.0112339,0.14532 -0.00129622,0.0103697 -0.0103697,0.0521367 -0.0125301,0.0638026 -0.00676913,0.0355739 -0.0296689,0.12098 -0.042343,0.171821l0.319301 0.367405c0.0368701,-0.0571775 0.0674032,-0.121412 0.100241,-0.18219l0.116083 -0.427751 0.0612102 2.23079c0.187951,0.554636 -0.186655,0.211427 0.331543,0.375038 0.318869,-0.189391 0.331975,-0.333704 0.454684,-0.754253 0.106578,-0.363805 0.0944797,-0.203362 0.103409,-0.569903 0.0125301,-0.52756 0.0495442,-0.316133 -0.143448,-0.556797 0.464189,1.31782 0.0957759,1.8098 0.134086,2.62628 0.018003,0.379215 0.0337016,0.339608 0.0836779,0.478592 0.042343,-0.0283727 0.12098,-0.0917433 0.14532,-0.0468078l0.663374 -0.148489c0.50682,-0.111042 0.585169,-0.14172 1.04115,-0.325638 0.0472399,0.0319733 0.107442,0.0391745 0.127749,0.113347l0.461453 0.401251c0.216756,0.183919 0.230726,0.106578 0.445322,0.36078 0.433512,-0.125877 0.0387424,0.115075 0.510421,-0.402547 0.0260683,-0.0288048 0.0701397,-0.0989445 0.110178,-0.144312 0.190688,0.360204 0.0427751,0.651276 0.29813,1.00125 0.237495,-0.276094 0.603172,-0.233463 0.737115,-0.986276 0.00590498,-0.0341337 0.00446474,-0.0985124 0.00763327,-0.132214l-0.0139703 -0.492994c0.0175709,-0.192992 -0.27883,0.125445 0.0769088,-0.338744 -0.461453,-1.18733 -0.141287,-0.0972162 0.335576,-0.525399 -0.157418,-1.38162 -0.358476,-1.67759 -0.622472,-2.85744l-0.296401 0.684114c-0.0512725,0.165051 -0.0926074,0.540234 -0.108882,0.618439 -0.446618,-0.202786 -0.374174,-0.289632 -0.620743,-0.628377 -0.372014,0.316709 -0.520791,0.377775 -1.24134,0.402547 -0.12098,-1.32689 -0.242392,-1.4604 0.296833,-1.86338l0.322902 -0.169084c-1.29089,-0.10701 -0.771392,-0.239224 -0.684114,-1.44874 -0.614406,0.819064 -0.443882,2.20472 -0.555068,3.17126 -0.48032,0.0192992 -1.26655,-0.126885 -1.16227,-0.482192 0.149353,-0.507396 0.419254,-0.186223 1.15997,-0.594531 -1.48791,0.0548731 -0.863568,0.179886 -1.24005,-0.567166 -0.661646,0.156986 0.00129622,0.111042 -0.969281,0.0697076 0.48032,0.846429 0.516758,0.357611 0.606341,1.08709 -0.248729,0.248729 -0.190256,0.20149 -0.464621,0.616567l-0.268461 -1.16443c-0.0216036,-0.0504084 -0.0517046,-0.0980803 -0.0760446,-0.14388 -0.231158,-0.44489 -0.54153,-0.502788 -0.391745,-1.11143 0.382816,0.0620743 -0.00590498,-0.121844 0.519062,0.577968 0.482192,-1.10913 -0.0404707,-0.903606 1.08479,-0.742588 -1.08666,-0.315268 0.150217,0.0409028 -0.663806,-0.318869 -0.948542,-0.418678 -0.650412,0.0207394 -1.44283,-0.21546 -0.0773409,-0.551036 -0.103409,-0.80783 0.0400387,-1.35238 0.183919,-0.697076 0.279695,-0.368845 0.240664,-0.787955 -0.0589058,-0.626504 -0.337304,-0.97605 0.545563,-1.1496 -0.456556,-0.00273646 0.00806534,0.0697076 -0.206962,-0.292801l-0.0305331 0.234759c-0.0674032,-0.00532889 -0.416085,-0.0864144 -0.468654,-0.0822377 -0.0324054,0.00230438 -0.0949118,0.00676913 -0.126453,0.0144024 -0.0296689,0.00676913 -0.0822377,0.0296689 -0.111475,0.0413349 -0.980083,0.396642 0.592803,0.224821 -0.917577,0.487953l0.000432072 0z"/>
    </g>
    <path id="_185508984" class="fil0" d="M29.5546 64.4601c-0.36078,0.106578 -0.711478,0.179022 -1.11359,0.268893 -0.02434,-0.0449355 -0.102545,0.0188671 -0.144888,0.0468078 -0.0504084,-0.139415 -0.066107,-0.0989445 -0.0832458,-0.47816 -0.0391745,-0.815896 0.329671,-1.30889 -0.134518,-2.62714 0.192992,0.240664 0.156554,0.030101 0.143448,0.557661 -0.00892949,0.366109 0.00316853,0.205522 -0.103409,0.569903 -0.122852,0.420118 -0.135815,0.564862 -0.454252,0.753389 -0.51863,-0.162747 -0.14388,0.179454 -0.331975,-0.374174l-0.0612102 -2.23136c-0.0593379,0.218196 -0.0930395,0.418246 -0.216324,0.609941l-0.318869 -0.367405c0.0273646,-0.112915 0.072012,-0.263564 0.0652429,-0.380511 -0.0612102,-1.71316 -0.605909,-1.45234 -0.791556,-1.517 0.310804,0.900006 0.859967,1.19497 -0.414213,1.85978 -0.239224,-0.563998 -0.453243,-0.853198 -0.0858383,-1.44514 0.41018,-0.660206 0.379647,-0.373742 0.567166,-0.489393l0.621175 -0.339608c-0.475855,-1.01062 -1.23501,-0.263564 -0.952574,-2.5992 0.00950558,-0.0836779 0.0521367,-0.220357 0.0576096,-0.296833l-0.0818056 0.0521367c-0.255931,-0.0688434 0.00403267,0.811863 -0.318869,-0.143448 -0.0319733,-0.0957759 -0.150217,-0.0705717 -0.219925,-0.115651 0.106578,-0.516326 -0.0848301,-0.230726 0.207827,-0.630969l0.0453675 -0.403411c0.245993,-0.596403 -0.548587,-0.143016 0.310372,-0.324342 -0.220357,-0.274366 -0.380511,-0.563998 -0.563998,-0.864 -0.115507,0.30173 -0.128901,1.1244 -0.158138,1.48373 -0.0036006,0.557661 -0.105714,1.06146 -0.462317,1.48561 -0.286464,-0.944941 0.156986,0.250026 0.00489681,-0.761887 -0.0769088,-0.513157 -0.834763,-1.22377 -0.273934,-2.67438 -0.000432072,0.470526 1.18777,0.0125301 1.2376,-0.0917433 0.0449355,-0.0940476 0.140279,-0.0656749 0.198753,-0.115075l-1.16703 -0.00129622c-0.297265,-0.882867 -0.237063,-1.94749 -0.49069,-2.74178 -0.0269325,-0.0832458 -0.150649,-0.23836 -0.251466,-0.711046 0.0764767,0.267597 -0.18219,0.00993765 0.196161,0.297698l0.326502 0.0288048c0.00993765,-0.00892949 0.307203,-0.328807 0.348538,-0.403843 0.503076,-0.887908 0.023908,-0.231591 0.0216036,-0.234327 0.358044,0.00633705 0.744172,0.34897 0.763183,0.411476l0.241528 -1.19684c-0.491554,-0.281135 -0.736106,-0.0355739 0.228998,-1.52565 0.732218,-1.12944 -0.291504,-0.667839 0.891508,-0.749357 -1.00212,-0.209123 0.168652,-0.00633705 -0.895541,-0.222229l0.27523 -1.40639c-0.0665391,-0.83966 -0.0139703,-2.21696 0.548299,-2.76656 0.434088,-0.424583 0.327366,-0.248297 0.782626,-0.448923 0.189391,1.29708 0.147913,2.28926 0.036006,3.32825 0.429479,0.385408 0.196161,0.121412 0.493426,0.311236 0.135815,-0.550027 0.423718,-0.947678 0.520359,-1.42987 0.336008,-1.66823 0.0161307,-1.14197 0.719688,-1.70913 0.165051,0.985844 0.666975,1.78964 0.512293,2.69685 -0.198321,1.16083 -0.33644,0.122852 -0.0656749,0.778593 0.304467,0.73625 0.153386,0.444314 0.147481,1.38753l0.399378 1.58182c0.828426,-1.59895 -0.359772,-2.71802 1.4015,-5.29562 1.41446,-2.06847 0.32247,-3.19474 2.38518,-4.01467l-0.0571775 2.43602c0.439849,-1.34302 0.568463,-3.26978 0.635146,-4.76042 -0.0103697,-2.30597 0.00950558,-4.13017 -1.02459,-5.74857 -1.46631,-2.29473 -2.97208,-2.30554 -3.46954,-3.08586 -0.503796,-0.0908791 -1.91149,-0.542394 -2.40894,-0.759726 -0.895541,-0.390881 -0.824393,-0.977347 -1.04432,-1.81917l-0.804662 0.103265c-0.666111,2.26233 -1.57404,-0.280127 -3.81577,0.720552 0.522663,-2.53021 1.48071,-2.60899 -1.0822,-3.05561l-0.457852 -0.0125301c-1.59665,0.306771 0.993045,0.121412 -0.474127,0.174989 -0.567598,-1.3979 -0.741723,-1.12079 -1.35656,-1.97226 -0.586033,-0.810423 -0.453387,-1.87966 -1.7028,-1.68436l-0.391313 0.072444c-1.18474,0.175853 -0.492562,-0.0156986 -0.523095,-0.0872785 -0.378207,-0.124149 -0.990453,-0.661214 -1.36679,-0.933707 -0.580273,-0.421414 -0.854062,-0.571631 -1.43649,-0.85363 -0.288768,-0.184351 -1.08882,-0.629241 -1.49915,-0.767792 -1.91465,-0.653581 -1.7365,0.277966 -1.74514,0.298706 -0.461885,1.10682 0.788387,-0.441289 1.82421,1.33222 0.921177,0.300002 2.01907,1.44326 2.36977,2.2714 -1.56122,-0.125445 -1.55704,-0.0517046 -2.8439,0.201922 3.20367,0.314404 3.53694,-0.147048 4.83676,2.33204 -2.3064,-0.0674032 -2.07481,-0.295969 -3.90449,-0.782194 -4.83186,-0.348106 -5.45793,0.246857 -8.56943,2.17951 -1.92675,1.19713 -4.70814,3.74462 -3.48437,6.27008 0.15929,-1.86252 -0.0818056,-2.12882 0.993045,-3.3657 0.459148,-0.527992 1.55805,-1.55402 2.29243,-1.70553 -0.56443,1.2314 -0.361644,2.51106 0.250458,3.61255 -1.1352,-5.08808 3.78351,-6.33302 7.88041,-4.6779 -0.338744,0.429335 -0.610374,0.69794 -1.01465,1.20116 -0.431784,0.534761 -0.625208,0.916136 -1.00068,1.27778 -0.864,0.834763 -1.92819,1.10106 -2.64961,1.90299 -1.21571,1.34979 -1.98307,3.39983 -3.52311,5.1984 1.94346,-0.629241 3.10746,-4.23459 5.78271,-5.03652 -0.422854,0.970145 -0.560397,1.24091 -0.865872,2.257 -0.358476,1.19007 -0.329239,1.04115 -0.976482,1.93179 -0.730489,1.00702 -1.24177,2.83626 -1.43649,4.22293 -0.0890068,3.42763 1.37817,4.39071 3.7403,5.44353 -0.348106,-0.679217 0.104417,-0.0701397 -0.588338,-0.56803 -1.64749,-1.182 -1.78287,-4.11044 -1.35512,-4.87507 1.47437,3.91428 2.18902,2.74308 2.32988,4.78102 0.0535769,0.776721 -0.0413349,0.185359 0.10845,0.859535 0.382816,1.74643 0.833899,2.64687 1.97903,4.00617 -0.257659,0.251034 -0.440281,0.415653 -0.607205,0.81676 1.27735,-0.200193 0.187519,-1.00658 4.01596,-1.52608 0.603172,4.60747 -1.94576,3.43123 -1.86468,8.15435 0.43452,-0.640907 0.350842,-1.03942 0.603604,-1.57332 0.054009,1.24134 -0.380079,1.61825 -0.375614,2.61231 0.489393,0.464189 -0.0288048,0.149785 0.303602,-0.00950558l0.506388 -0.323766c0.042343,-0.112483 0.134518,-0.110178 0.214596,-0.139847 -0.544699,1.54725 -0.462317,2.23756 -0.490258,4.0187 -0.417381,-0.628377 -0.477727,-0.750221 -0.784354,-1.39746l-0.267164 0.410612c-0.0144024,-0.0377343 -0.0832458,0.0881427 -0.11738,0.138119 -0.246857,0.446618 0.122276,0.357611 0.142152,1.1532 0.0207394,0.805958 -0.46779,2.14855 -0.81676,2.8619 -0.147913,0.302738 -0.192992,0.451515 -0.222229,0.540666l0.758718 5.51324 4.02504 8.04935 1.81125 1.60976 5.23974 0.0822377 0 -0.484785 0.402547 -0.201057c0,-0.462317 0.297698,-0.700677 0.60346,-1.00615l0 -0.20149 0.20149 0c0,-0.368413 -0.0692755,-0.332407 0.201057,-0.603604l0.603604 -1.20706c0.268893,-0.538362 0.414645,-1.04259 0.604036,-1.61019l1.61019 -1.60976c0,-0.461885 0.297698,-0.701253 0.603604,-1.00658l0.402115 -5.97872 -0.000144024 0.000288048zm-7.47556 8.07067l1.86425 0.175853c0.234759,0.568895 0.64998,1.4038 0.149785,2.22632 -0.496595,0.815752 -1.48791,0.477727 -2.42738,0.285599 -0.495154,-2.09195 -0.297265,-1.25488 0.413349,-2.68778zm-6.8891 -27.9419c-0.64638,0.950414 -1.29449,0.803798 -2.0123,1.50087l2.19219 -0.776289c-0.0940476,0.607637 0.222229,0.160587 -0.484785,0.586033 -0.479888,0.287904 -1.65383,0.832026 -2.32267,0.85363 -0.992181,-1.05699 -1.43563,-2.97438 -1.12944,-4.8405 0.545995,-0.218628 -0.103409,-0.109746 0.594531,0.229862 1.4797,0.719112 2.65235,0.468654 3.16233,2.44625l0.000144024 0.000144024zm15.512 -1.23457c-0.0917433,-0.908935 -0.617575,-2.75215 -0.966545,-3.51361 -0.686418,-1.49497 -0.283871,-1.7064 0.176717,-3.48754 0.808694,0.572495 1.42036,1.83501 1.64619,3.10789 0.218196,1.23601 0.0396066,3.15787 -0.856366,3.89326zm-5.10666 -6.19015c0.296833,0.150217 0.100817,-0.13135 0.46779,0.362076 0.563134,0.758286 0.129478,3.75514 0.0525687,3.86762 -0.492994,0.725881 0.108882,0.0809415 -0.659774,0.422854 -0.0341337,-0.650844 -0.02434,-0.906775 -0.178158,-1.4231 -0.293089,-0.988148 -0.450075,-2.2812 0.317573,-3.22931l0 -0.000144024zm-13.4138 4.3285c-0.00590498,-1.86785 0.995782,-5.03061 2.23439,-5.89692l-1.25574 5.70666 0.664815 -0.693043c0.112051,0.895541 0.166924,1.49497 0.535625,2.06934 -1.11273,-0.164187 -0.74302,-0.279262 -2.17908,-1.18604zm-2.10088 -0.173981c-1.47841,-2.84476 -2.98879,-5.10306 -0.253626,-7.80394 -0.287904,1.35743 -0.623768,2.5642 -0.132646,4.23056 0.456988,1.55402 1.1653,2.0172 0.386416,3.57338l-0.000144024 0zm0.729481 -3.06483c-0.27883,-2.98562 0.253626,-5.72553 2.80069,-6.54992 -0.273934,0.83966 -1.01249,1.9426 -1.41547,3.21001 -0.179454,0.566302 -0.286464,1.11806 -0.502356,1.76717l-0.748348 1.44557c-0.0203074,-0.0364381 -0.0868464,0.0885747 -0.134518,0.127317l0 -0.000144024zm23.3538 -3.02695c-0.273501,-0.318437 -0.384112,-0.534329 -0.579264,-0.900438 -1.58902,-2.97525 -2.30366,-2.43775 -2.69858,-3.08629 -0.286464,-0.470526 -0.0926074,-1.07816 -0.43092,-1.6642 2.32397,0.308499 3.49244,3.55955 3.70876,5.65092zm-24.1466 -4.17655c0.346378,-0.834763 0.978643,-1.68393 1.50534,-2.17188 0.718247,-0.665679 1.93669,-0.782194 2.79306,-0.411476l-1.09602 0.660782c-1.62013,0.902166 -1.05915,1.06419 -3.20237,1.92272l0 -0.000144024zm0.308067 -3.87655c0.245129,-0.335576 1.50174,-1.54264 1.76933,-1.79641 0.986852,-0.103409 2.08964,0.458716 2.52503,0.991749 -2.30006,-0.0913112 -2.38158,0.672448 -4.29436,0.804662z"/>
   </g>
   <path id="_564025656" class="fil1" d="M6.92438 52.3261c0.0625064,-0.120548 0.0913112,-0.243256 0.0913112,-0.366109 0,-0.0872785 -0.0135383,-0.165051 -0.042343,-0.241096 -0.0292369,-0.0760446 -0.0737403,-0.143016 -0.134086,-0.198753 -0.0580417,-0.0580417 -0.131782,-0.104849 -0.21906,-0.138551 -0.0890068,-0.0332695 -0.191984,-0.0512725 -0.310372,-0.0512725 -0.169516,0 -0.321605,0.0309651 -0.45742,0.0913112 -0.136247,0.0584737 -0.254634,0.140711 -0.357611,0.245993 -0.104849,0.104849 -0.191984,0.225397 -0.265868,0.363805 -0.0733082,0.136247 -0.13351,0.283295 -0.18075,0.442154 -0.0468078,0.156122 -0.0800773,0.317141 -0.102545,0.482192 -0.0224677,0.163323 -0.0315412,0.323766 -0.0315412,0.482624 0,0.281135 0.036006,0.535625 0.109746,0.765487 0.0715799,0.230294 0.171821,0.426887 0.294529,0.589634 0.125013,0.163323 0.270333,0.288336 0.435384,0.377343 0.165484,0.0894389 0.341769,0.134086 0.529432,0.134086 0.198753,0 0.399378,-0.0512725 0.604901,-0.156554 0.203362,-0.102545 0.402115,-0.269901 0.591938,-0.500195 0.0135383,0.00676913 0.0309651,0.0156986 0.0512725,0.0269325 0.0203074,0.0112339 0.0400387,0.0269325 0.0580417,0.0400387 0.018003,0.0156986 0.0315412,0.0315412 0.0445034,0.0472399 0.0135383,0.0152665 0.0203074,0.0288048 0.0203074,0.042343 0,0.00892949 0,0.0135383 -0.00230438,0.0156986l-0.00676913 0.0131062c-0.211859,0.341769 -0.46635,0.598708 -0.763759,0.768224 -0.294529,0.172253 -0.620743,0.256795 -0.973314,0.256795 -0.191984,0 -0.368413,-0.0265004 -0.529432,-0.0800773 -0.162747,-0.054009 -0.308067,-0.127317 -0.439849,-0.223525 -0.129478,-0.0936156 -0.245561,-0.207827 -0.344073,-0.337304 -0.100241,-0.129478 -0.183054,-0.269901 -0.250026,-0.421846 -0.0648108,-0.152089 -0.116083,-0.310372 -0.149353,-0.477727 -0.0337016,-0.165484 -0.0512725,-0.335144 -0.0512725,-0.50466 0,-0.22799 0.0265004,-0.457852 0.0756126,-0.688146 0.0517046,-0.229862 0.122852,-0.450651 0.221221,-0.665247 0.0957759,-0.212291 0.214596,-0.410612 0.352571,-0.594099 0.138551,-0.185359 0.295105,-0.345802 0.47139,-0.482192 0.176285,-0.136247 0.368413,-0.241096 0.580705,-0.319301 0.211859,-0.078205 0.437689,-0.116083 0.676481,-0.116083 0.17859,0 0.346378,0.0224677 0.500195,0.0648108 0.156554,0.0445034 0.290064,0.104849 0.402115,0.185359 0.111475,0.0805094 0.201057,0.176285 0.265868,0.287904 0.0625064,0.112051 0.0957759,0.237063 0.0957759,0.375038 0,0.0894389 -0.0135383,0.167788 -0.042343,0.237063 -0.0269325,0.0692755 -0.0648108,0.127317 -0.114211,0.176285 -0.0489681,0.0489681 -0.10701,0.0849741 -0.171821,0.111475 -0.0669711,0.0247721 -0.140711,0.0381663 -0.218628,0.0381663 -0.0472399,0 -0.0985124,-0.00676913 -0.149785,-0.0156986 -0.0512725,-0.00892949 -0.100241,-0.0269325 -0.152089,-0.0468078l-0.0131062 -0.036006 0.000432072 0.000144024z"/>
   <path id="_1" class="fil1" d="M8.27274 53.8046c0,-0.221221 0.0224677,-0.444314 0.0692755,-0.672448 0.0445034,-0.225397 0.113779,-0.446618 0.203362,-0.658478 0.0890068,-0.212291 0.198753,-0.411044 0.330535,-0.598708 0.13135,-0.185359 0.283151,-0.348106 0.457276,-0.488961 0.172253,-0.138551 0.364381,-0.250026 0.573935,-0.330535 0.212291,-0.0800773 0.442154,-0.120548 0.692179,-0.120548 0.279262,0 0.524823,0.0580417 0.739419,0.176285 0.21402,0.118244 0.394914,0.272493 0.542394,0.466926 0.14532,0.191984 0.256795,0.412917 0.330535,0.65891 0.0760446,0.245561 0.113779,0.497891 0.113779,0.754686 0,0.220789 -0.0224677,0.444314 -0.0692755,0.672016 -0.0445034,0.225397 -0.113779,0.446618 -0.203362,0.65891 -0.0913112,0.211859 -0.203362,0.410612 -0.334568,0.598131 -0.131782,0.185359 -0.283871,0.348538 -0.455548,0.488961 -0.171821,0.138551 -0.363805,0.250026 -0.576096,0.330535 -0.212291,0.0805094 -0.442154,0.120548 -0.689875,0.120548 -0.279262,0 -0.527128,-0.0580417 -0.741291,-0.176285 -0.214452,-0.118244 -0.395202,-0.272493 -0.540522,-0.466926 -0.143016,-0.191984 -0.254634,-0.412917 -0.328375,-0.658478 -0.0760446,-0.245561 -0.113779,-0.497891 -0.113779,-0.754686l0 0.000144024zm0.781762 -0.310372c0,0.147048 0.0112339,0.296833 0.0332695,0.451083 0.0247721,0.151513 0.060058,0.299138 0.107298,0.439849 0.0489681,0.142584 0.10701,0.274366 0.17859,0.397218 0.0715799,0.125013 0.153818,0.232599 0.25233,0.323766 0.0957759,0.0917433 0.20509,0.163323 0.32607,0.214596 0.120548,0.0535769 0.254634,0.0800773 0.401683,0.0800773 0.158714,0 0.299138,-0.0355739 0.420118,-0.104849 0.120548,-0.0669711 0.225397,-0.158282 0.312532,-0.272493 0.0890068,-0.113779 0.162747,-0.243256 0.220789,-0.388145 0.0580417,-0.147481 0.102545,-0.297265 0.138551,-0.453387 0.0355739,-0.156554 0.060202,-0.310372 0.0737403,-0.462317 0.0135383,-0.153818 0.0197313,-0.294529 0.0197313,-0.421846 0,-0.152089 -0.0108018,-0.301298 -0.0332695,-0.453387 -0.0224677,-0.152089 -0.0580417,-0.299138 -0.10701,-0.439849 -0.0472399,-0.138551 -0.107442,-0.272493 -0.176717,-0.395346 -0.0710038,-0.122852 -0.156122,-0.229862 -0.25233,-0.319301 -0.0980803,-0.0913112 -0.207394,-0.162747 -0.327943,-0.21402 -0.120548,-0.054009 -0.254634,-0.078205 -0.39981,-0.078205 -0.158714,0 -0.299138,0.0332695 -0.419686,0.100241 -0.122852,0.0669711 -0.22583,0.158714 -0.314836,0.272493 -0.0894389,0.111475 -0.161019,0.241096 -0.21906,0.388577 -0.0580417,0.144888 -0.104849,0.296833 -0.138551,0.451083 -0.0354299,0.153818 -0.060058,0.308067 -0.0735962,0.461885 -0.0152665,0.15425 -0.0220357,0.295105 -0.0220357,0.422278l0.000144024 0z"/>
   <path id="_12" class="fil1" d="M13.6765 51.9224c0,-0.0894389 -0.00676913,-0.163323 -0.0203074,-0.22583 -0.0135383,-0.060202 -0.0332695,-0.109314 -0.060202,-0.14532 -0.0288048,-0.0355739 -0.0625064,-0.060202 -0.102545,-0.0756126 -0.0427751,-0.0156986 -0.0917433,-0.0247721 -0.147481,-0.0247721 -0.0805094,0 -0.174125,0.0112339 -0.281135,0.0332695 -0.109746,0.0224677 -0.234759,0.0517046 -0.37331,0.0894389l-0.0489681 -0.236631c0.15425,-0.0535769 0.303602,-0.102977 0.446618,-0.147481 0.143016,-0.0445034 0.272493,-0.0849741 0.393041,-0.116083 0.120548,-0.0337016 0.225397,-0.0580417 0.317141,-0.0760446 0.0913112,-0.018003 0.162747,-0.0265004 0.216756,-0.0265004 0.127317,0 0.225397,0.0377343 0.294529,0.113779 0.0715799,0.0737403 0.10701,0.203362 0.10701,0.386416 0,0.0220357 -0.00230438,0.0737403 -0.00676913,0.151513 -0.00446474,0.0805094 -0.00892949,0.18075 -0.0175709,0.303602 -0.00676913,0.123285 -0.0156986,0.261259 -0.0269325,0.420118 -0.0112339,0.158282 -0.0247721,0.32607 -0.0377343,0.50466 -0.0156986,0.18075 -0.0315412,0.363805 -0.0472399,0.555932 -0.0175709,0.189824 -0.0377343,0.379647 -0.0557373,0.569471l0.018003 0.00446474c0.167356,-0.562702 0.343641,-1.03856 0.533465,-1.4244 0.189824,-0.386416 0.384112,-0.701253 0.5784,-0.942781 0.196593,-0.241096 0.393041,-0.415077 0.58733,-0.522231 0.194288,-0.105282 0.379647,-0.158714 0.555932,-0.158714 0.120548,0 0.238792,0.0224677 0.353003,0.0669711 0.113779,0.0468078 0.21402,0.120548 0.301298,0.21906 0.0890068,0.100241 0.158282,0.229862 0.212291,0.388577 0.0512725,0.158282 0.0777729,0.35041 0.0777729,0.573503 0,0.0648108 -0.00446474,0.15425 -0.0112339,0.263564 -0.00633705,0.109746 -0.0175709,0.232599 -0.0288048,0.368413 -0.00892949,0.134086 -0.0224677,0.279262 -0.036006,0.429047 -0.0152665,0.151513 -0.0265004,0.301298 -0.0377343,0.446618 -0.0112339,0.147048 -0.0203074,0.285599 -0.0288048,0.417381 -0.00676913,0.131782 -0.0112339,0.247865 -0.0112339,0.346378 0,0.169516 0.00676913,0.308067 0.0220357,0.415077 0.0135383,0.10701 0.0381663,0.189824 0.0692755,0.25233 0.0337016,0.0625064 0.0760446,0.104849 0.131782,0.127317 0.0535769,0.0247721 0.120548,0.0355739 0.198753,0.0355739 0.113779,0 0.232023,-0.0152665 0.352571,-0.0468078 0.123285,-0.0332695 0.245993,-0.0760446 0.371006,-0.134086l0.0625064 0.169948c-0.078205,0.0648108 -0.179022,0.129045 -0.29957,0.193856 -0.118244,0.0648108 -0.245561,0.125013 -0.377343,0.179022 -0.131782,0.0557373 -0.263564,0.100241 -0.392609,0.134086 -0.131782,0.0332695 -0.248297,0.0489681 -0.348538,0.0489681 -0.116083,0 -0.209987,-0.0315412 -0.277102,-0.0940476 -0.0669711,-0.0625064 -0.118244,-0.149353 -0.151513,-0.259099 -0.0337016,-0.109314 -0.0557373,-0.236631 -0.0648108,-0.381808 -0.0112339,-0.147048 -0.0156986,-0.303602 -0.0156986,-0.470958 0,-0.205522 0.00676913,-0.415653 0.0203074,-0.634137 0.0156986,-0.216756 0.0309651,-0.421846 0.0489681,-0.618439 0.018003,-0.196593 0.0332695,-0.375038 0.0468078,-0.536057 0.0135383,-0.158282 0.0203074,-0.287904 0.0203074,-0.384112 0,-0.254634 -0.0468078,-0.442154 -0.143016,-0.562702 -0.0957759,-0.122852 -0.223093,-0.183054 -0.381808,-0.183054 -0.127317,0 -0.261259,0.0535769 -0.399378,0.160587 -0.140711,0.107442 -0.279262,0.254634 -0.417813,0.439849 -0.138551,0.187951 -0.270333,0.40658 -0.399378,0.661214 -0.127317,0.254634 -0.241528,0.529432 -0.344073,0.823961 -0.102545,0.294529 -0.187519,0.604901 -0.254634,0.926506 -0.0692755,0.323766 -0.111475,0.645371 -0.127317,0.969281l-0.68541 0.0849741 -0.0512725 -0.00230438c0.0175709,-0.207827 0.0332695,-0.43308 0.0489681,-0.679217 0.0156986,-0.243256 0.0288048,-0.491122 0.042343,-0.743452 0.0135383,-0.25233 0.0247721,-0.500195 0.0337016,-0.747916 0.0108018,-0.247865 0.0197313,-0.479888 0.0265004,-0.694484 0.00676913,-0.214596 0.0135383,-0.40658 0.0156986,-0.576096 0.00446474,-0.171821 0.00676913,-0.305907 0.00676913,-0.403843l0.000144024 0.000288048z"/>
   <path id="_123" class="fil1" d="M20.496 48.613c-0.0917433,0.415077 -0.167356,0.841964 -0.229862,1.28412 -0.0625064,0.442154 -0.116515,0.877538 -0.158714,1.30615 0.102545,0.00446474 0.201057,0.00892949 0.299138,0.0112339 0.096208,0.00230438 0.187519,0.00446474 0.270333,0.00446474 0.0849741,0.00230438 0.161019,0.00446474 0.229862,0.00446474 0.0692755,0 0.125013,0 0.172253,0 0.198753,0 0.35934,-0.0112339 0.486657,-0.036006 0.0112339,0.036006 0.0203074,0.0715799 0.0269325,0.100817 0.00633705,0.0309651 0.00849741,0.060202 0.00849741,0.0845421 0,0.096208 -0.0400387,0.158714 -0.118244,0.187519 -0.0800773,0.0292369 -0.194288,0.0427751 -0.345802,0.0427751 -0.143016,0 -0.303602,-0.00892949 -0.482624,-0.0269325 -0.17859,-0.018003 -0.372878,-0.0332695 -0.582433,-0.0489681 -0.0247721,0.234327 -0.0449355,0.460157 -0.060202,0.68325 -0.018003,0.220789 -0.0315412,0.428615 -0.0404707,0.625208 -0.00892949,0.196593 -0.0175709,0.379647 -0.0220357,0.546859 -0.00446474,0.167788 -0.00676913,0.312532 -0.00676913,0.438121 0,0.234327 0.0131062,0.442154 0.0377343,0.625208 0.0224677,0.183054 0.0648108,0.336872 0.127317,0.46635 0.060202,0.127317 0.14532,0.223525 0.25233,0.292801 0.104849,0.0669711 0.241096,0.100241 0.404275,0.100241 0.118244,0 0.250026,-0.0203074 0.394914,-0.0625064 0.14532,-0.0400387 0.310804,-0.10701 0.496163,-0.198753 0.0580417,0.0580417 0.0913112,0.129478 0.100241,0.216756 -0.136247,0.0890068 -0.272493,0.169516 -0.408884,0.243256 -0.138119,0.0715799 -0.272061,0.134086 -0.406148,0.187519 -0.131782,0.0512725 -0.261259,0.0913112 -0.386416,0.120548 -0.122852,0.0292369 -0.241096,0.042343 -0.352571,0.042343 -0.14532,0 -0.279262,-0.0265004 -0.39981,-0.0800773 -0.120548,-0.054009 -0.22583,-0.147481 -0.314836,-0.283871 -0.0872785,-0.136247 -0.156554,-0.319301 -0.205522,-0.551468 -0.0489681,-0.232599 -0.0737403,-0.522663 -0.0737403,-0.877538 0,-0.196593 0.00230438,-0.402115 0.00892949,-0.612102 0.00676913,-0.209555 0.0156986,-0.424151 0.0269325,-0.640475 0.0112339,-0.214596 0.02434,-0.431352 0.042343,-0.647676 0.018003,-0.214596 0.0377343,-0.428615 0.0580417,-0.636442 -0.171821,0.00230438 -0.330535,0.00892949 -0.477727,0.0203074 -0.147481,0.0131062 -0.272493,0.0309651 -0.377343,0.0580417 -0.00676913,-0.0135383 -0.0112339,-0.0292369 -0.0112339,-0.0472399 0,-0.0445034 0.0224677,-0.0868464 0.0669711,-0.127317 0.0445034,-0.042343 0.10701,-0.0777729 0.187519,-0.111475 0.078205,-0.0309651 0.174125,-0.0580417 0.285599,-0.0805094 0.112051,-0.0220357 0.232599,-0.0377343 0.366541,-0.0468078 0.0489681,-0.455548 0.102545,-0.886467 0.160587,-1.29045 0.0557373,-0.40658 0.113779,-0.768224 0.169516,-1.08752 0.0112339,-0.0557373 0.0315412,-0.102977 0.060202,-0.140711 0.0292369,-0.0355739 0.0648108,-0.0648108 0.102977,-0.0872785 0.0400387,-0.0220357 0.0822377,-0.0377343 0.127317,-0.0468078 0.0468078,-0.00892949 0.0913112,-0.0135383 0.134086,-0.0135383 0.0733082,0 0.138119,0.00892949 0.196161,0.0247721 0.0561693,0.0156986 0.112051,0.0355739 0.161019,0.0648108z"/>
   <path id="_1234" class="fil1" d="M24.7921 52.3216c0,-0.171821 -0.0288048,-0.321605 -0.0845421,-0.448923 -0.0580417,-0.125013 -0.131782,-0.229862 -0.223525,-0.310372 -0.0913112,-0.0805094 -0.194288,-0.140711 -0.310372,-0.17859 -0.116083,-0.0400387 -0.232023,-0.060202 -0.345802,-0.060202 -0.156554,0 -0.286032,0.018003 -0.393041,0.0489681 -0.10701,0.0337016 -0.194288,0.078205 -0.261259,0.134086 -0.0648108,0.0580417 -0.113779,0.125013 -0.143016,0.201057 -0.0288048,0.078205 -0.0445034,0.162747 -0.0445034,0.25233 0,0.102545 0.0203074,0.209987 0.0580417,0.314836 0.0377343,0.104849 0.0940476,0.207827 0.167356,0.308067l-0.0131062 0.036006c-0.122852,0.0625064 -0.247865,0.0913112 -0.375038,0.0913112 -0.0737403,0 -0.143016,-0.0112339 -0.207827,-0.0332695 -0.0648108,-0.0224677 -0.120548,-0.0561693 -0.167788,-0.100817 -0.0468078,-0.042343 -0.0822377,-0.0957759 -0.111475,-0.158282 -0.0265004,-0.0648108 -0.0400387,-0.134086 -0.0400387,-0.214596 0,-0.127317 0.0309651,-0.247865 0.0936156,-0.361644 0.0625064,-0.113779 0.14532,-0.216756 0.245561,-0.310372 0.102977,-0.0940476 0.223525,-0.17859 0.357611,-0.25233 0.136247,-0.0737403 0.274366,-0.136247 0.419686,-0.187519 0.143016,-0.0517046 0.288336,-0.0917433 0.43308,-0.118244 0.14532,-0.0269325 0.279262,-0.0404707 0.404275,-0.0404707 0.227558,0 0.424151,0.0292369 0.58733,0.0917433 0.160587,0.060202 0.292369,0.149353 0.394914,0.265868 0.100817,0.116083 0.174557,0.256363 0.221221,0.424151 0.0468078,0.165051 0.0715799,0.352571 0.0715799,0.562702 0,0.143016 -0.00676913,0.301298 -0.018003,0.473119 -0.0135383,0.172253 -0.0269325,0.353003 -0.0400387,0.540666 -0.0156986,0.189824 -0.0292369,0.384112 -0.0427751,0.585169 -0.0108018,0.200625 -0.0175709,0.399378 -0.0175709,0.598131 0,0.314836 0.0580417,0.549163 0.176285,0.707878 0.116083,0.158282 0.268029,0.236631 0.457852,0.236631 0.169516,0 0.357179,-0.060202 0.562702,-0.185359l0.0957759 0.140711c-0.147048,0.14532 -0.305907,0.256795 -0.477727,0.332839 -0.172253,0.0756126 -0.353003,0.116083 -0.542826,0.116083 -0.142584,0 -0.272061,-0.0247721 -0.392609,-0.0737403 -0.12098,-0.0468078 -0.223525,-0.118244 -0.310804,-0.214596 -0.0868464,-0.0936156 -0.156122,-0.21402 -0.202786,-0.357179 -0.0472399,-0.14532 -0.0715799,-0.310372 -0.0715799,-0.500195 0,-0.0580417 0.00230438,-0.113779 0.00446474,-0.169516 0.00230438,-0.0580417 0.0112339,-0.118676 0.0197313,-0.181326l-0.0175709 0c-0.0940476,0.187951 -0.203362,0.37331 -0.32607,0.55406 -0.122852,0.183054 -0.259099,0.345802 -0.40658,0.488961 -0.147048,0.143016 -0.303602,0.256795 -0.470958,0.346378 -0.165484,0.0868464 -0.341769,0.13135 -0.524823,0.13135 -0.149785,0 -0.287904,-0.02434 -0.410612,-0.0777729 -0.125013,-0.0517046 -0.232599,-0.125013 -0.319301,-0.216756 -0.0894389,-0.0913112 -0.156554,-0.198753 -0.205522,-0.323766 -0.0489681,-0.127317 -0.0737403,-0.263564 -0.0737403,-0.410612 0,-0.191984 0.0332695,-0.366109 0.104849,-0.524823 0.0715799,-0.156554 0.169948,-0.296833 0.295105,-0.421846 0.125013,-0.122852 0.274366,-0.230294 0.448923,-0.321605 0.176285,-0.0894389 0.366109,-0.165484 0.569471,-0.22583 0.20509,-0.060202 0.421846,-0.104849 0.651708,-0.134086 0.22799,-0.0288048 0.462317,-0.0445034 0.698948,-0.0445034 0.0156986,-0.136247 0.0292369,-0.270333 0.0381663,-0.39765 0.0108018,-0.129045 0.0152665,-0.272061 0.0152665,-0.426311l-0.000288048 0zm-2.00957 2.24663c0,0.0868464 0.0112339,0.167356 0.0292369,0.245561 0.0175709,0.0760446 0.0468078,0.144888 0.0868464,0.203362 0.0404707,0.060202 0.0917433,0.104849 0.15425,0.138119 0.0625064,0.036006 0.138551,0.0517046 0.225397,0.0517046 0.0985124,0 0.198753,-0.0224677 0.304035,-0.0692755 0.104849,-0.0449355 0.207394,-0.107442 0.308067,-0.189824 0.102545,-0.0805094 0.198321,-0.176717 0.292369,-0.288336 0.0917433,-0.113779 0.174125,-0.234327 0.250026,-0.368413 0.0737403,-0.134086 0.134086,-0.272493 0.183054,-0.419686 0.0489681,-0.147481 0.0828138,-0.29957 0.0985124,-0.453387 -0.163323,0.00446474 -0.321605,0.0135383 -0.482624,0.0309651 -0.158282,0.0156986 -0.310372,0.0427751 -0.453387,0.0760446 -0.142584,0.036006 -0.274366,0.0805094 -0.397218,0.138551 -0.120548,0.0557373 -0.22583,0.127317 -0.314836,0.209987 -0.0872785,0.0845421 -0.156554,0.183054 -0.207827,0.299138 -0.0489681,0.113779 -0.0760446,0.245561 -0.0760446,0.395346l0.000144024 0.000144024z"/>
   <path id="_12345" class="fil1" d="M29.5664 52.3261c0.0625064,-0.120548 0.0913112,-0.243256 0.0913112,-0.366109 0,-0.0872785 -0.0135383,-0.165051 -0.042343,-0.241096 -0.0292369,-0.0760446 -0.0737403,-0.143016 -0.134086,-0.198753 -0.0580417,-0.0580417 -0.131782,-0.104849 -0.21906,-0.138551 -0.0890068,-0.0332695 -0.191984,-0.0512725 -0.310372,-0.0512725 -0.169516,0 -0.321605,0.0309651 -0.45742,0.0913112 -0.136247,0.0584737 -0.254634,0.140711 -0.357611,0.245993 -0.104849,0.104849 -0.191984,0.225397 -0.265868,0.363805 -0.0733082,0.136247 -0.13351,0.283295 -0.18075,0.442154 -0.0468078,0.156122 -0.0800773,0.317141 -0.102545,0.482192 -0.0224677,0.163323 -0.0315412,0.323766 -0.0315412,0.482624 0,0.281135 0.036006,0.535625 0.109746,0.765487 0.0715799,0.230294 0.171821,0.426887 0.294529,0.589634 0.125013,0.163323 0.270333,0.288336 0.435384,0.377343 0.165484,0.0894389 0.341769,0.134086 0.529432,0.134086 0.198753,0 0.399378,-0.0512725 0.604901,-0.156554 0.203362,-0.102545 0.402115,-0.269901 0.591938,-0.500195 0.0135383,0.00676913 0.0309651,0.0156986 0.0512725,0.0269325 0.0203074,0.0112339 0.0400387,0.0269325 0.0580417,0.0400387 0.018003,0.0156986 0.0315412,0.0315412 0.0445034,0.0472399 0.0135383,0.0152665 0.0203074,0.0288048 0.0203074,0.042343 0,0.00892949 0,0.0135383 -0.00230438,0.0156986l-0.00676913 0.0131062c-0.211859,0.341769 -0.46635,0.598708 -0.763759,0.768224 -0.294529,0.172253 -0.620743,0.256795 -0.973314,0.256795 -0.191984,0 -0.368413,-0.0265004 -0.529432,-0.0800773 -0.162747,-0.054009 -0.308067,-0.127317 -0.439849,-0.223525 -0.129478,-0.0936156 -0.245561,-0.207827 -0.344073,-0.337304 -0.100241,-0.129478 -0.183054,-0.269901 -0.250026,-0.421846 -0.0648108,-0.152089 -0.116083,-0.310372 -0.149353,-0.477727 -0.0337016,-0.165484 -0.0512725,-0.335144 -0.0512725,-0.50466 0,-0.22799 0.0265004,-0.457852 0.0756126,-0.688146 0.0517046,-0.229862 0.122852,-0.450651 0.221221,-0.665247 0.0957759,-0.212291 0.214596,-0.410612 0.352571,-0.594099 0.138551,-0.185359 0.295105,-0.345802 0.47139,-0.482192 0.176285,-0.136247 0.368413,-0.241096 0.580705,-0.319301 0.211859,-0.078205 0.437689,-0.116083 0.676481,-0.116083 0.17859,0 0.346378,0.0224677 0.500195,0.0648108 0.156554,0.0445034 0.290064,0.104849 0.402115,0.185359 0.111475,0.0805094 0.201057,0.176285 0.265868,0.287904 0.0625064,0.112051 0.0957759,0.237063 0.0957759,0.375038 0,0.0894389 -0.0135383,0.167788 -0.042343,0.237063 -0.0269325,0.0692755 -0.0648108,0.127317 -0.114211,0.176285 -0.0489681,0.0489681 -0.10701,0.0849741 -0.171821,0.111475 -0.0669711,0.0247721 -0.140711,0.0381663 -0.218628,0.0381663 -0.0472399,0 -0.0985124,-0.00676913 -0.149785,-0.0156986 -0.0512725,-0.00892949 -0.100241,-0.0269325 -0.152089,-0.0468078l-0.0131062 -0.036006 0.000432072 0.000144024z"/>
   <path id="_123456" class="fil1" d="M32.6319 48.613c-0.0917433,0.415077 -0.167356,0.841964 -0.229862,1.28412 -0.0625064,0.442154 -0.116515,0.877538 -0.158714,1.30615 0.102545,0.00446474 0.201057,0.00892949 0.299138,0.0112339 0.096208,0.00230438 0.187519,0.00446474 0.270333,0.00446474 0.0849741,0.00230438 0.161019,0.00446474 0.229862,0.00446474 0.0692755,0 0.125013,0 0.172253,0 0.198753,0 0.35934,-0.0112339 0.486657,-0.036006 0.0112339,0.036006 0.0203074,0.0715799 0.0269325,0.100817 0.00633705,0.0309651 0.00849741,0.060202 0.00849741,0.0845421 0,0.096208 -0.0400387,0.158714 -0.118244,0.187519 -0.0800773,0.0292369 -0.194288,0.0427751 -0.345802,0.0427751 -0.143016,0 -0.303602,-0.00892949 -0.482624,-0.0269325 -0.17859,-0.018003 -0.372878,-0.0332695 -0.582433,-0.0489681 -0.0247721,0.234327 -0.0449355,0.460157 -0.060202,0.68325 -0.018003,0.220789 -0.0315412,0.428615 -0.0404707,0.625208 -0.00892949,0.196593 -0.0175709,0.379647 -0.0220357,0.546859 -0.00446474,0.167788 -0.00676913,0.312532 -0.00676913,0.438121 0,0.234327 0.0131062,0.442154 0.0377343,0.625208 0.0224677,0.183054 0.0648108,0.336872 0.127317,0.46635 0.060202,0.127317 0.14532,0.223525 0.25233,0.292801 0.104849,0.0669711 0.241096,0.100241 0.404275,0.100241 0.118244,0 0.250026,-0.0203074 0.394914,-0.0625064 0.14532,-0.0400387 0.310804,-0.10701 0.496163,-0.198753 0.0580417,0.0580417 0.0913112,0.129478 0.100241,0.216756 -0.136247,0.0890068 -0.272493,0.169516 -0.408884,0.243256 -0.138119,0.0715799 -0.272061,0.134086 -0.406148,0.187519 -0.131782,0.0512725 -0.261259,0.0913112 -0.386416,0.120548 -0.122852,0.0292369 -0.241096,0.042343 -0.352571,0.042343 -0.14532,0 -0.279262,-0.0265004 -0.39981,-0.0800773 -0.120548,-0.054009 -0.22583,-0.147481 -0.314836,-0.283871 -0.0872785,-0.136247 -0.156554,-0.319301 -0.205522,-0.551468 -0.0489681,-0.232599 -0.0737403,-0.522663 -0.0737403,-0.877538 0,-0.196593 0.00230438,-0.402115 0.00892949,-0.612102 0.00676913,-0.209555 0.0156986,-0.424151 0.0269325,-0.640475 0.0112339,-0.214596 0.02434,-0.431352 0.042343,-0.647676 0.018003,-0.214596 0.0377343,-0.428615 0.0580417,-0.636442 -0.171821,0.00230438 -0.330535,0.00892949 -0.477727,0.0203074 -0.147481,0.0131062 -0.272493,0.0309651 -0.377343,0.0580417 -0.00676913,-0.0135383 -0.0112339,-0.0292369 -0.0112339,-0.0472399 0,-0.0445034 0.0224677,-0.0868464 0.0669711,-0.127317 0.0445034,-0.042343 0.10701,-0.0777729 0.187519,-0.111475 0.078205,-0.0309651 0.174125,-0.0580417 0.285599,-0.0805094 0.112051,-0.0220357 0.232599,-0.0377343 0.366541,-0.0468078 0.0489681,-0.455548 0.102545,-0.886467 0.160587,-1.29045 0.0557373,-0.40658 0.113779,-0.768224 0.169516,-1.08752 0.0112339,-0.0557373 0.0315412,-0.102977 0.060202,-0.140711 0.0292369,-0.0355739 0.0648108,-0.0648108 0.102977,-0.0872785 0.0400387,-0.0220357 0.0822377,-0.0377343 0.127317,-0.0468078 0.0468078,-0.00892949 0.0913112,-0.0135383 0.134086,-0.0135383 0.0733082,0 0.138119,0.00892949 0.196161,0.0247721 0.0561693,0.0156986 0.112051,0.0355739 0.161019,0.0648108z"/>
  </g>
 </g>
</svg>
