<?xml version="1.0" encoding="UTF-8"?>
<!DOCTYPE svg PUBLIC "-//W3C//DTD SVG 1.1//EN" "http://www.w3.org/Graphics/SVG/1.1/DTD/svg11.dtd">
<!-- Creator: CorelDRAW X5 -->
<svg xmlns="http://www.w3.org/2000/svg" xml:space="preserve" width="336px" height="301px" style="shape-rendering:geometricPrecision; text-rendering:geometricPrecision; image-rendering:optimizeQuality; fill-rule:evenodd; clip-rule:evenodd"
viewBox="0 0 101.292 90.752"
 xmlns:xlink="http://www.w3.org/1999/xlink">
 <defs>
  <style type="text/css">
   <![CDATA[
    .fil0 {fill:#ED3237}
   ]]>
  </style>
 </defs>
 <g id="Layer_x0020_1">
  <metadata id="CorelCorpID_0Corel-Layer"/>
  <g id="_415243248">
   <g>
    <path id="_280551216" class="fil0" d="M85.3967 11.4064l-1.3595 0c-0.189988,3.00095 -0.107648,3.10361 2.88225,3.72525l0.401006 1.12032c0.00641609,0.251297 -0.165036,1.81825 -0.20175,1.98293l2.35577 -0.125827c4.04499,-0.961344 1.87528,-1.30354 3.75163,-4.63848 1.01552,-1.80506 3.20519,-2.77104 4.83987,-3.75234 -4.30876,-1.73947 -10.6357,8.99785 -12.6693,1.68814z"/>
    <path id="_562112544" class="fil0" d="M24.3519 76.8733l-1.99612 -0.47087c0.482633,-3.48572 1.06258,-2.46877 3.2911,-5.05588 -3.61939,1.49032 -6.22789,2.95069 -5.99512,8.19442 1.02622,-0.110856 1.50208,0.0210305 2.42635,-0.419898 2.03568,-0.971681 1.65642,-1.35237 2.27379,-2.24777z"/>
   </g>
   <g>
    <path id="_280551336" class="fil0" d="M25.6469 71.3466c-2.22852,2.58711 -2.80847,1.57016 -3.2911,5.05588l1.99612 0.47087c1.60937,-0.165393 1.61899,-0.0131886 3.28219,-0.627708 3.92879,-1.45075 1.8375,-0.358588 3.01414,-2.37574l-1.95548 0c0.13652,-5.83543 2.04745,-2.71757 2.53863,-8.34627 -3.29787,1.14955 -3.85179,3.60905 -5.58449,5.82296z"/>
    <path id="_562696920" class="fil0" d="M77.2961 17.3152c1.40263,0.583864 3.12927,0.796308 4.99671,0.381757 0.258069,-0.0573884 2.14297,-0.767079 2.36433,-0.88043 2.14084,-1.1 0.923917,-0.203176 2.26239,-1.68494 -2.9899,-0.621648 -3.07224,-0.724305 -2.88225,-3.72525 -2.03853,1.91912 -0.510792,-0.0598835 -2.15973,3.37629 -1.16096,0.0263773 -2.09236,-0.18678 -3.16349,0.249871 -3.51923,1.43614 -1.49851,0.550002 -1.41796,2.2827z"/>
    <path id="_274491000" class="fil0" d="M38.1544 79.7787c0.801655,1.26468 -1.43542,0.484058 2.3187,0.88043 0.954215,0.100875 3.16812,-0.0363578 4.26421,-0.0363578 0.769931,-1.14991 1.7106,-2.71294 2.53222,-3.72704 -4.8969,-0.50402 -6.76363,-0.304408 -9.11513,2.88296z"/>
    <path id="_562112328" class="fil0" d="M25.2413 15.6271c0.0595271,-1.73947 -0.280526,-4.62565 -0.045982,-5.89532 0.747831,-4.05176 1.871,0.253079 1.06685,-4.23391 -5.91635,1.49673 -2.62739,4.47808 -2.62739,10.1292l1.60652 0z"/>
   </g>
   <g>
    <path id="_415242544" class="fil0" d="M3.37629 85.411l0.936393 0.105509 -2.72541 -9.89219 4.69052 -0.0969543 -0.176799 -2.46948c0.671907,-0.562834 1.25256,-1.09109 2.15581,-1.87813 0.128322,-0.111925 0.32829,-0.310824 0.447344,-0.412056l1.6222 -1.14492 0.204602 2.29732c1.71702,-1.52846 2.20108,-3.06939 2.72042,-5.64687 -4.08028,1.1107 -4.4157,2.13478 -7.20812,4.35546 -2.76177,2.1968 -4.03964,2.78209 -6.04324,5.77341l0 0.00891124c0.134025,5.93275 2.07561,4.29308 3.37629,8.99999z"/>
    <path id="_562701864" class="fil0" d="M34.608 55.6236l6.87306 -2.54291c-0.21387,3.74949 0.238108,2.23565 -1.22619,4.75147 0.912511,-0.50901 0.980236,-0.105866 2.21783,-1.45182 1.82538,-1.98542 0.542516,-0.603825 0.955641,-1.92483l-2.91148 -4.49768c-1.2244,1.0804 -1.61579,1.61293 -2.77211,2.57606 -2.90399,2.41851 -1.19981,-0.235613 -3.13676,3.0897z"/>
   </g>
   <g>
    <path id="_278187080" class="fil0" d="M34.608 55.6236c-1.11676,-0.428452 -0.756742,-0.614163 -1.09822,0.520416 -1.77619,2.9817 -2.0945,2.68692 -4.14266,4.81492 -3.00344,3.12178 -0.849419,2.84946 -4.88835,4.35367 -1.62897,-2.6167 0.140441,-0.0456255 0,-3.72454 -2.11838,1.10535 -0.555348,-0.987722 -1.93623,2.57927l-3.1282 0.359301 -6.16301 1.7466c-0.519347,2.57749 -1.00341,4.11842 -2.72042,5.64687l-1.57622 4.30306 -2.67694 -0.695789 -4.69052 0.0969543 2.72541 9.89219 1.50137 2.56501 3.47075 0.420967 10.6151 -3.17347c12.4964,-2.89544 3.74415,-1.00091 10.4661,-3.88174 1.69884,-0.728226 5.47649,-1.49103 7.78842,-1.66854 2.3515,-3.18737 4.21822,-3.38698 9.11513,-2.88296 0.404927,-2.01251 0.104796,-1.70989 0.844072,-3.0259 4.41106,1.028 8.94189,2.28377 12.4098,-1.9398 2.39035,-2.91148 0.084835,0.0830527 10.7819,-2.72399 5.54992,-1.45681 8.25466,0.972394 14.8098,-1.22797 0.199612,-0.0670125 0.398867,-0.178581 0.60133,-0.242742 0.207454,-0.0659432 0.415264,-0.155412 0.62949,-0.214583 2.44738,-0.673333 3.12428,-0.119411 5.54635,-1.20658 2.54327,-1.14171 2.57071,-2.53721 5.86752,-3.41764 -0.614163,-7.38136 -4.55828,-7.19422 -15.2671,-6.82636 -2.85587,0.0980236 -2.92609,0.165749 -4.66771,1.24151 -10.1684,6.28242 -11.092,3.2526 -15.0493,6.05323 -8.71163,6.16551 -15.364,3.39447 -19.0383,4.59642 -2.85944,0.935324 1.80791,2.01073 -9.75424,5.45831 -2.01715,0.601687 -2.07275,0.450196 -4.33478,0.450196 -1.17664,2.01715 0.914649,0.924986 -3.01414,2.37574 -1.66319,0.614519 -1.67282,0.462315 -3.28219,0.627708 -0.617371,0.895401 -0.238108,1.27609 -2.27379,2.24777 -0.924274,0.440928 -1.40013,0.309042 -2.42635,0.419898 -0.232762,-5.24373 2.37574,-6.7041 5.99512,-8.19442 1.7327,-2.21391 2.28662,-4.67341 5.58449,-5.82296 3.69389,-1.5559 0.0994494,-0.180363 2.58854,-1.73021l6.01045 -5.62192c0.0762802,-0.0670125 0.303695,-0.203889 0.424531,-0.33934 1.46429,-2.51582 1.01232,-1.00198 1.22619,-4.75147l-6.87306 2.54291z"/>
    <path id="_278184224" class="fil0" d="M26.2621 5.49788c0.80415,4.48699 -0.319022,0.182146 -1.06685,4.23391 -0.234544,1.26967 0.105509,4.15584 0.045982,5.89532 2.16579,1.48996 1.87386,1.04368 2.61384,4.22036 14.7681,0 8.42219,3.53455 17.167,-0.553923 5.03414,-2.35328 11.3305,-3.07473 15.6061,-5.35458l0.62949 -1.96119c4.92934,-1.24615 12.3635,-3.91096 16.8148,-2.25953 0.66763,0 4.21715,-0.109074 4.68054,-0.0203176 3.63222,0.695433 1.35273,-1.06685 2.64379,1.70846 2.03354,7.30971 8.36052,-3.42762 12.6693,-1.68814l3.22587 0 0 -6.35906c-0.300487,-1.23189 -1.06044,-2.13941 -2.8074,-2.66161 -4.34334,-1.29783 -7.85223,0.497247 -11.5393,0.579587 -3.15315,2.00396 -5.24123,-0.152204 -11.1904,1.50457 -3.6447,1.01481 -1.78652,0.463741 -5.66363,0.809497 -3.86498,0.34433 -2.44524,0.75496 -4.83096,1.29249 -1.40798,3.46897 -2.89116,0.887203 -6.17763,2.30231 4.87694,2.0945 5.99691,-3.25937 10.6949,0.219216 -2.96709,2.18646 -11.9902,3.80367 -16.0837,3.6226 1.40156,-3.26294 0.120123,-0.513287 1.67531,-2.49443 3.10931,-3.96122 -1.06471,2.41495 1.17628,-1.34738 -2.39891,-4.48984 -2.87904,-3.25652 -3.85464,-3.52814 -3.29074,1.76157 -4.78961,1.98578 -8.58188,0.548219l-0.192839 -2.92895c-2.97528,0 -9.94601,-0.73286 -10.8546,-0.613806 -1.44041,0.188205 -2.49443,0.854766 -4.04285,1.77334 -2.54255,1.50885 -1.94158,-0.790249 -2.75642,3.06119z"/>
   </g>
   <path id="_278185808" class="fil0" d="M77.2961 17.3152c-2.13442,0.593132 -7.66438,6.16765 -9.37427,7.99053 -5.28793,5.63725 -1.79829,-2.18896 -10.0284,7.69788 -1.76478,2.12016 -2.22032,1.95833 -4.33621,4.10487l-2.31763 1.90308c-1.89952,1.30817 -1.02444,0.343617 -2.28948,1.93089l-1.73234 2.48802c-4.42924,5.38025 -5.59055,3.04087 -6.70089,6.5273l2.91148 4.49768c5.69606,-1.59689 11.2185,-9.81056 16.8348,-14.0174 2.22817,-1.6689 4.10416,-2.09771 6.00831,-4.12091 5.23517,-5.56275 0.8815,-0.184997 7.69468,-4.96641 4.47665,-3.1421 1.578,0.150778 7.37565,-5.2865 2.99382,-2.80847 6.30131,-5.11469 8.13275,-7.95524l-2.35577 0.125827c0.0367143,-0.16468 0.208167,-1.73163 0.20175,-1.98293l-0.401006 -1.12032c-1.33847,1.48176 -0.121549,0.584934 -2.26239,1.68494 -0.221355,0.113351 -2.10626,0.823042 -2.36433,0.88043 -1.86744,0.414551 -3.59408,0.202107 -4.99671,-0.381757z"/>
   <path id="_278184656" class="fil0" d="M43.916 1.27716l0.192839 2.92895c3.79227,1.43756 5.29114,1.21335 8.58188,-0.548219l1.17664 -1.64644 3.30536 2.77282 8.08748 0.0994494c2.38572,-0.537526 0.965978,-0.948156 4.83096,-1.29249 3.8771,-0.345756 2.01893,0.205315 5.66363,-0.809497 5.94914,-1.65678 8.03722,0.499386 11.1904,-1.50457 -3.62295,-1.73484 -5.36991,-1.44754 -9.89326,-0.632698 -18.0139,3.24512 -11.5215,2.87619 -21.0184,0.245594 -2.43205,-0.67369 -7.94811,0.387104 -12.1175,0.387104z"/>
   <path id="_275187120" class="fil0" d="M52.6907 3.65788c0.975602,0.271615 1.45574,-0.961701 3.85464,3.52814 -2.241,3.76232 1.93303,-2.61384 -1.17628,1.34738 -1.55519,1.98115 -0.273753,-0.768505 -1.67531,2.49443 4.09347,0.181076 13.1166,-1.43614 16.0837,-3.6226 -4.698,-3.47859 -5.81797,1.87528 -10.6949,-0.219216 3.28646,-1.4151 4.76965,1.16666 6.17763,-2.30231l-8.08748 -0.0994494 -3.30536 -2.77282 -1.17664 1.64644z"/>
   <path id="_280551576" class="fil0" d="M19.4144 64.5266l3.1282 -0.359301c1.38089,-3.56699 -0.182146,-1.47392 1.93623,-2.57927 0.140441,3.67892 -1.62897,1.10785 0,3.72454 4.03893,-1.50422 1.8849,-1.23189 4.88835,-4.35367 2.04816,-2.128 2.36647,-1.83322 4.14266,-4.81492 -6.00974,0 -4.22428,1.01624 -7.75349,2.96566 -1.19731,0.661214 -2.17327,0.686878 -3.50176,1.52275 -2.26167,1.42366 -1.99148,1.86138 -2.84019,3.89421z"/>
   <path id="_280551456" class="fil0" d="M60.6281 13.939c6.09814,0 6.15481,-1.53131 10.3042,-1.72557 2.02321,-0.095172 4.22642,0.537169 4.96891,0.433799 2.70367,-0.375698 2.13727,-0.945661 2.17113,-2.92895 -4.45134,-1.65143 -11.8855,1.01339 -16.8148,2.25953l-0.62949 1.96119z"/>
   <path id="_562112496" class="fil0" d="M6.27779 75.5274l2.67694 0.695789 1.57622 -4.30306 -0.204602 -2.29732 -1.6222 1.14492c-0.119054,0.101232 -0.319022,0.30013 -0.447344,0.412056 -0.903243,0.787041 -1.4839,1.3153 -2.15581,1.87813l0.176799 2.46948z"/>
   <path id="_562112400" class="fil0" d="M9.2848 88.5025l-3.47075 -0.420967 -1.50137 -2.56501 -0.936393 -0.105509 0 3.65289c2.04638,0.476573 3.38698,0.883282 5.06479,1.68814 0.593132,-1.05652 0.445918,-0.860469 0.843716,-2.24955z"/>
  </g>
 </g>
</svg>
